<?xml version="1.0" encoding="utf-8" ?>
<svg baseProfile="full" height="200mm" version="1.1" viewBox="0,0,200,200" width="200mm" xmlns="http://www.w3.org/2000/svg" xmlns:ev="http://www.w3.org/2001/xml-events" xmlns:xlink="http://www.w3.org/1999/xlink"><defs /><rect fill="#1a1a1a" height="200" width="200" x="0" y="0" /><rect fill="#1a1a1a" height="200" width="180" x="10" y="0" /><text alignment-baseline="middle" fill="#e1ed5e" style="dominant-baseline: central; font-size:9.0px; font-family:Arial;" text-anchor="middle" x="100.0" y="100.0">2024</text><line stroke="#e1ed5e" stroke-width="0.3" x1="100.0" x2="100.0" y1="15.0" y2="10.0" /><path d="M 100.0 14.0 a86.0,86.0 0 0,1 42.35913384403234,11.155469271406648" fill="none" id="id1" stroke="none" /><text fill="#e1ed5e" style="font-size:6.75px; font-family:Arial;" text-anchor="middle"><textPath startOffset="22.145653131862478" xlink:href="#id1">January</textPath></text><line stroke="#e1ed5e" stroke-width="0.3" x1="143.13028292997686" x2="145.6673583964461" y1="26.7553504044142" y2="22.446841604673864" /><path d="M 143.63769802327073 25.89364864446614 a86.0,86.0 0 0,1 29.32050498858742,28.57503671076993" fill="none" id="id2" stroke="none" /><text fill="#e1ed5e" style="font-size:6.75px; font-family:Arial;" text-anchor="middle"><textPath startOffset="20.669276256404974" xlink:href="#id2">February</textPath></text><line stroke="#e1ed5e" stroke-width="0.3" x1="172.87174338648825" x2="177.1583165268699" y1="56.24261187166439" y2="53.66864786411523" /><path d="M 173.72905801456457 55.72781907015455 a86.0,86.0 0 0,1 12.242430191666344,42.057860355516425" fill="none" id="id3" stroke="none" /><text fill="#e1ed5e" style="font-size:6.75px; font-family:Arial;" text-anchor="middle"><textPath startOffset="22.145653131862474" xlink:href="#id3">March</textPath></text><path d="M 118.00360718960297 89.18935116829356 l 0.5274576848318236 -0.31672318465128024 a21.615244004427346,21.615244004427346 0 0,0 0.18828554239855608,0.31975001414405063 l -0.5328169373601473 0.30762200221367314" fill="#ff0801" stroke="none" /><path d="M 118.36410011445183 89.81374322990088 l 0.5649976713654212 -0.3133946841482928 a21.646094882119304,21.646094882119304 0 0,0 0.17745123317259043,0.32649028228863886 l -0.570294254153353 0.30364956838505064" fill="#ff0801" stroke="none" /><path d="M 118.70294669586156 90.45014215332178 l 0.3298176832327072 -0.168407259102655 a21.370325139696806,21.370325139696806 0 0,0 0.16402242193855857,0.32815471814167474 l -0.33266001838300274 0.16272068479722981" fill="#ff0400" stroke="none" /><path d="M 119.0197475246899 91.09779779509293 l 0.40047080836290255 -0.1874405592703721 a21.442166067909362,21.442166067909362 0 0,0 0.1531741913021086,0.33471325153538717 l -0.4036294645200626 0.18053832552030072" fill="#ff0500" stroke="none" /><path d="M 119.16976305983485 91.42560881287824 l 0.29755572363156074 -0.13309289042438863 a21.325964915516103,21.325964915516103 0 0,0 0.14660698890930235,0.3354654814392592 l -0.2997965945578334 0.12796533920928008" fill="#ff0400" stroke="none" /><path d="M 119.4528033332814 92.08871423366111 l 1.411727395199055 -0.5741372416221815 a22.524010436503975,22.524010436503975 0 0,0 0.14258913297646097,0.3594177612163581 l -1.4213752031416405 0.549818463192258" fill="#ff1502" stroke="none" /><path d="M 119.71291397450082 92.76114493625339 l 0.21550514261963785 -0.0791364734271917 a21.22957579994852,21.22957579994852 0 0,0 0.12268655757718906,0.34317613690210275 l -0.21683187024077014 0.07542538014417216" fill="#ff0200" stroke="none" /><path d="M 119.83427380445688 93.10060997987247 l 0.09223391709786743 -0.0320837442003701 a21.09765481096767,21.09765481096767 0 0,0 0.11605174768098553,0.34308637097464795 l -0.09277108635121793 0.030495698751560527" fill="#ff0000" stroke="none" /><path d="M 119.94978838288452 93.4421083053983 l 0.450162930310664 -0.14797749656505468 a21.473860742534708,21.473860742534708 0 0,0 0.11210918218416152,0.35118041643739445 l -0.45263682827208274 0.1402280464362732" fill="#ff0600" stroke="none" /><path d="M 120.16314734710363 94.1308016681162 l 0.7015624560885406 -0.2042146062865847 a21.73068015247013,21.73068015247013 0 0,0 0.10118374635968955,0.3590654200526284 l -0.7049646945228122 0.1921412623309431" fill="#ff0901" stroke="none" /><path d="M 120.35273937422433 94.82641323984039 l 0.36099365819522633 -0.09176317625850723 a21.372474028321736,21.372474028321736 0 0,0 0.0873345171826959,0.3563546330824582 l -0.3625157018942134 0.08555271856795411" fill="#ff0400" stroke="none" /><path d="M 120.51834098615036 95.52812308129327 l 0.7007685645475328 -0.15272924703174612 a21.71721879782734,21.71721879782734 0 0,0 0.07626082993713718,0.36493567798041116 l -0.7032871053090367 0.1406771177659305" fill="#ff0901" stroke="none" /><path d="M 120.77682067341334 96.94652285012252 l 0.7113122159267081 -0.10453840035979373 a21.71895295094766,21.71895295094766 0 0,0 0.05104521060993405,0.3693377158302696 l -0.7130019430918547 0.09231237632943849" fill="#ff0901" stroke="none" /><path d="M 120.82617615685814 97.30363454192243 l 0.18726770930600364 -0.024245554199816017 a21.188830722731165,21.188830722731165 0 0,0 0.04360652659207543,0.3611245949649968 l -0.18765632215774275 0.021027282311406218" fill="#ff0200" stroke="none" /><path d="M 120.86939407059847 97.66154086499901 l 0.7315244503348556 -0.08196884047400906 a21.736102514767044,21.736102514767044 0 0,0 0.038366919856936,0.3711651459519078 l -0.7328237626734576 0.06939917223916985" fill="#ff0a01" stroke="none" /><path d="M 120.93736805541906 98.37931529534042 l 0.7238403109042856 -0.05602981795006367 a21.72600560341469,21.72600560341469 0 0,0 0.025591205634955125,0.3720905134346608 l -0.7246954777043069 0.0435958803610687" fill="#ff0901" stroke="none" /><path d="M 120.96210409425399 98.7389718711861 l 0.6507591000405681 -0.03914805148104037 a21.65193556140187,21.65193556140187 0 0,0 0.019134548057539506,0.3712051204806717 l -0.6513352375546803 0.027971137623637995" fill="#ff0801" stroke="none" /><line stroke="#e1ed5e" stroke-width="0.3" x1="184.99686870605535" x2="189.99668451229388" y1="99.2704041080226" y2="99.22748670261217" /><path d="M 185.99683186730306 99.26182062694052 a86.0,86.0 0 0,1 -10.086455211305974,41.156179273409016" fill="none" id="id4" stroke="none" /><text fill="#e1ed5e" style="font-size:6.75px; font-family:Arial;" text-anchor="middle"><textPath startOffset="21.40746469413373" xlink:href="#id4">April</textPath></text><path d="M 120.99922638620191 99.81974689727618 l 0.13052871453322495 -0.0011204320271829852 a21.130533523225353,21.130533523225353 0 0,0 0.0,0.3627470695020197 l -0.13052871453322495 -0.0011204320271829694" fill="#ff0100" stroke="none" /><path d="M 120.98066250479742 100.90099992219065 l 1.555507039529416 0.06680016521225361 a22.556940722088658,22.556940722088658 0 0,0 -0.01993433173925121,0.38672071024195115 l -1.554131118333592 -0.0934926688309354" fill="#ff1502" stroke="none" /><path d="M 120.93736805541906 101.62068470465957 l 0.7154382199888538 0.05537944297467223 a21.71757837852391,21.71757837852391 0 0,0 -0.03196246054562127,0.3714522407397756 l -0.7143821367454918 -0.0676527310901052" fill="#ff0901" stroke="none" /><path d="M 120.86939407059847 102.33845913500097 l 0.7134443924999901 0.07994293228222049 a21.71790930737215,21.71790930737215 0 0,0 -0.044695368146021784,0.3701417650053547 l -0.7119669380943047 -0.09217837421098377" fill="#ff0901" stroke="none" /><path d="M 120.82617615685814 102.69636545807757 l 0.6211670933505152 0.0804225164326783 a21.626351609729625,21.626351609729625 0 0,0 -0.0508275732783435,0.36776300051477906 l -0.6196950035169615 -0.0910738251475424" fill="#ff0801" stroke="none" /><path d="M 120.77682067341334 103.0534771498775 l 29.973068748416335 4.4050089267079615 a51.295031834306904,51.295031834306904 0 0,0 -0.13551294413749587,0.8700903117896468 l -29.89303431214057 -4.918887420429059" fill="#84ff25" stroke="none" /><path d="M 120.592083275326 104.11899336999214 l 0.7054960980725546 0.14111897818508448 a21.719471549402478,21.719471549402478 0 0,0 -0.07626874055895362,0.36497353316946385 l -0.7029696466892366 -0.1532089626399574" fill="#ff0901" stroke="none" /><path d="M 120.43855184770803 104.8234425847677 l 0.7872941727343433 0.18579928107441437 a21.808921187303945,21.808921187303945 0 0,0 -0.08911797481398634,0.3636317488245469 l -0.7839886714040611 -0.19928685450706088" fill="#ff0b01" stroke="none" /><path d="M 120.35273937422433 105.17358676015961 l 0.7135185440129117 0.18137362369552024 a21.73620995919829,21.73620995919829 0 0,0 -0.09502917722339942,0.3608412644201219 l -0.710299885984782 -0.19359539248844534" fill="#ff0a01" stroke="none" /><path d="M 120.16314734710363 105.8691983318838 l 1.0324514974352081 0.30053158379404 a22.075302435324108,22.075302435324108 0 0,0 -0.10903483836307869,0.36294151525140667 l -1.0271403390684997 -0.31821070263617013" fill="#ff0e01" stroke="none" /><path d="M 119.94978838288452 106.5578916946017 l 0.26774685599011233 0.08801370969226266 a21.28184178538035,21.28184178538035 0 0,0 -0.11706490390484946,0.34608158732443967 l -0.2661965305128979 -0.0925969714908628" fill="#ff0300" stroke="none" /><path d="M 119.71291397450082 107.23885506374661 l 0.5586085816708342 0.20512880872461794 a21.5950809824596,21.5950809824596 0 0,0 -0.1307729372148174,0.3468907527218814 l -0.5550049606415762 -0.21468784164065824" fill="#ff0801" stroke="none" /><path d="M 119.58574465831526 107.57618678355244 l 0.5848944938413788 0.22624975518264637 a21.627128791115645,21.627128791115645 0 0,0 -0.1369113884842473,0.34510613611876634 l -0.580924430391007 -0.23625690851497683" fill="#ff0801" stroke="none" /><path d="M 119.4528033332814 107.91128576633889 l 0.0672380369446953 0.027345124274559037 a21.072585876269198,21.072585876269198 0 0,0 -0.1391534785630483,0.33391769150615586 l -0.06675871384516148 -0.028495325221992693" fill="#ff0000" stroke="none" /><path d="M 119.31412917781788 108.2440532568976 l 57.94238753345364 24.73215977069282 a84.0,84.0 0 0,0 -0.5774644719321373,1.3213517208966212 l -57.509289179504535 -25.723173561365286" fill="#4dd2ff" stroke="none" /><path d="M 119.16976305983485 108.57439118712176 l 0.5695903242511378 0.25477050714109656 a21.623972073725618,21.623972073725618 0 0,0 -0.15447294012377483,0.3375512520975781 l -0.5651329192723069 -0.2645107414533635" fill="#ff0801" stroke="none" /><path d="M 118.8641267826498 109.22738970284198 l 0.5603410284116067 0.274090876043129 a21.62378512041525,21.62378512041525 0 0,0 -0.16596778868568482,0.3320467547854437 l -0.5555533265141895 -0.2836694869923185" fill="#ff0801" stroke="none" /><path d="M 118.70294669586154 109.54985784667822 l 0.5828650376448632 0.2976150412992869 a21.65445119368546,21.65445119368546 0 0,0 -0.17188677546491166,0.3296155560748448 l -0.5776701932050023 -0.30757684047863454" fill="#ff0801" stroke="none" /><line stroke="#e1ed5e" stroke-width="0.3" x1="174.33088141563837" x2="178.70328620479359" y1="141.23008692659167" y2="143.65538615756765" /><path d="M 175.20536237346943 141.71514677278685 a86.0,86.0 0 0,1 -30.301960400862466,31.631185727798858" fill="none" id="id5" stroke="none" /><text fill="#e1ed5e" style="font-size:6.75px; font-family:Arial;" text-anchor="middle"><textPath startOffset="22.145653131862474" xlink:href="#id5">May</textPath></text><path d="M 118.36410011445183 110.18625677009912 l 0.5814159113583255 0.3225016051103071 a21.664869722035345,21.664869722035345 0 0,0 -0.18318847684724016,0.3236764858082424 l -0.575794069489707 -0.3324348610176722" fill="#ff0901" stroke="none" /><path d="M 118.18653347947321 110.5 l 0.5406312433522091 0.3121335938817199 a21.62426718776344,21.62426718776344 0 0,0 -0.1883641413247723,0.3198834923041355 l -0.5351933918976715 -0.3213682544794048" fill="#ff0801" stroke="none" /><path d="M 118.00360718960297 110.81064883170644 l 0.5701493062669096 0.3423582766931348 a21.66504091682913,21.66504091682913 0 0,0 -0.19419308342531874,0.31719980759846456 l -0.5641882583861862 -0.35209520041615633" fill="#ff0901" stroke="none" /><path d="M 117.423217284605 111.72311816256416 l 0.6021463178504334 0.40515091558611527 a21.72575991381524,21.72575991381524 0 0,0 -0.21085394504389748,0.3076422072655374 l -0.5951026359912155 -0.41542785792169673" fill="#ff0901" stroke="none" /><path d="M 117.21940702142032 112.02048342749411 l 0.4266844762576776 0.29785890241424606 a21.520364841266883,21.520364841266883 0 0,0 -0.21406091854606343,0.30110348951830096 l -0.4215084591816535 -0.305139618642051" fill="#ff0601" stroke="none" /><path d="M 116.79662413953412 112.60449989151573 l 0.4536377769371058 0.3404182449217909 a21.56716118885205,21.56716118885205 0 0,0 -0.22475859906006002,0.29421622101757766 l -0.44772720052274134 -0.3481553791802458" fill="#ff0701" stroke="none" /><path d="M 116.57777611688842 112.89097897827486 l 0.6032120581088913 0.4690613448809895 a21.764122589843755,21.764122589843755 0 0,0 -0.23187451576096965,0.29296587592117856 l -0.59507111170636 -0.47934716471685096" fill="#ff0a01" stroke="none" /><path d="M 116.1254893667686 113.45245675266167 l 0.7149871047057829 0.5964676721431341 a21.931117738960765,21.931117738960765 0 0,0 -0.24364995223167168,0.2870190310798186 l -0.7046425889669966 -0.6086534856725094" fill="#ff0c01" stroke="none" /><path d="M 115.89218393027572 113.72728997021213 l 0.503114871402782 0.4345786430847172 a21.664818148708346,21.664818148708346 0 0,0 -0.24552319146389648,0.2793603218152995 l -0.49558061598029995 -0.4431512427113099" fill="#ff0901" stroke="none" /><path d="M 115.41159269507618 114.26474011684316 l 0.4107552955833915 0.38018896937148844 a21.559699531250075,21.559699531250075 0 0,0 -0.2537311412165498,0.26945367919081925 l -0.4041683206305817 -0.38718410850680485" fill="#ff0701" stroke="none" /><path d="M 114.91283532996324 114.78537596483092 l 0.45069627364004666 0.44684419188398744 a21.63466279463466,21.63466279463466 0 0,0 -0.263745165747148,0.2614909471066915 l -0.4429591877629338 -0.4545151492193407" fill="#ff0801" stroke="none" /><path d="M 114.39649973595853 115.28858382429668 l 0.7214351484542417 0.766139127095412 a22.05234872332878,22.05234872332878 0 0,0 -0.2778283307045351,0.2571537551639759 l -0.7081770464357394 -0.7784106283917674" fill="#ff0e01" stroke="none" /><path d="M 113.86319453409587 115.77377054828091 l 0.5093729073814963 0.5795728643052239 a21.771599289666106,21.771599289666106 0 0,0 -0.28284471640958814,0.24431452943984777 l -0.4993487112090526 -0.5882315262097892" fill="#ff0a01" stroke="none" /><path d="M 113.59037401385872 116.0094264158162 l 0.3168715976411154 0.37327394525893487 a21.489633585041716,21.489633585041716 0 0,0 -0.28328010122838454,0.23632233565065053 l -0.3104171622508358 -0.37865846482145565" fill="#ff0601" stroke="none" /><path d="M 113.03279911837588 116.46651593811092 l 0.32416539556098795 0.4095723876433259 a21.522333939543532,21.522333939543532 0 0,0 -0.2916686765444642,0.22680332702319503 l -0.3170867743812931 -0.4150767662873141" fill="#ff0601" stroke="none" /><path d="M 112.16784306229584 117.11559508785304 l 25.619004328475686 36.0363379438106 a65.2148282274508,65.2148282274508 0 0,0 -0.9179915882045047,0.6408294233863303 l -24.996617649097423 -36.47081218300205" fill="#36ff6f" stroke="none" /><path d="M 111.8722381534696 117.32195027204791 l 0.25149035543203885 0.36693194445567334 a21.444844299432233,21.444844299432233 0 0,0 -0.3054396443400952,0.20551342405023926 l -0.24515442299494034 -0.37119504256303376" fill="#ff0500" stroke="none" /><path d="M 111.5731344415666 117.5232005979908 l 0.44692994179383133 0.6767088953164812 a21.81097552482938,21.81097552482938 0 0,0 -0.31419683194055226,0.2036585904454368 l -0.4352474775962694 -0.6842813274658126" fill="#ff0b01" stroke="none" /><path d="M 110.96478420261333 117.91015095944535 l 0.2946590211617857 0.4813033665826439 a21.56433754919889,21.56433754919889 0 0,0 -0.3173728744283745,0.19057329223089486 l -0.2863533901759746 -0.48629065934946214" fill="#ff0701" stroke="none" /><line stroke="#e1ed5e" stroke-width="0.3" x1="143.1302829299769" x2="145.66735839644613" y1="173.24464959558577" y2="177.55315839532614" /><path d="M 143.63769802327073 174.10635135553383 a86.0,86.0 0 0,1 -40.68552437913181,11.842963189579606" fill="none" id="id6" stroke="none" /><text fill="#e1ed5e" style="font-size:6.75px; font-family:Arial;" text-anchor="middle"><textPath startOffset="21.407464694133747" xlink:href="#id6">June</textPath></text><path d="M 110.34350942703117 118.27599006163325 l 0.3964684729183254 0.7005218027713409 a21.804933566312275,21.804933566312275 0 0,0 -0.32733962065000966,0.18156976961500057 l -0.3843846641122212 -0.7072244878194852" fill="#ff0b01" stroke="none" /><path d="M 109.71004243097381 118.62028667847754 l 0.2594927158655501 0.4976114980692914 a21.56120733476857,21.56120733476857 0 0,0 -0.3296531781992206,0.16832326166041078 l -0.2509123159527472 -0.5019927114025384" fill="#ff0701" stroke="none" /><path d="M 108.73861861582097 119.09545874513695 l 0.3489691106904286 0.7625604857559254 a21.838616679211892,21.838616679211892 0 0,0 -0.3422283833001043,0.15307440288083676 l -0.3358273245346974 -0.7684386395466124" fill="#ff0b01" stroke="none" /><path d="M 108.07796709384702 119.3841803445677 l 0.44790942026132374 1.074819552928063 a22.16441398141525,22.16441398141525 0 0,0 -0.35246224616294486,0.14334332710134848 l -0.429392712907938 -1.0823501366087027" fill="#ff1001" stroke="none" /><path d="M 107.407793817531 119.65005319985036 l 0.2914158683446763 0.7730152130721771 a21.826120891857908,21.826120891857908 0 0,0 -0.3517236231958675,0.1291577863173419 l -0.2781030934946818 -0.777903848398241" fill="#ff0b01" stroke="none" /><path d="M 107.06938296918513 119.77432235084164 l 0.25406006188145563 0.7106512098746538 a21.754699713223424,21.754699713223424 0 0,0 -0.35273093729744737,0.12269813014446752 l -0.24182335253898646 -0.7149077725877118" fill="#ff0a01" stroke="none" /><path d="M 106.38641147887787 120.00534299687104 l 0.21530896451981127 0.6744522647445789 a21.70798573970221,21.70798573970221 0 0,0 -0.3559689633788408,0.11028009478838748 l -0.20369936826934615 -0.6780489473396107" fill="#ff0901" stroke="none" /><path d="M 105.69591212413111 120.21278271476187 l 0.2506408956671448 0.8894361171918749 a21.924076547233067,21.924076547233067 0 0,0 -0.3631238852599577,0.0989710296677952 l -0.235335609472492 -0.8936076410038121" fill="#ff0c01" stroke="none" /><path d="M 104.29559338865022 120.5559693870025 l 0.14811327294776708 0.7087756286634338 a21.724085929576418,21.724085929576418 0 0,0 -0.3656924154634626,0.0731487249061043 l -0.1359243719533458 -0.7112137502323995" fill="#ff0901" stroke="none" /><path d="M 103.94208987418118 120.62667999033965 l 0.1499252377672615 0.7844721963735625 a21.798670272266804,21.798670272266804 0 0,0 -0.36815386668315025,0.06708989836022393 l -0.13643663753305407 -0.78693026866515" fill="#ff0a01" stroke="none" /><path d="M 103.2317021107853 120.74984581791261 l 0.14518677425354967 0.9322032406721971 a21.943441615224756,21.943441615224756 0 0,0 -0.37269879622448615,0.05477388845708189 l -0.12916287242137803 -0.9345582024281613" fill="#ff0c01" stroke="none" /><path d="M 102.51750503828377 120.84855314841334 l 0.07768269670480472 0.6433241667179701 a21.647997364848578,21.647997364848578 0 0,0 -0.3693190599078928,0.041382970988521194 l -0.06662773519611263 -0.6445628982134622" fill="#ff0801" stroke="none" /><path d="M 101.80034050326958 120.92268563240118 l 0.053302519147979 0.6194560692951404 a21.62174510881398,21.62174510881398 0 0,0 -0.37007264662736367,0.028645963351951506 l -0.04266087774537953 -0.6202797996421456" fill="#ff0801" stroke="none" /><path d="M 101.08105385017728 120.97215588758144 l 0.024373738358228744 0.4728440126530886 a21.473471793693594,21.473471793693594 0 0,0 -0.3682948271691967,0.015816164553752638 l -0.016253150588202495 -0.47319274563267216" fill="#ff0600" stroke="none" /><path d="M 100.72087961077811 120.9876233191556 l 0.9898704742531229 28.818998814454034 a49.83599376167399,49.83599376167399 0 0,0 -0.8552489824647987,0.022028180011297478 l -0.4950081777175803 -28.83174471181538" fill="#94ff23" stroke="none" /><line stroke="#e1ed5e" stroke-width="0.3" x1="101.45913802915013" x2="101.54496967792366" y1="184.9874750549273" y2="189.98673829345242" /><path d="M 101.47630435890484 185.9873277026323 a86.0,86.0 0 0,1 -42.54439059252881,-10.42667462771756" fill="none" id="id7" stroke="none" /><text fill="#e1ed5e" style="font-size:6.75px; font-family:Arial;" text-anchor="middle"><textPath startOffset="22.145653131862474" xlink:href="#id7">July</textPath></text><path d="M 99.63950707515114 120.99690560180557 l -0.008857981406129653 0.5159330089072809 a21.516009044024145,21.516009044024145 0 0,0 -0.36924205684760775,-0.009510365592646087 l 0.017713352324481325 -0.5157049259645874" fill="#ff0601" stroke="none" /><path d="M 98.19965949673042 120.92268563240118 l -0.06189447993898076 0.7193076775156806 a21.721965692799817,21.721965692799817 0 0,0 -0.37123918910864634,-0.035156737184518665 l 0.07423323243264239 -0.7181391848259782" fill="#ff0901" stroke="none" /><path d="M 96.76829788921471 120.74984581791261 l -0.11158079761746342 0.71642876336751 a21.725065822789386,21.725065822789386 0 0,0 -0.3680045076580567,-0.06055500169299322 l 0.12386280832858368 -0.7144077631788485" fill="#ff0901" stroke="none" /><path d="M 95.70440661134978 120.55596938700252 l -0.06223636579239325 0.29782354013463197 a21.30425684262703,21.30425684262703 0 0,0 -0.35734094980819864,-0.07788079682634388 l 0.06733973221972833 -0.2967112851745693" fill="#ff0300" stroke="none" /><path d="M 93.61358852112213 120.00534299687104 l -0.21889672840201368 0.6856908840055882 a21.719783138253092,21.719783138253092 0 0,0 -0.35421580324160096,-0.11643777014535436 l 0.2306352692913582 -0.6818321924582124" fill="#ff0901" stroke="none" /><path d="M 92.25597844496254 119.51999308798841 l -0.22950503289900517 0.5785026066892787 a21.622364705034165,21.622364705034165 0 0,0 -0.34384248722663946,-0.13983774618256156 l 0.23940198131608548 -0.5744776039274259" fill="#ff0801" stroke="none" /><path d="M 91.92203290615298 119.3841803445677 l -0.15796262742841205 0.37905280155280646 a21.410649751039884,21.410649751039884 0 0,0 -0.33804859405979837,-0.14429284319217697 l 0.1644462966586416 -0.3762853087012256" fill="#ff0500" stroke="none" /><path d="M 91.26138138417905 119.09545874513695 l -0.269451875418847 0.5888009761113712 a21.647526758239717,21.647526758239717 0 0,0 -0.33657913349210417,-0.1575360293510503 l 0.2795197227824411 -0.5840887151897942" fill="#ff0801" stroke="none" /><path d="M 89.97174638481275 118.45085714620012 l -0.24359325920334715 0.44818416045357784 a21.51010461437904,21.51010461437904 0 0,0 -0.32291359490729654,-0.17911472774497356 l 0.2512510422667463 -0.4439365172754559" fill="#ff0601" stroke="none" /><line stroke="#e1ed5e" stroke-width="0.3" x1="58.13341422392154" x2="55.67067388415222" y1="173.97424548756322" y2="178.32567169271397" /><path d="M 57.64086615596768 174.84453072859336 a86.0,86.0 0 0,1 -31.369924170532247,-30.572349798747897" fill="none" id="id8" stroke="none" /><text fill="#e1ed5e" style="font-size:6.75px; font-family:Arial;" text-anchor="middle"><textPath startOffset="22.145653131862474" xlink:href="#id8">August</textPath></text><path d="M 89.65649057296885 118.27599006163327 l -0.2123025477094284 0.3751182593653425 a21.43102909446254,21.43102909446254 0 0,0 -0.31861565260924396,-0.18395283280197666 l 0.21871066817907206 -0.37141852928719415" fill="#ff0500" stroke="none" /><path d="M 89.34428304082925 118.09573695890944 l -0.19023470615545368 0.32306012033116327 a21.374909435429995,21.374909435429995 0 0,0 -0.31458496847823747,-0.1888992348108808 l 0.19575243119111843 -0.31974688498436377" fill="#ff0400" stroke="none" /><path d="M 88.4268655584334 117.5232005979908 l -0.3315111633396228 0.5019501540403041 a21.601542690554773,21.601542690554773 0 0,0 -0.30767150483694894,-0.20701511939729333 l 0.3400789562735774 -0.4961853605858896" fill="#ff0801" stroke="none" /><path d="M 88.1277618465304 117.32195027204791 l -0.22475487113330694 0.3279240738641953 a21.39755370746333,21.39755370746333 0 0,0 -0.30120104346662646,-0.21026172079158287 l 0.23035100577369882 -0.32401753726748345" fill="#ff0500" stroke="none" /><path d="M 87.2517909369889 116.68781488649013 l -0.39473795394930444 0.5167246529781919 a21.65024796753509,21.65024796753509 0 0,0 -0.2934021556067546,-0.22815129082688454 l 0.40355005419128737 -0.5098723105305143" fill="#ff0801" stroke="none" /><path d="M 86.40962598614128 116.0094264158162 l -0.3257580185368921 0.38374212672957253 a21.503364983355038,21.503364983355038 0 0,0 -0.2793599629337126,-0.24130448238477348 l 0.3322974612334673 -0.3780935118800767" fill="#ff0601" stroke="none" /><path d="M 86.13680546590413 115.77377054828092 l -0.34438907836430094 0.3918515525474236 a21.52168139369776,21.52168139369776 0 0,0 -0.2754108796214917,-0.24627410682529577 l 0.35106498480916354 -0.38588191583874554" fill="#ff0601" stroke="none" /><path d="M 85.86807049272751 115.53346607816431 l -0.44209843600694515 0.48594362541854985 a21.656956797822133,21.656956797822133 0 0,0 -0.27284695298301587,-0.2525430663125913 l 0.45037516030392827 -0.4782828129735813" fill="#ff0801" stroke="none" /><path d="M 85.34317274990678 115.03919595460226 l -0.549465287259131 0.563799789977694 a21.78726253885324,21.78726253885324 0 0,0 -0.26560548800934364,-0.26333536927415435 l 0.5590626953984371 -0.5542844104748802" fill="#ff0a01" stroke="none" /><path d="M 84.83555147118756 114.52719865689866 l -0.4603814315128279 0.44103499713998456 a21.637544454280693,21.637544454280693 0 0,0 -0.25464728019752214,-0.2704265870407954 l 0.467884545446603 -0.433066950154699" fill="#ff0801" stroke="none" /><path d="M 83.20337586046588 112.60449989151573 l -0.4906485263970543 0.36819180130297047 a21.613433923908946,21.613433923908946 0 0,0 -0.22014618410392625,-0.2986705790358256 l 0.496896730084811 -0.35971491299826525" fill="#ff0801" stroke="none" /><path d="M 82.78059297857968 112.02048342749411 l -0.4784927980259895 0.33402513464556394 a21.583547897209584,21.583547897209584 0 0,0 -0.20947374178044398,-0.3056284494562843 l 0.4841562766217585 -0.3257619501192286" fill="#ff0701" stroke="none" /><path d="M 82.576782715395 111.72311816256416 l -0.34314861515500206 0.23088570251240742 a21.413593012159833,21.413593012159833 0 0,0 -0.20258845744828863,-0.30674474548170255 l 0.3470615115240174 -0.22496107869164383" fill="#ff0500" stroke="none" /><path d="M 82.37810715431573 111.42229804090323 l -0.5155333515999092 0.33416249000981013 a21.6143608112025,21.6143608112025 0 0,0 -0.19914268684677913,-0.31308538044423845 l 0.5211937300725783 -0.32526343488689974" fill="#ff0801" stroke="none" /><path d="M 81.99639281039703 110.81064883170644 l -0.459881859084419 0.27614584290114147 a21.536421337072383,21.536421337072383 0 0,0 -0.18759893582250992,-0.31858400607139087 l 0.46455450503669893 -0.2682106685361918" fill="#ff0701" stroke="none" /><line stroke="#e1ed5e" stroke-width="0.3" x1="26.387840678322732" x2="22.057713659400548" y1="142.50000000000003" y2="145.00000000000006" /><path d="M 25.521815274538298 143.00000000000003 a86.0,86.0 0 0,1 -11.493303480769221,-40.785679425670985" fill="none" id="id9" stroke="none" /><text fill="#e1ed5e" style="font-size:6.75px; font-family:Arial;" text-anchor="middle"><textPath startOffset="21.40746469413373" xlink:href="#id9">September</textPath></text><path d="M 81.63589988554817 110.18625677009913 l -0.6478474264644786 0.35935004670453896 a21.74083651640777,21.74083651640777 0 0,0 -0.17822790997868831,-0.3279192801329219 l 0.6539206860584965 -0.3481759330970301" fill="#ff0a01" stroke="none" /><path d="M 81.4637452351635 109.86951160357371 l -0.49361951519119524 0.26282458860954844 a21.559228924641214,21.559228924641214 0 0,0 -0.1711309286123606,-0.3281661200729349 l 0.49805851277850505 -0.2543122254321107" fill="#ff0701" stroke="none" /><path d="M 81.1358732173502 109.22738970284198 l -0.5373656100820069 0.2628524476252272 a21.598208331705084,21.598208331705084 0 0,0 -0.16005377177696936,-0.33445082510779933 l 0.5417986398188882 -0.2535891204523232" fill="#ff0801" stroke="none" /><path d="M 80.9802524753101 108.90220220490708 l -0.5373923223687215 0.25152674139763415 a21.593343247858236,21.593343247858236 0 0,0 -0.1542541401379007,-0.3370731346413326 l 0.5416309273616783 -0.24226462454161266" fill="#ff0701" stroke="none" /><path d="M 80.68587082218212 108.24405325689762 l -0.9448609431645016 0.4033049517322699 a22.02733494343835,22.02733494343835 0 0,0 -0.14545819382825118,-0.349046712991636 l 0.9516449815292384 -0.3870257292993526" fill="#ff0e01" stroke="none" /><path d="M 80.41425534168474 107.57618678355246 l -0.5128258529409032 0.19837205667160446 a21.549856188755466,21.549856188755466 0 0,0 -0.1304990702581561,-0.3461642880819872 l 0.5161556070134953 -0.18953948839547236" fill="#ff0701" stroke="none" /><path d="M 80.16572619554312 106.89939002012753 l -0.6420991465859536 0.22335541434806966 a21.67983744760421,21.67983744760421 0 0,0 -0.11925415633998117,-0.35255372314424777 l 0.645838724498302 -0.21230001672966023" fill="#ff0901" stroke="none" /><path d="M 80.05021161711548 106.5578916946017 l -0.7281917511571714 0.2393710923313867 a21.76652576362264,21.76652576362264 0 0,0 -0.11363710660173681,-0.3559666179134353 l 0.7321935735361631 -0.2268354407265597" fill="#ff0a01" stroke="none" /><path d="M 79.83685265289637 105.86919833188381 l -0.5280282558802066 0.1537013297204714 a21.54994357689288,21.54994357689288 0 0,0 -0.10034218945982912,-0.35607903150092207 l 0.5305889374146108 -0.14461437431655366" fill="#ff0701" stroke="none" /><path d="M 79.64726062577567 105.17358676015961 l -0.637938273702577 0.16216141453698102 a21.658226074703258,21.658226074703258 0 0,0 -0.08850218813045682,-0.3611191290180156 l 0.6406279883493274 -0.1511864609108658" fill="#ff0801" stroke="none" /><path d="M 79.56144815229197 104.8234425847677 l -0.7762367466809883 0.1831897586336326 a21.797560013143922,21.797560013143922 0 0,0 -0.08281945398065788,-0.36491779545357095 l 0.7792670622193126 -0.16983762924103535" fill="#ff0a01" stroke="none" /><path d="M 79.407916724674 104.11899336999214 l -0.6532521900461016 0.13066873340381532 a21.666192721132095,21.666192721132095 0 0,0 -0.06982055207468346,-0.3653306318117498 l 0.6553990344029419 -0.11943553655875098" fill="#ff0901" stroke="none" /><path d="M 79.2786578344484 103.40968896794605 l -1.147663799898029 0.18884764153592554 a22.163097428984376,22.163097428984376 0 0,0 -0.0585512178549644,-0.3759408204385205 l 1.150736509891261 -0.16911863916595501" fill="#ff1001" stroke="none" /><path d="M 79.06263194458094 101.62068470465958 l -0.7304841402103845 0.05654409235686884 a21.73266930704061,21.73266930704061 0 0,0 -0.02559905485551109,-0.3722046393788679 l 0.7313471562309617 -0.043996028823657614" fill="#ff0901" stroke="none" /><path d="M 79.03789590574601 101.26102812881392 l -0.6490645414994336 0.03904611104716601 a21.650237939388173,21.650237939388173 0 0,0 -0.019133047811526277,-0.3711760161088089 l 0.6496391787675326 -0.02789830156162629" fill="#ff0801" stroke="none" /><path d="M 79.01933749520258 100.90099992219065 l -0.7156938699790429 0.03073497421809219 a21.7163535120077,21.7163535120077 0 0,0 -0.012797460571342456,-0.3725841012803499 l 0.7161160175472335 -0.018444608373622388" fill="#ff0901" stroke="none" /><line stroke="#e1ed5e" stroke-width="0.3" x1="15.003131293944662" x2="10.003315487706104" y1="100.72959589197737" y2="100.7725132973878" /><path d="M 14.003168132696942 100.73817937305945 a86.0,86.0 0 0,1 10.791469493833604,-42.45332614584628" fill="none" id="id10" stroke="none" /><text fill="#e1ed5e" style="font-size:6.75px; font-family:Arial;" text-anchor="middle"><textPath startOffset="22.145653131862435" xlink:href="#id10">October</textPath></text><path d="M 79.00077361379809 100.18025310272382 l -0.5528041548771475 0.0047451588112169645 a21.55282452024271,21.55282452024271 0 0,0 0.0,-0.3699965230700688 l 0.5528041548771475 0.0047451588112167615" fill="#ff0701" stroke="none" /><path d="M 79.00077361379809 99.81974689727619 l -0.8891042960845061 -0.007631891054787145 a21.889137050784072,21.889137050784072 0 0,0 0.006450591518330999,-0.3757146169872 l 0.8888422729675091 0.022893424011039526" fill="#ff0c01" stroke="none" /><path d="M 79.01933749520258 99.09900007780938 l -0.8230415097463294 -0.035344943758164486 a21.82380009214298,21.82380009214298 0 0,0 0.019286430558463213,-0.37415160042282786 l 0.8223134897312958 0.04946833755770435" fill="#ff0b01" stroke="none" /><path d="M 79.0935383218832 98.0201363427161 l -0.6675596179554194 -0.06321858987949587 a21.67054636948621,21.67054636948621 0 0,0 0.038251205120572465,-0.3700457108455332 l 0.6663760203531832 0.07466882300794188" fill="#ff0901" stroke="none" /><path d="M 79.13060592940154 97.66154086499901 l -1.5300844220061696 -0.1714491509364859 a22.539660076063154,22.539660076063154 0 0,0 0.04638652785255691,-0.38414699339139924 l 1.5269158078939442 0.19768982125132142" fill="#ff1502" stroke="none" /><path d="M 79.22317932658666 96.9465228501225 l -0.6777085605419351 -0.09959982022365867 a21.684988333638177,21.684988333638177 0 0,0 0.05728813313092012,-0.367830910434312 l 0.6758989352727474 0.11121891258942065" fill="#ff0901" stroke="none" /><path d="M 79.2786578344484 96.59031103205396 l -0.7013257549015178 -0.11540288608329517 a21.710757089732166,21.710757089732166 0 0,0 0.06366956846442491,-0.3672291513734049 l 0.6992413689448587 0.12742507037729273" fill="#ff0901" stroke="none" /><path d="M 79.407916724674 95.88100663000787 l -1.360166398258415 -0.272071373333342 a22.387110472579153,22.387110472579153 0 0,0 0.078613179727418,-0.37619252328711017 l 1.3552955077066302 0.29538034790586126" fill="#ff1302" stroke="none" /><path d="M 79.56144815229197 95.17655741523228 l -0.7710973894610551 -0.18197688432347295 a21.79227947749625,21.79227947749625 0 0,0 0.08904997165771743,-0.36335427274082693 l 0.7678598912870395 0.19518698167241755" fill="#ff0a01" stroke="none" /><path d="M 79.64726062577567 94.8264132398404 l -0.7348449385893682 -0.18679470980063775 a21.758214578717606,21.758214578717606 0 0,0 0.09512537986829771,-0.3612065615324408 l 0.7315300779163448 0.19938177570586316" fill="#ff0a01" stroke="none" /><path d="M 79.83685265289637 94.1308016681162 l -0.6755276149580521 -0.19663624346933967 a21.703564759504516,21.703564759504516 0 0,0 0.10719874313787366,-0.3568297514043073 l 0.6720525518165489 0.20820359846437042" fill="#ff0901" stroke="none" /><path d="M 80.05021161711548 93.44210830539832 l -0.7482643785121639 -0.24596936363601193 a21.787655069175397,21.787655069175397 0 0,0 0.11984722810678672,-0.3543070344408544 l 0.7439317288330122 0.25877807255102797" fill="#ff0a01" stroke="none" /><path d="M 80.28708602549916 92.7611449362534 l -0.5242068593464695 -0.19249601977360534 a21.558433119553783,21.558433119553783 0 0,0 0.13055100942123193,-0.34630206288278964 l 0.5208251661108015 0.2014663628505399" fill="#ff0701" stroke="none" /><path d="M 80.41425534168474 92.42381321644754 l -1.061531705191052 -0.4106232678661981 a22.138183214266903,22.138183214266903 0 0,0 0.14014663858796142,-0.35326107980191307 l 1.054326391636959 0.42878536488169405" fill="#ff0f01" stroke="none" /><path d="M 80.68587082218212 91.75594674310238 l -0.7677808771654847 -0.32772000138889734 a21.834798104125387,21.834798104125387 0 0,0 0.15010500186836406,-0.34346961964660033 l 0.7620419932801433 0.3408516908113645" fill="#ff0b01" stroke="none" /><path d="M 80.9802524753101 91.09779779509293 l -1.1662410331211888 -0.5458596904626271 a22.287664921090705,22.287664921090705 0 0,0 0.16516299777910148,-0.3451271424048196 l 1.1566987773821822 0.5657993349325339" fill="#ff1101" stroke="none" /><path d="M 81.29705330413844 90.45014215332179 l -0.6092638491532827 -0.3110944625544646 a21.68409224708158,21.68409224708158 0 0,0 0.1721220575805506,-0.33006674055469065 l 0.6038337225977921 0.32150744621364175" fill="#ff0901" stroke="none" /><path d="M 81.46374523516351 90.13048839642627 l -0.6813695989668023 -0.3627909331545353 a21.771933799995388,21.771933799995388 0 0,0 0.17848284054933033,-0.3283883236694808 l 0.6750414088021214 0.3744340902986357" fill="#ff0a01" stroke="none" /><line stroke="#e1ed5e" stroke-width="0.3" x1="26.387840678322718" x2="22.05771365940052" y1="57.49999999999999" y2="54.99999999999999" /><path d="M 25.521815274538284 56.99999999999999 a86.0,86.0 0 0,1 29.574782752854787,-30.34633250058573" fill="none" id="id11" stroke="none" /><text fill="#e1ed5e" style="font-size:6.75px; font-family:Arial;" text-anchor="middle"><textPath startOffset="21.40746469413373" xlink:href="#id11">November</textPath></text><path d="M 81.81346652052679 89.5 l -0.5751991723359082 -0.33209139698578666 a21.664182793971573,21.664182793971573 0 0,0 0.18871183721769003,-0.32047395594389294 l 0.5694136249884388 0.3419165212232524" fill="#ff0801" stroke="none" /><path d="M 82.18462484594161 88.88188828441811 l -1.2852047906505628 -0.8020628427012895 a22.51494427539538,22.51494427539538 0 0,0 0.2074401614913311,-0.32613038875938055 l 1.2712469375333417 0.8240069061393419" fill="#ff1502" stroke="none" /><path d="M 82.78059297857968 87.97951657250589 l -0.5951513854323863 -0.4154618888177067 a21.72581936640053,21.72581936640053 0 0,0 0.21610455417648544,-0.30397811896399124 l 0.5879317327259287 0.42561723449121824" fill="#ff0901" stroke="none" /><path d="M 83.2033758604659 87.39550010848427 l -0.6790899604081891 -0.5096017664732876 a21.849033058673154,21.849033058673154 0 0,0 0.22769608007671444,-0.2980614779627816 l 0.670241902977168 0.5211841576769535" fill="#ff0b01" stroke="none" /><path d="M 83.64595745247003 86.82634096563983 l -1.1876922531542897 -0.9567208068178052 a22.525099206740606,22.525099206740606 0 0,0 0.2451515747936181,-0.29904506015973187 l 1.1710938591220417 0.9769681486760299" fill="#ff1502" stroke="none" /><path d="M 84.10781606972428 86.27271002978789 l -0.4388576616536564 -0.3790747957360485 a21.579908396175156,21.579908396175156 0 0,0 0.24456092567032198,-0.2782654399829081 l 0.43228567202474194 0.38655251353025677" fill="#ff0701" stroke="none" /><path d="M 84.34580500576568 86.00192230759919 l -0.5347776679529131 -0.47820148828623676 a21.71740073706425,21.71740073706425 0 0,0 0.2508900643119211,-0.2757721301491173 l 0.5264899027991261 0.4873111939930118" fill="#ff0901" stroke="none" /><path d="M 84.83555147118756 85.47280134310135 l -0.5145850285533476 -0.4929608169698315 a21.712606566542025,21.712606566542025 0 0,0 0.2601513520743681,-0.26693820531154006 l 0.506046875328177 0.501721714349102" fill="#ff0901" stroke="none" /><path d="M 85.34317274990677 84.96080404539775 l -0.8091668926449298 -0.8302765155662384 a22.159357646480785,22.159357646480785 0 0,0 0.2746995471871471,-0.26315595225013594 l 0.7947948595924822 0.8440445981219429" fill="#ff1001" stroke="none" /><path d="M 85.86807049272753 84.46653392183569 l -0.5053346150779917 -0.5554512635657215 a21.750925548501833,21.750925548501833 0 0,0 0.27834449494490665,-0.2488973637370633 l 0.4957250933096931 0.5640441571861857" fill="#ff0a01" stroke="none" /><path d="M 86.13680546590413 84.22622945171909 l -0.625167483713317 -0.7113258360536404 a21.9470051888611,21.9470051888611 0 0,0 0.2851234939653594,-0.24628288321821712 l 0.612864509985109 0.7219528517365682" fill="#ff0d01" stroke="none" /><path d="M 86.68645165197937 83.75963576809568 l -0.5446776434628329 -0.6644181616786522 a21.859142147061046,21.859142147061046 0 0,0 0.292235110403932,-0.23540391870335622 l 0.5331917627036553 0.6736703741754073" fill="#ff0b01" stroke="none" /><path d="M 87.25179093698888 83.31218511350988 l -0.5184118623428576 -0.6786177690511457 a21.85397478621429,21.85397478621429 0 0,0 0.3000727766678415,-0.22518020582804982 l 0.5066860967642638 0.6874170021431963" fill="#ff0b01" stroke="none" /><path d="M 88.12776184653039 82.6780497279521 l -0.47643838974085967 -0.6951378491656939 a21.84273968018693,21.84273968018693 0 0,0 0.3111068817369091,-0.20932659429158704 l 0.46443521990696124 0.7032141175143903" fill="#ff0b01" stroke="none" /><path d="M 88.72937992617638 82.28071324371311 l -0.271942839592427 -0.4275393123443645 a21.50669790961231,21.50669790961231 0 0,0 0.3132152234306214,-0.19546946471847412 l 0.26456348737210705 0.43214457390437466" fill="#ff0601" stroke="none" /><line stroke="#e1ed5e" stroke-width="0.3" x1="56.869717070023135" x2="54.33264160355391" y1="26.7553504044142" y2="22.446841604673864" /><path d="M 56.362301976729285 25.89364864446614 a86.0,86.0 0 0,1 42.16139366436587,-11.88097634709845" fill="none" id="id12" stroke="none" /><text fill="#e1ed5e" style="font-size:6.75px; font-family:Arial;" text-anchor="middle"><textPath startOffset="22.145653131862474" xlink:href="#id12">December</textPath></text><path d="M 89.65649057296885 81.72400993836675 l -0.4305291333926046 -0.7607037261999415 a21.874085518558832,21.874085518558832 0 0,0 0.3283777423093383,-0.18214559819982967 l 0.41740720292716377 0.7679822398329172" fill="#ff0c01" stroke="none" /><path d="M 89.97174638481275 81.54914285379989 l -0.3009216946126071 -0.553662024570366 a21.630155142595758,21.630155142595758 0 0,0 0.32775987060218026,-0.1745136699475299 l 0.29137300822386497 0.5587461622404714" fill="#ff0801" stroke="none" /><path d="M 90.61103034731259 81.2157712731953 l -0.35359842584856005 -0.7074337178921742 a21.790881983593838,21.790881983593838 0 0,0 0.33603589475843076,-0.1643719950997752 l 0.3414022818280762 0.7133994630891636" fill="#ff0a01" stroke="none" /><path d="M 91.26138138417902 80.90454125486306 l -0.5250578709282763 -1.1473462058371788 a22.261780125010972,22.261780125010972 0 0,0 0.34885968893887037,-0.1560405015462554 l 0.5052847791337871 1.1561904582932798" fill="#ff1101" stroke="none" /><path d="M 91.92203290615298 80.6158196554323 l -0.2807155721253992 -0.6736151821851286 a21.729766158508323,21.729766158508323 0 0,0 0.3455504032385136,-0.14053234075607093 l 0.26911070769644474 0.6783347795204908" fill="#ff0901" stroke="none" /><path d="M 92.592206182469 80.34994680014964 l -0.34246152089722215 -0.9084198710561537 a21.97082776815711,21.97082776815711 0 0,0 0.35405554589919574,-0.13001410063449914 l 0.32681682334389933 0.9141648206993748" fill="#ff0d01" stroke="none" /><path d="M 93.61358852112211 79.99465700312896 l -0.24976282527662397 -0.7823784928440511 a21.821278013193517,21.821278013193517 0 0,0 0.35782673745503984,-0.11085563794606589 l 0.23629545494996798 0.7865507185967591" fill="#ff0b01" stroke="none" /><path d="M 93.95794788825049 79.88797359093562 l -0.28289208886359624 -0.941655758161378 a21.983231153300224,21.983231153300224 0 0,0 0.36234644567691576,-0.10547376944287 l 0.2666856308050562 0.9463732219067686" fill="#ff0d01" stroke="none" /><path d="M 94.6519064749342 79.69241777938228 l -0.1580864123649516 -0.6002798571149203 a21.6207473081958,21.6207473081958 0 0,0 0.35972260314263177,-0.09144007903456054 l 0.14775851599694173 0.6029051679847438" fill="#ff0801" stroke="none" /><path d="M 95.00130118170881 79.60360301121753 l -0.1758276332029104 -0.7174367447948294 a21.738668287785213,21.738668287785213 0 0,0 0.36320951060465734,-0.08571645553447502 l 0.16348596885834712 0.7203493439755366" fill="#ff0a01" stroke="none" /><path d="M 95.70440661134978 79.44403061299748 l -0.1283984384447727 -0.6144330087161788 a21.627705409563333,21.627705409563333 0 0,0 0.36406999391339734,-0.07282419515752463 l 0.11783195900039861 0.6165466005365695" fill="#ff0801" stroke="none" /><path d="M 96.05791012581881 79.37332000966035 l -0.06198057237604893 -0.32430854516841656 a21.330178169813387,21.330178169813387 0 0,0 0.36024158685717556,-0.06564801740402158 l 0.05640425196783488 0.3253247365037994" fill="#ff0400" stroke="none" /><path d="M 96.41257539226777 79.30868818359171 l -0.18356625726607453 -1.0587613910761469 a22.074556770971256,22.074556770971256 0 0,0 0.3739245930269806,-0.06152914948759455 l 0.16536416118602107 1.06175653905941" fill="#ff0e01" stroke="none" /><path d="M 97.12497278360702 79.19773525538626 l -0.08900680320039113 -0.6440088892686102 a21.65013049495693,21.65013049495693 0 0,0 0.36859056242407345,-0.04772142774593881 l 0.07793841888552362 0.6454419132149437" fill="#ff0801" stroke="none" /><path d="M 98.9189461498227 79.02784411241856 l -0.04146865246426528 -0.8044807793671709 a21.805548864755213,21.805548864755213 0 0,0 0.3739903322402314,-0.016060754047754873 l 0.02765255962321377 0.8050741018407543" fill="#ff0b01" stroke="none" /><path d="M 99.27912038922189 79.0123766808444 l -0.028666967682996453 -0.8346074856850471 a21.835099664829087,21.835099664829087 0 0,0 0.3747180573877507,-0.009651407941851384 l 0.014335596224501816 0.8349766109769435" fill="#ff0b01" stroke="none" /></svg>