<?xml version="1.0" encoding="utf-8" ?>
<svg baseProfile="full" height="200mm" version="1.1" viewBox="0,0,200,200" width="200mm" xmlns="http://www.w3.org/2000/svg" xmlns:ev="http://www.w3.org/2001/xml-events" xmlns:xlink="http://www.w3.org/1999/xlink"><defs /><rect fill="#1a1a1a" height="200" width="200" x="0" y="0" /><rect fill="#1a1a1a" height="200" width="180" x="10" y="0" /><text alignment-baseline="middle" fill="#e1ed5e" style="dominant-baseline: central; font-size:9.0px; font-family:Arial;" text-anchor="middle" x="100.0" y="100.0">2024</text><line stroke="#e1ed5e" stroke-width="0.3" x1="100.0" x2="100.0" y1="15.0" y2="10.0" /><path d="M 100.0 14.0 a86.0,86.0 0 0,1 42.35913384403234,11.155469271406648" fill="none" id="id1" stroke="none" /><text fill="#e1ed5e" style="font-size:6.75px; font-family:Arial;" text-anchor="middle"><textPath startOffset="22.145653131862478" xlink:href="#id1">January</textPath></text><line stroke="#e1ed5e" stroke-width="0.3" x1="143.13028292997686" x2="145.6673583964461" y1="26.7553504044142" y2="22.446841604673864" /><path d="M 143.63769802327073 25.89364864446614 a86.0,86.0 0 0,1 29.32050498858742,28.57503671076993" fill="none" id="id2" stroke="none" /><text fill="#e1ed5e" style="font-size:6.75px; font-family:Arial;" text-anchor="middle"><textPath startOffset="20.669276256404974" xlink:href="#id2">February</textPath></text><line stroke="#e1ed5e" stroke-width="0.3" x1="172.87174338648825" x2="177.1583165268699" y1="56.24261187166439" y2="53.66864786411523" /><path d="M 173.72905801456457 55.72781907015455 a86.0,86.0 0 0,1 12.242430191666344,42.057860355516425" fill="none" id="id3" stroke="none" /><text fill="#e1ed5e" style="font-size:6.75px; font-family:Arial;" text-anchor="middle"><textPath startOffset="22.145653131862474" xlink:href="#id3">March</textPath></text><path d="M 118.00360718960297 89.18935116829356 l 21.3430310306398 -12.815876898808785 a45.895213882597474,45.895213882597474 0 0,0 0.3997829142068731,0.6789187892164883 l -21.55988765497644 12.44760694129874" fill="#d4ff1c" stroke="none" /><path d="M 118.36410011445183 89.81374322990088 l 22.862047855149278 -12.681192560019747 a47.14356281908485,47.14356281908485 0 0,0 0.3864754083336547,0.7110712217015015 l -23.07636861309827 12.286866504843642" fill="#c5ff1e" stroke="none" /><path d="M 118.70294669586156 90.45014215332178 l 13.345732274113699 -6.814425991269743 a35.984824707777285,35.984824707777285 0 0,0 0.2761922461647607,0.5525695061804644 l -13.460744433490197 6.584324628925528" fill="#ffac0f" stroke="none" /><path d="M 119.0197475246899 91.09779779509293 l 16.204638088608043 -7.5845888456124335 a38.89179374852491,38.89179374852491 0 0,0 0.2778272977110443,0.6071027853428825 l -16.33244985117414 7.305297078054867" fill="#ffd213" stroke="none" /><path d="M 119.16976305983485 91.42560881287824 l 12.040285364005562 -5.385466497072595 a34.18983400342013,34.18983400342013 0 0,0 0.23504064807418812,0.5378189999712901 l -12.130959894096721 5.1779854273254555" fill="#ff930d" stroke="none" /><path d="M 119.4528033332814 92.08871423366111 l 57.124092546200316 -23.23187113615603 a82.66750996849004,82.66750996849004 0 0,0 0.5233299196410564,1.3191332619013554 l -57.5144811408075 22.24783685704111" fill="#4bdfff" stroke="none" /><path d="M 119.71291397450082 92.76114493625339 l 8.720193256184896 -3.202175750933419 a30.28954788808791,30.28954788808791 0 0,0 0.1750444943401994,0.48963060452533674 l -8.773877920569038 3.0520101900271652" fill="#ff5d08" stroke="none" /><path d="M 119.83427380445688 93.10060997987247 l 3.7321502962363633 -1.2982356077832842 a24.951501173859576,24.951501173859576 0 0,0 0.1372505780588109,0.40575694620138264 l -3.753886295867539 1.23397698710774" fill="#ff0f01" stroke="none" /><path d="M 119.94978838288452 93.4421083053983 l 18.21537853510961 -5.98775672788111 a40.174286057363844,40.174286057363844 0 0,0 0.20973901287356472,0.6570044705447191 l -18.315482263760433 5.674183223645004" fill="#ffe315" stroke="none" /><path d="M 120.16314734710363 94.1308016681162 l 28.388000973014098 -8.263333352085215 a50.566218515926806,50.566218515926806 0 0,0 0.23544957602731015,0.8355274830102543 l -28.52566904111599 7.774797945171947" fill="#9dff22" stroke="none" /><path d="M 120.35273937422433 94.82641323984039 l 14.607235936246727 -3.7131022538421274 a36.071777268944274,36.071777268944274 0 0,0 0.14740040144769193,0.6014439384169028 l -14.668823864210712 3.4618024908171297" fill="#ffad10" stroke="none" /><path d="M 120.51834098615036 95.52812308129327 l 28.35587697087714 -6.180031408062884 a50.02151868858975,50.02151868858975 0 0,0 0.17565244267325358,0.8405605250915721 l -28.45778712437476 5.692354431685908" fill="#a4ff21" stroke="none" /><path d="M 120.77682067341334 96.94652285012252 l 28.78251494589071 -4.230038516708529 a50.09168940545151,50.09168940545151 0 0,0 0.11772854986534274,0.8518251404141255 l -28.850888012311266 3.7353250680943177" fill="#a3ff22" stroke="none" /><path d="M 120.82617615685814 97.30363454192243 l 7.577594650136154 -0.981071336190163 a28.64084037580069,28.64084037580069 0 0,0 0.058942731848195075,0.4881303747012514 l -7.593319468244013 0.8508472845654986" fill="#ff4506" stroke="none" /><path d="M 120.86939407059847 97.66154086499901 l 29.60038215794806 -3.3167845612869193 a50.78562881193817,50.78562881193817 0 0,0 0.08964294077965312,0.8672141345227947 l -29.65295749120938 2.808165904481193" fill="#9bff22" stroke="none" /><path d="M 120.93736805541906 98.37931529534042 l 29.289451383733056 -2.267188776537766 a50.377067711201555,50.377067711201555 0 0,0 0.05933948110925605,0.8627830321026669 l -29.324054826007377 1.764062320280765" fill="#a0ff22" stroke="none" /><path d="M 120.96210409425399 98.7389718711861 l 26.332295585124598 -1.5840855135428247 a47.37989988033671,47.37989988033671 0 0,0 0.041871220642179616,0.8122904944717942 l -26.355608395223353 1.1318232256943" fill="#c2ff1e" stroke="none" /><line stroke="#e1ed5e" stroke-width="0.3" x1="184.99686870605535" x2="189.99668451229388" y1="99.2704041080226" y2="99.22748670261217" /><path d="M 185.99683186730306 99.26182062694052 a86.0,86.0 0 0,1 -10.086455211305974,41.156179273409016" fill="none" id="id4" stroke="none" /><text fill="#e1ed5e" style="font-size:6.75px; font-family:Arial;" text-anchor="middle"><textPath startOffset="21.40746469413373" xlink:href="#id4">April</textPath></text><path d="M 120.99922638620191 99.81974689727618 l 5.2817097651357745 -0.04533712601327213 a26.28190434390152,26.28190434390152 0 0,0 0.0,0.4511804574741974 l -5.2817097651357745 -0.045337126013271487" fill="#ff2303" stroke="none" /><path d="M 120.98066250479742 100.90099992219065 l 62.94198751439227 2.702999766571932 a84.0,84.0 0 0,0 -0.07423364217370931,1.4401128264930774 l -62.886312282761985 -3.7830843864417396" fill="#4dd2ff" stroke="none" /><path d="M 120.93736805541906 101.62068470465957 l 28.949469443404592 2.240872024160266 a50.036068750491694,50.036068750491694 0 0,0 -0.07363969616783227,0.8558048936781528 l -28.90673612453902 -2.7374979652140765" fill="#a3ff21" stroke="none" /><path d="M 120.86939407059847 102.33845913500097 l 28.86879127112975 3.234808276466362 a50.049459444911406,50.049459444911406 0 0,0 -0.10300158195431634,0.8530008572332962 l -28.80900760291577 -3.729902810623067" fill="#a3ff21" stroke="none" /><path d="M 120.82617615685814 102.69636545807757 l 25.134885564933008 3.254214154320409 a46.34467167126962,46.34467167126962 0 0,0 -0.10892207978216983,0.7881059098304136 l -25.075318968595628 -3.6852083723509077" fill="#cfff1d" stroke="none" /><path d="M 120.592083275326 104.11899336999214 l 28.54717173749922 5.710233857672886 a50.11267395687981,50.11267395687981 0 0,0 -0.17597253782345573,0.8420922962610004 l -28.4449414888514 -6.1994426052192955" fill="#a3ff22" stroke="none" /><path d="M 120.43855184770803 104.8234425847677 l 31.85704643637626 7.518176216744585 a53.732161268016775,53.732161268016775 0 0,0 -0.21956617447780016,0.8959049190102069 l -31.723292735382167 -8.063936960362891" fill="#7aff26" stroke="none" /><path d="M 120.35273937422433 105.17358676015961 l 28.871791735596773 7.339096556925366 a50.78997643999652,50.78997643999652 0 0,0 -0.2220501955653142,0.8431607604489902 l -28.74155205922673 -7.833637821747159" fill="#9bff22" stroke="none" /><path d="M 120.16314734710363 105.8691983318838 l 41.777084647872876 12.160700475240315 a64.51100363958577,64.51100363958577 0 0,0 -0.3186342237027179,1.0606297005414733 l -41.56217410416653 -12.87606777937251" fill="#34ff5c" stroke="none" /><path d="M 119.94978838288452 106.5578916946017 l 10.834100289154472 3.5613839576204565 a32.40443706497841,32.40443706497841 0 0,0 -0.17824689936884816,0.5269552855855989 l -10.77136796821326 -3.746840917680216" fill="#ff7b0b" stroke="none" /><path d="M 119.71291397450082 107.23885506374661 l 22.603519932378404 8.300325610543739 a45.07933800116764,45.07933800116764 0 0,0 -0.2729861232241043,0.7241281245544137 l -22.457703125339858 -8.687122015292312" fill="#deff1b" stroke="none" /><path d="M 119.58574465831526 107.57618678355244 l 23.66715224878584 9.154962918167573 a46.376119514225024,46.376119514225024 0 0,0 -0.29358584657859277,0.7400281178475706 l -23.506507727241125 -9.559892053228708" fill="#ceff1d" stroke="none" /><path d="M 119.4528033332814 107.91128576633889 l 2.720717794466326 1.106492241391284 a23.937112595285516,23.937112595285516 0 0,0 -0.15806947016125114,0.3793091852168925 l -2.7013224797685895 -1.1530339360494544" fill="#ff0000" stroke="none" /><path d="M 119.31412917781788 108.2440532568976 l 13.367087833203144 5.705614939819156 a35.53385974137824,35.53385974137824 0 0,0 -0.24428025656268593,0.5589610323734441 l -13.267173694623493 -5.934238041968444" fill="#ffa60f" stroke="none" /><path d="M 119.16976305983485 108.57439118712176 l 23.047884815860247 10.30902572087462 a46.24838620187072,46.24838620187072 0 0,0 -0.3303798288411275,0.7219395500839706 l -22.867520522164064 -10.70315425317328" fill="#d0ff1d" stroke="none" /><path d="M 118.8641267826498 109.22738970284198 l 22.673621602352174 11.090804515378215 a46.2408213290492,46.2408213290492 0 0,0 -0.35490950452271086,0.7100567534972556 l -22.47989218461773 -11.478393125039217" fill="#d0ff1d" stroke="none" /><path d="M 118.70294669586154 109.54985784667822 l 23.585032397614548 12.042685592231171 a47.4816923452762,47.4816923452762 0 0,0 -0.3768959516843553,0.7227476829487479 l -23.374828376955243 -12.445779518284422" fill="#c1ff1e" stroke="none" /><line stroke="#e1ed5e" stroke-width="0.3" x1="174.33088141563837" x2="178.70328620479359" y1="141.23008692659167" y2="143.65538615756765" /><path d="M 175.20536237346943 141.71514677278685 a86.0,86.0 0 0,1 -30.301960400862466,31.631185727798858" fill="none" id="id5" stroke="none" /><text fill="#e1ed5e" style="font-size:6.75px; font-family:Arial;" text-anchor="middle"><textPath startOffset="22.145653131862474" xlink:href="#id5">May</textPath></text><path d="M 118.36410011445183 110.18625677009912 l 23.52639499751531 13.049694720999387 a47.903267346000796,47.903267346000796 0 0,0 -0.40504866605288814,0.7156821819018817 l -23.298912966441044 -13.451633673000392" fill="#bcff1f" stroke="none" /><path d="M 118.18653347947321 110.5 l 21.876085484807422 12.630163843468823 a46.26032768693766,46.26032768693766 0 0,0 -0.40296333866441897,0.6843198452526071 l -21.656048436013236 -13.00383485701498" fill="#d0ff1d" stroke="none" /><path d="M 118.00360718960297 110.81064883170644 l 23.07050344641824 13.853174450169776 a47.910194566707105,47.910194566707105 0 0,0 -0.42943968793470905,0.7014574565958736 l -22.829295794028127 -14.247169022890207" fill="#bcff1f" stroke="none" /><path d="M 117.423217284605 111.72311816256416 l 24.36522950834427 16.39401379885796 a50.36712613504147,50.36712613504147 0 0,0 -0.48882558254470276,0.7132111336622435 l -24.080214188984247 -16.809859667590246" fill="#a0ff22" stroke="none" /><path d="M 117.21940702142032 112.02048342749411 l 17.265347114932148 12.052553180652831 a42.056026433578594,42.056026433578594 0 0,0 -0.4183270922761636,0.588429443823451 l -17.055904924126025 -12.347159851185786" fill="#fffb17" stroke="none" /><path d="M 116.79662413953412 112.60449989151573 l 18.355984618796786 13.774673066102554 a43.949592358112056,43.949592358112056 0 0,0 -0.45801339922177126,0.5995542420089361 l -18.116819242220707 -14.087748221352369" fill="#ecff1a" stroke="none" /><path d="M 116.57777611688842 112.89097897827486 l 24.408353588362353 18.980083382917396 a51.91943224118157,51.91943224118157 0 0,0 -0.553148566399197,0.6988851437073822 l -24.07893859132159 -19.39628847053946" fill="#8eff24" stroke="none" /><path d="M 116.1254893667686 113.45245675266167 l 28.931215528897514 24.135448968543084 a58.67671865877744,58.67671865877744 0 0,0 -0.651885593269348,0.7679195897282827 l -28.51263537212105 -24.628535340720923" fill="#46ff2d" stroke="none" /><path d="M 115.89218393027572 113.72728997021213 l 20.3580242000828 17.584776431056813 a47.901180484532794,47.901180484532794 0 0,0 -0.5428548085067488,0.6176691215979415 l -20.053158327617464 -17.931657830466047" fill="#bcff1f" stroke="none" /><path d="M 115.41159269507618 114.26474011684316 l 16.620789253324038 15.38395439890095 a43.647664081553216,43.647664081553216 0 0,0 -0.5136793118473935,0.5455096281751175 l -16.354254107740385 -15.667005487020566" fill="#f0ff19" stroke="none" /><path d="M 114.91283532996324 114.78537596483092 l 18.236959722674683 18.08108920866682 a46.680975193676474,46.680975193676474 0 0,0 -0.569081277418755,0.5642173641035741 l -17.923886525125962 -18.391486582999057" fill="#cbff1d" stroke="none" /><path d="M 114.39649973595853 115.28858382429668 l 29.192128966634613 31.001029340577915 a63.58220536538708,63.58220536538708 0 0,0 -0.8010456482801314,0.7414358931309475 l -28.655653547040515 -31.49758297984124" fill="#33ff51" stroke="none" /><path d="M 113.86319453409587 115.77377054828091 l 20.611249169450954 23.451818000011087 a52.221969185668556,52.221969185668556 0 0,0 -0.6784392762401058,0.5860196882309289 l -20.20563041344799 -23.802181820706735" fill="#8bff24" stroke="none" /><path d="M 113.59037401385872 116.0094264158162 l 12.82188227732251 15.104145082521518 a40.81251785632952,40.81251785632952 0 0,0 -0.5379977347670462,0.4488168448951686 l -12.56071020839357 -15.322024111328558" fill="#ffeb16" stroke="none" /><path d="M 113.03279911837588 116.46651593811092 l 13.11701828502837 16.57292410395324 a42.135703963794604,42.135703963794604 0 0,0 -0.5710191582804685,0.4440279512573963 l -12.830589182112671 -16.79565310683143" fill="#fffc17" stroke="none" /><path d="M 112.16784306229584 117.11559508785304 l 8.397310246020512 11.8118684850007 a35.49258625901098,35.49258625901098 0 0,0 -0.499608701195355,0.34876567500146693 l -8.193306453651397 -11.954278975807288" fill="#ffa50f" stroke="none" /><path d="M 111.8722381534696 117.32195027204791 l 10.176297766149833 14.847522563155858 a39.00016562392603,39.00016562392603 0 0,0 -0.5554806810927584,0.37375219255435105 l -9.919920796960072 -15.02002442976733" fill="#ffd413" stroke="none" /><path d="M 111.5731344415666 117.5232005979908 l 18.084558990299175 27.382327278167615 a53.815287916492416,53.815287916492416 0 0,0 -0.7752332285221282,0.502496812625896 l -17.611840129520036 -27.688737932497407" fill="#79ff26" stroke="none" /><path d="M 110.96478420261333 117.91015095944535 l 11.923073287137953 19.47544416079574 a43.835336692738636,43.835336692738636 0 0,0 -0.6451460322381611,0.3873916558079148 l -11.586994498342357 -19.677249817139575" fill="#edff1a" stroke="none" /><line stroke="#e1ed5e" stroke-width="0.3" x1="143.1302829299769" x2="145.66735839644613" y1="173.24464959558577" y2="177.55315839532614" /><path d="M 143.63769802327073 174.10635135553383 a86.0,86.0 0 0,1 -40.68552437913181,11.842963189579606" fill="none" id="id6" stroke="none" /><text fill="#e1ed5e" style="font-size:6.75px; font-family:Arial;" text-anchor="middle"><textPath startOffset="21.407464694133747" xlink:href="#id6">June</textPath></text><path d="M 110.34350942703117 118.27599006163325 l 16.042687714113374 28.345892010191395 a53.57080629867791,53.57080629867791 0 0,0 -0.8042146681343959,0.4460843197783613 l -15.553728857822884 -28.6171092454029" fill="#7cff26" stroke="none" /><path d="M 109.71004243097381 118.62028667847754 l 10.500105024935392 20.135335876056683 a43.70867579530539,43.70867579530539 0 0,0 -0.6682698082294761,0.3412233256928709 l -10.152907994992333 -20.31261715342239" fill="#efff19" stroke="none" /><path d="M 108.73861861582097 119.09545874513695 l 14.120675027372778 30.85622331091406 a54.93375871078336,54.93375871078336 0 0,0 -0.8608554153562742,0.3850496776500309 l -13.588906209160877 -31.09407673947394" fill="#6dff28" stroke="none" /><path d="M 108.07796709384702 119.3841803445677 l 18.124192575943535 43.49146430162687 a68.11681041443246,68.11681041443246 0 0,0 -1.0832049978969638,0.44053004264058926 l -17.37493311685613 -43.79618160084675" fill="#39ff87" stroke="none" /><path d="M 107.407793817531 119.65005319985036 l 11.791842454403456 31.279263065465642 a54.42812956759733,54.42812956759733 0 0,0 -0.8770985476595098,0.322082735781362 l -11.253154755089819 -31.47707665025573" fill="#72ff27" stroke="none" /><path d="M 107.06938296918513 119.77432235084164 l 10.280278286420373 28.755768017964208 a51.53814526046432,51.53814526046432 0 0,0 -0.8356400466996817,0.29067898605509834 l -9.785132467675668 -28.928005436587895" fill="#92ff23" stroke="none" /><path d="M 106.38641147887787 120.00534299687104 l 8.71225511177536 27.2910150502756 a49.647912517442265,49.647912517442265 0 0,0 -0.8141297016072085,0.2522194626494264 l -8.242484777296527 -27.43655110073167" fill="#a8ff21" stroke="none" /><path d="M 105.69591212413111 120.21278271476187 l 10.141925253163851 35.99011483745962 a58.39180410002029,58.39180410002029 0 0,0 -0.9671312142364182,0.2635959130816182 l -9.522612637992738 -36.158911244685385" fill="#48ff2c" stroke="none" /><path d="M 104.29559338865022 120.5559693870025 l 5.993250779125019 28.679874559317746 a50.299390089892384,50.299390089892384 0 0,0 -0.8467148177345822,0.1693666771783989 l -5.500039475859478 -28.778530633159008" fill="#a0ff22" stroke="none" /><path d="M 103.94208987418118 120.62667999033965 l 6.066570066114326 31.742858074413054 a53.3173685670632,53.3173685670632 0 0,0 -0.9004675585330456,0.16409518531732423 l -5.520767774030223 -31.84232143366174" fill="#7fff26" stroke="none" /><path d="M 103.2317021107853 120.74984581791261 l 5.874833028776528 37.72064236560199 a59.17539159707011,59.17539159707011 0 0,0 -1.0050655499289922,0.1477100245065118 l -5.226442373239849 -37.81593346340738" fill="#40ff2d" stroke="none" /><path d="M 102.51750503828377 120.84855314841334 l 3.1433501757454922 26.0314486789589 a47.22054481990468,47.22054481990468 0 0,0 -0.8055917102772475,0.09026823144007477 l -2.6960225638674453 -26.081572670905945" fill="#c4ff1e" stroke="none" /><path d="M 101.80034050326958 120.92268563240118 l 2.1568314443068783 25.065650741821596 a46.158274364314664,46.158274364314664 0 0,0 -0.7900340454383848,0.06115363164143831 l -1.7262284040932576 -25.098982140458087" fill="#d1ff1c" stroke="none" /><path d="M 101.08105385017728 120.97215588758144 l 0.9862581759108043 19.133145131679754 a40.158547643792616,40.158547643792616 0 0,0 -0.6887654453799216,0.029578551799922432 l -0.6576669699300531 -19.14725625190551" fill="#ffe315" stroke="none" /><path d="M 100.72087961077811 120.9876233191556 l 1.115427059983637 32.47444181374619 a53.493592424361616,53.493592424361616 0 0,0 -0.9180180234412403,0.02364488784973384 l -0.5577957224716528 -32.48880441894597" fill="#7dff26" stroke="none" /><line stroke="#e1ed5e" stroke-width="0.3" x1="101.45913802915013" x2="101.54496967792366" y1="184.9874750549273" y2="189.98673829345242" /><path d="M 101.47630435890484 185.9873277026323 a86.0,86.0 0 0,1 -42.54439059252881,-10.42667462771756" fill="none" id="id7" stroke="none" /><text fill="#e1ed5e" style="font-size:6.75px; font-family:Arial;" text-anchor="middle"><textPath startOffset="22.145653131862474" xlink:href="#id7">July</textPath></text><path d="M 99.63950707515114 120.99690560180557 l -0.3584290786854961 20.876696909535802 a41.879773592093116,41.879773592093116 0 0,0 -0.718710133920096,-0.018511423609420364 l 0.7167525266763359 -20.867467768576336" fill="#fff817" stroke="none" /><path d="M 98.19965949673042 120.92268563240118 l -2.5044962732587237 29.10604305004967 a50.21359689620762,50.21359689620762 0 0,0 -0.8581753261932266,-0.08127009563202159 l 3.003771162836965 -29.058761198912464" fill="#a1ff22" stroke="none" /><path d="M 96.76829788921471 120.74984581791261 l -4.515001855992253 28.989550759263306 a50.33904045778453,50.33904045778453 0 0,0 -0.8527013888359984,-0.14031168904202718 l 5.0119807478813145 -28.90777307172561" fill="#a0ff22" stroke="none" /><path d="M 95.70440661134978 120.55596938700252 l -2.5183303315882353 12.051122282491946 a33.31143923051124,33.31143923051124 0 0,0 -0.5587400406425606,-0.12177479129493264 l 2.724832788849932 -12.006116033063295" fill="#ff870c" stroke="none" /><path d="M 93.61358852112213 120.00534299687104 l -8.857430275718361 27.745774183618693 a50.12528207824902,50.12528207824902 0 0,0 -0.8174652086092071,-0.2687170509920494 l 9.332418221975312 -27.589636211224622" fill="#a2ff22" stroke="none" /><path d="M 92.25597844496254 119.51999308798841 l -9.286684372440764 23.408511129782976 a46.18334568611782,46.18334568611782 0 0,0 -0.7344153456751782,-0.2986803275227911 l 9.687154179306383 -23.245643545680892" fill="#d1ff1d" stroke="none" /><path d="M 91.92203290615298 119.3841803445677 l -6.39179474645616 15.337980540319464 a37.616518502262835,37.616518502262835 0 0,0 -0.5939199109310886,-0.25350909331553634 l 6.65414973255768 -15.225996797344523" fill="#ffc112" stroke="none" /><path d="M 91.26138138417905 119.09545874513695 l -10.90309214124385 23.8252240234642 a47.20150220900911,47.20150220900911 0 0,0 -0.733896342545775,-0.34350054491013743 l 11.310477197661115 -23.634547246983537" fill="#c4ff1e" stroke="none" /><path d="M 89.97174638481275 118.45085714620012 l -9.856749914809512 18.135309654369426 a41.640856938193295,41.640856938193295 0 0,0 -0.6251201028536054,-0.34674358341177225 l 10.16661420581922 -17.963433155524505" fill="#fff517" stroke="none" /><line stroke="#e1ed5e" stroke-width="0.3" x1="58.13341422392154" x2="55.67067388415222" y1="173.97424548756322" y2="178.32567169271397" /><path d="M 57.64086615596768 174.84453072859336 a86.0,86.0 0 0,1 -31.369924170532247,-30.572349798747897" fill="none" id="id8" stroke="none" /><text fill="#e1ed5e" style="font-size:6.75px; font-family:Arial;" text-anchor="middle"><textPath startOffset="22.145653131862474" xlink:href="#id8">August</textPath></text><path d="M 89.65649057296885 118.27599006163327 l -8.590603557308931 15.178773350030475 a38.44114760818348,38.44114760818348 0 0,0 -0.5715055155888125,-0.3299588632685592 l 8.849901540758143 -15.029067589485745" fill="#ffcc13" stroke="none" /><path d="M 89.34428304082925 118.09573695890944 l -7.697651116553654 13.072294463182763 a36.17032350493352,36.17032350493352 0 0,0 -0.532336294290281,-0.31965264945724947 l 7.920920167401363 -12.938227813189595" fill="#ffae10" stroke="none" /><path d="M 88.4268655584334 117.5232005979908 l -13.414257199451045 20.310895113666703 a45.34080435259678,45.34080435259678 0 0,0 -0.6457906134537685,-0.4345167454510667 l 13.760944101001819 -20.077628694158516" fill="#dbff1b" stroke="none" /><path d="M 88.1277618465304 117.32195027204791 l -9.094473977405611 13.269109324682425 a37.08660061032417,37.08660061032417 0 0,0 -0.5220467234328501,-0.3644291571478599 l 9.320915792012228 -13.111035351729436" fill="#ffba11" stroke="none" /><path d="M 87.2517909369889 116.68781488649013 l -15.972664049434572 20.90872997011405 a47.31161313563357,47.31161313563357 0 0,0 -0.6411626000793627,-0.4985719158590275 l 16.32923659414916 -20.631457002634228" fill="#c3ff1e" stroke="none" /><path d="M 86.40962598614128 116.0094264158162 l -13.181462130615143 15.527729245549565 a41.368144722186564,41.368144722186564 0 0,0 -0.5374323221120062,-0.4642212396586568 l 13.446073932490012 -15.299163873426187" fill="#fff216" stroke="none" /><path d="M 86.13680546590413 115.77377054828092 l -13.935348744584655 15.855868794651437 a42.1092993693869,42.1092993693869 0 0,0 -0.5388686398342302,-0.48185966056869256 l 14.205482411242256 -15.614313604199362" fill="#fffb17" stroke="none" /><path d="M 85.86807049272751 115.53346607816431 l -17.889057093370518 19.6632074471653 a47.5830790315969,47.5830790315969 0 0,0 -0.5994793381416744,-0.5548691256770795 l 18.223966202826162 -19.35322057535584" fill="#c0ff1e" stroke="none" /><path d="M 85.34317274990678 115.03919595460226 l -22.233545957284132 22.813576820667283 a52.85576640401472,52.85576640401472 0 0,0 -0.6443572984357641,-0.6388500041915897 l 22.621895175849858 -22.428546806247034" fill="#84ff25" stroke="none" /><path d="M 84.83555147118756 114.52719865689866 l -18.62885964367284 17.84602613678501 a46.79757857820141,46.79757857820141 0 0,0 -0.5507499305177036,-0.5848773405603688 l 18.932465407926795 -17.52360733628015" fill="#c9ff1d" stroke="none" /><path d="M 83.20337586046588 112.60449989151573 l -19.853586411142896 14.898501370668267 a45.82197084190782,45.82197084190782 0 0,0 -0.4667250962748901,-0.6332022302470005 l 20.106413527001614 -14.555492831152387" fill="#d5ff1c" stroke="none" /><path d="M 82.78059297857968 112.02048342749411 l -19.3617174038568 13.515982454643662 a44.612663605384434,44.612663605384434 0 0,0 -0.43297708146584635,-0.6317265015355159 l 19.590884222137973 -13.181621218038094" fill="#e4ff1b" stroke="none" /><path d="M 82.576782715395 111.72311816256416 l -13.885154680625106 9.34255174388932 a37.735614526874556,37.735614526874556 0 0,0 -0.35700687565704664,-0.5405539120440334 l 14.04348599520288 -9.102817953506225" fill="#ffc312" stroke="none" /><path d="M 82.37810715431573 111.42229804090323 l -20.860525188925532 13.521540397746302 a45.85947637995784,45.85947637995784 0 0,0 -0.42252368337248664,-0.6642774095799817 l 21.08956656392391 -13.16144931348765" fill="#d5ff1c" stroke="none" /><path d="M 81.99639281039703 110.81064883170644 l -18.608644960773706 11.173956629147312 a42.70573597061831,42.70573597061831 0 0,0 -0.3720000874896587,-0.6317374755445867 l 18.797718758393135 -10.852867985309166" fill="#fbff18" stroke="none" /><line stroke="#e1ed5e" stroke-width="0.3" x1="26.387840678322732" x2="22.057713659400548" y1="142.50000000000003" y2="145.00000000000006" /><path d="M 25.521815274538298 143.00000000000003 a86.0,86.0 0 0,1 -11.493303480769221,-40.785679425670985" fill="none" id="id9" stroke="none" /><text fill="#e1ed5e" style="font-size:6.75px; font-family:Arial;" text-anchor="middle"><textPath startOffset="21.40746469413373" xlink:href="#id9">September</textPath></text><path d="M 81.63589988554817 110.18625677009913 l -26.214477717885792 14.540728893014848 a50.97718530418904,50.97718530418904 0 0,0 -0.4179028339827248,-0.7688941451510569 l 26.460225901483845 -14.088579914389204" fill="#99ff23" stroke="none" /><path d="M 81.4637452351635 109.86951160357371 l -19.973804407483776 10.634925817977763 a43.62862147065765,43.62862147065765 0 0,0 -0.34631138861451966,-0.6640977505365365 l 20.153423865073247 -10.290481824336725" fill="#f0ff19" stroke="none" /><path d="M 81.1358732173502 109.22738970284198 l -21.743945003731984 10.636053104304631 a45.205882961852666,45.205882961852666 0 0,0 -0.3349987167190897,-0.7000184748715516 l 21.923322978410983 -10.261222127367976" fill="#dcff1b" stroke="none" /><path d="M 80.9802524753101 108.90220220490708 l -21.74502588885441 10.177770086707676 a45.00902236337061,45.00902236337061 0 0,0 -0.32152631315199004,-0.7025930204980166 l 21.916536666861457 -9.802988083994972" fill="#dfff1b" stroke="none" /><path d="M 80.68587082218212 108.24405325689762 l -38.23282323780985 16.319318776020943 a62.570048569216304,62.570048569216304 0 0,0 -0.41318326869748345,-0.9914894307864408 l 38.50733235104382 -15.66059683579322" fill="#32ff44" stroke="none" /><path d="M 80.41425534168474 107.57618678355246 l -20.750969049056163 8.026920609761936 a43.24936338303431,43.24936338303431 0 0,0 -0.2619043793753069,-0.6947324824051113 l 20.885704112245907 -7.669519847162679" fill="#f4ff19" stroke="none" /><path d="M 80.16572619554312 106.89939002012753 l -25.981879503188722 9.037846402431715 a48.508920918715916,48.508920918715916 0 0,0 -0.2668327404716591,-0.7888435841336571 l 26.133197665232746 -8.590501143823897" fill="#b5ff20" stroke="none" /><path d="M 80.05021161711548 106.5578916946017 l -29.46552792411928 9.68590428840914 a52.016674188753306,52.016674188753306 0 0,0 -0.2715648980479,-0.8506731752763615 l 29.627457537944434 -9.178662079441388" fill="#8dff24" stroke="none" /><path d="M 79.83685265289637 105.86919833188381 l -21.366118599445834 6.219365731149736 a43.25289945385511,43.25289945385511 0 0,0 -0.20139684432117816,-0.7146863513670556 l 21.46973393584159 -5.851671455879685" fill="#f4ff19" stroke="none" /><path d="M 79.64726062577567 105.17358676015961 l -25.813514074798462 6.561694334852192 a47.63443901105953,47.63443901105953 0 0,0 -0.1946490016451323,-0.7942343508468195 l 25.922350602959888 -6.117604159397273" fill="#bfff1e" stroke="none" /><path d="M 79.56144815229197 104.8234425847677 l -31.40961909924118 7.412584583462175 a53.27244307712692,53.27244307712692 0 0,0 -0.20240773027820075,-0.8918458063383541 l 31.532237691077047 -6.872304443184795" fill="#7fff26" stroke="none" /><path d="M 79.407916724674 104.11899336999214 l -26.433175900039746 5.287375484274601 a47.95680113949261,47.95680113949261 0 0,0 -0.1545435496855594,-0.8086371558429406 l 26.52004574200746 -4.832835763398346" fill="#bcff1f" stroke="none" /><path d="M 79.2786578344484 103.40968896794605 l -46.439031600753964 7.641524977780004 a68.06353747862416,68.06353747862416 0 0,0 -0.1798125475764368,-1.1545255442589335 l 46.56336564046867 -6.84321125158962" fill="#39ff86" stroke="none" /><path d="M 79.06263194458094 101.62068470465958 l -29.55828708206504 2.2879983598244436 a50.646707603380385,50.646707603380385 0 0,0 -0.059657091720893334,-0.8674010206899035 l 29.593208134951 -1.7802539149801968" fill="#9cff22" stroke="none" /><path d="M 79.03789590574601 101.26102812881392 l -26.263727022059317 1.5799605990595889 a47.311207357014794,47.311207357014794 0 0,0 -0.04181051473508095,-0.8111128160917932 l 26.28697912625097 -1.128875989591065" fill="#c3ff1e" stroke="none" /><path d="M 79.01933749520258 100.90099992219065 l -28.95981405649957 1.243659021996823 a49.98650579062651,49.98650579062651 0 0,0 -0.029457078813946016,-0.8576107091758132 l 28.976895822310365 -0.7463420482568901" fill="#a4ff21" stroke="none" /><line stroke="#e1ed5e" stroke-width="0.3" x1="15.003131293944662" x2="10.003315487706104" y1="100.72959589197737" y2="100.7725132973878" /><path d="M 14.003168132696942 100.73817937305945 a86.0,86.0 0 0,1 10.791469493833604,-42.45332614584628" fill="none" id="id10" stroke="none" /><text fill="#e1ed5e" style="font-size:6.75px; font-family:Arial;" text-anchor="middle"><textPath startOffset="22.145653131862435" xlink:href="#id10">October</textPath></text><path d="M 79.00077361379809 100.18025310272382 l -22.3686497906868 0.1920079556436992 a43.369473854192975,43.369473854192975 0 0,0 0.0,-0.7445221167350253 l 22.3686497906868 0.192007955643691" fill="#f3ff19" stroke="none" /><path d="M 79.00077361379809 99.81974689727619 l -35.97668803869479 -0.30881659759440144 a56.9780134238192,56.9780134238192 0 0,0 0.016791063497401445,-0.977995269551065 l 35.96608554359872 0.9263587831145187" fill="#57ff2a" stroke="none" /><path d="M 79.01933749520258 99.09900007780938 l -33.3035255474974 -1.4301966832604698 a54.334220801536986,54.334220801536986 0 0,0 0.048016989342489484,-0.9315167654024339 l 33.27406696869834 2.0016852420396156" fill="#73ff27" stroke="none" /><path d="M 79.0935383218832 98.0201363427161 l -27.012111209200235 -2.5580750158973866 a48.132967028416914,48.132967028416914 0 0,0 0.08496066335725612,-0.8219173478807607 l 26.964218153361315 3.0213968860610603" fill="#b9ff1f" stroke="none" /><path d="M 79.13060592940154 97.66154086499901 l -61.91328752521356 -6.93751300595987 a83.30075648728214,83.30075648728214 0 0,0 0.1714326146843683,-1.4197079744694936 l 61.78507282426953 7.9993146573528" fill="#4cd9ff" stroke="none" /><path d="M 79.22317932658666 96.9465228501225 l -27.422777700145872 -4.0302039667077185 a48.71734620783318,48.71734620783318 0 0,0 0.1287031273616198,-0.8263664030555827 l 27.349553080645986 4.5003585516947515" fill="#b3ff20" stroke="none" /><path d="M 79.2786578344484 96.59031103205396 l -28.378423103689407 -4.669658722455584 a49.76005233716062,49.76005233716062 0 0,0 0.145927709751429,-0.8416722510664476 l 28.294080576445744 5.156124006442624" fill="#a7ff21" stroke="none" /><path d="M 79.407916724674 95.88100663000787 l -55.0377300012586 -11.009087421778224 a77.1279941700378,77.1279941700378 0 0,0 0.2708378499820704,-1.2960571565695818 l 54.84063444045216 11.952261029633215" fill="#44ffe9" stroke="none" /><path d="M 79.56144815229197 95.17655741523228 l -31.201660311689327 -7.363506875842376 a53.05877165015258,53.05877165015258 0 0,0 0.21681449691935747,-0.8846771355594695 l 31.07065828825367 7.898039836009962" fill="#81ff25" stroke="none" /><path d="M 79.64726062577567 94.8264132398404 l -29.734742289368892 -7.55845521315233 a51.68037066634646,51.68037066634646 0 0,0 0.22594293633721416,-0.8579421312156782 l 29.600609872226954 8.067777848740793" fill="#91ff24" stroke="none" /><path d="M 79.83685265289637 94.1308016681162 l -27.334527987208606 -7.9566827193970395 a49.46902211493472,49.46902211493472 0 0,0 0.24433852474204074,-0.813323482067898 l 27.193913142462936 8.42474380505566" fill="#aaff21" stroke="none" /><path d="M 80.05021161711548 93.44210830539832 l -30.277746080805493 -9.952896529214396 a52.87164973852123,52.87164973852123 0 0,0 0.2908307776342314,-0.85978951683303 l 30.102429881598898 10.471187720521586" fill="#83ff25" stroke="none" /><path d="M 80.28708602549916 92.7611449362534 l -21.21148973130077 -7.789152839080641 a43.59642003883881,43.59642003883881 0 0,0 0.26400604402275013,-0.7003073975752352 l 21.074653003463585 8.152128516850022" fill="#f0ff19" stroke="none" /><path d="M 80.41425534168474 92.42381321644754 l -42.95378525222236 -16.615446887962747 a67.05540948445412,67.05540948445412 0 0,0 0.4244969041691413,-1.0700095004079642 l 42.66222967308709 17.350357405584294" fill="#37ff7a" stroke="none" /><path d="M 80.68587082218212 91.75594674310238 l -31.06746106334499 -13.260851742514115 a54.779244009589625,54.779244009589625 0 0,0 0.3765841335099621,-0.8616981945414562 l 30.83524304781805 13.792212006831438" fill="#6fff28" stroke="none" /><path d="M 80.9802524753101 91.09779779509293 l -47.19074017671633 -22.08764920286239 a73.10403252853907,73.10403252853907 0 0,0 0.5417382756292616,-1.132024639376576 l 46.80462264312717 22.894486344304056" fill="#3fffbe" stroke="none" /><path d="M 81.29705330413844 90.45014215332179 l -24.653233069249172 -12.588116466398917 a48.68108698982655,48.68108698982655 0 0,0 0.386416399749196,-0.7410043974312075 l 24.433508600525034 13.009467106934611" fill="#b3ff20" stroke="none" /><path d="M 81.46374523516351 90.13048839642627 l -27.57091784285933 -14.679960813199276 a52.23550480102355,52.23550480102355 0 0,0 0.4282183365088516,-0.7878735079398814 l 27.314854156735127 15.151089154613778" fill="#8bff24" stroke="none" /><line stroke="#e1ed5e" stroke-width="0.3" x1="26.387840678322718" x2="22.05771365940052" y1="57.49999999999999" y2="54.99999999999999" /><path d="M 25.521815274538284 56.99999999999999 a86.0,86.0 0 0,1 29.574782752854787,-30.34633250058573" fill="none" id="id11" stroke="none" /><text fill="#e1ed5e" style="font-size:6.75px; font-family:Arial;" text-anchor="middle"><textPath startOffset="21.40746469413373" xlink:href="#id11">November</textPath></text><path d="M 81.81346652052679 89.5 l -23.274841066877027 -13.437735755307212 a47.87547151061442,47.87547151061442 0 0,0 0.4170324942487687,-0.7082123472460338 l 23.04073486249848 13.835299270846818" fill="#bdff1f" stroke="none" /><path d="M 82.18462484594161 88.88188828441811 l -52.00448588843255 -32.454645429528405 a82.30065711292653,82.30065711292653 0 0,0 0.7582724342340545,-1.1921302123196067 l 51.439695762572605 33.342589316526684" fill="#4be2ff" stroke="none" /><path d="M 82.78059297857968 87.97951657250589 l -24.082186784825673 -16.81123669268709 a50.36953182256709,50.36953182256709 0 0,0 0.5010206996118263,-0.7047483585452253 l 23.790050986683873 17.222162277941834" fill="#a0ff22" stroke="none" /><path d="M 83.2033758604659 87.39550010848427 l -27.478674620522696 -20.620509716482914 a55.3552467589468,55.3552467589468 0 0,0 0.5768755379171394,-0.7551485970870752 l 27.12064710525125 21.089179226810874" fill="#68ff28" stroke="none" /><path d="M 83.64595745247003 86.82634096563983 l -48.05874166380724 -38.71272038453985 a82.71156593281465,82.71156593281465 0 0,0 0.9001900704618365,-1.0980855171053996 l 47.387104774106774 39.53200818334374" fill="#4bdeff" stroke="none" /><path d="M 84.10781606972428 86.27271002978789 l -17.757922502720664 -15.338870512252639 a44.46539495095462,44.46539495095462 0 0,0 0.503917715954222,-0.5733658578566626 l 17.49199372280785 15.641448647920601" fill="#e5ff1a" stroke="none" /><path d="M 84.34580500576568 86.00192230759919 l -21.639226595497266 -19.349929855786417 a50.02888067210189,50.02888067210189 0 0,0 0.5779581654933266,-0.6352772672456822 l 21.303870729162075 19.718544698589756" fill="#a3ff21" stroke="none" /><path d="M 84.83555147118756 85.47280134310135 l -20.82215227524562 -19.947150863545158 a49.834889508138346,49.834889508138346 0 0,0 0.597100760163762,-0.6126779816339651 l 20.476664713931058 20.301651537246855" fill="#a6ff21" stroke="none" /><path d="M 85.34317274990677 84.96080404539775 l -32.74210348114184 -33.596282593534994 a67.91221103800655,67.91221103800655 0 0,0 0.8418770037578738,-0.8064991255717671 l 32.16055399151867 34.15339384941233" fill="#38ff84" stroke="none" /><path d="M 85.86807049272753 84.46653392183569 l -20.44784383775697 -22.475762312707865 a51.38542757886805,51.38542757886805 0 0,0 0.6575743572416973,-0.5880070450502267 l 20.05900445369188 22.823464887641492" fill="#94ff23" stroke="none" /><path d="M 86.13680546590413 84.22622945171909 l -25.296757233700436 -28.783066070274945 a59.31958792767203,59.31958792767203 0 0,0 0.7706476589848062,-0.6656670930919728 l 24.79893009495278 29.213077295831628" fill="#3fff2d" stroke="none" /><path d="M 86.68645165197937 83.75963576809568 l -22.039818890551494 -26.88499542204892 a55.76430059086335,55.76430059086335 0 0,0 0.7455135444077815,-0.6005329392400723 l 21.575054575788467 27.25937665508239" fill="#64ff29" stroke="none" /><path d="M 87.25179093698888 83.31218511350988 l -20.97700115633577 -27.45956788442692 a55.55520866544381,55.55520866544381 0 0,0 0.7628180175771521,-0.5724328615038161 l 20.502530149847868 27.81561977319474" fill="#66ff29" stroke="none" /><path d="M 88.12776184653039 82.6780497279521 l -19.278587892163195 -28.128035882245378 a55.10059169147575,55.10059169147575 0 0,0 0.7847995953796469,-0.5280481922645532 l 18.792892008686557 28.45483374856704" fill="#6bff28" stroke="none" /><path d="M 88.72937992617638 82.28071324371311 l -11.003886436562304 -17.29993717523254 a41.50300814455656,41.50300814455656 0 0,0 0.6044337454161282,-0.37721136086619184 l 10.705288562356477 17.48628433294027" fill="#fff417" stroke="none" /><line stroke="#e1ed5e" stroke-width="0.3" x1="56.869717070023135" x2="54.33264160355391" y1="26.7553504044142" y2="22.446841604673864" /><path d="M 56.362301976729285 25.89364864446614 a86.0,86.0 0 0,1 42.16139366436587,-11.88097634709845" fill="none" id="id12" stroke="none" /><text fill="#e1ed5e" style="font-size:6.75px; font-family:Arial;" text-anchor="middle"><textPath startOffset="22.145653131862474" xlink:href="#id12">December</textPath></text><path d="M 89.65649057296885 81.72400993836675 l -17.420917199305915 -30.781091451128024 a56.36896870121858,56.36896870121858 0 0,0 0.8462211900336145,-0.46938462937249203 l 16.8899518211162 31.07560899593366" fill="#5eff2a" stroke="none" /><path d="M 89.97174638481275 81.54914285379989 l -12.176485907030393 -22.403362602745812 a46.498577704535194,46.498577704535194 0 0,0 0.7045889274095579,-0.37515391771642276 l 11.790108163834274 22.60908698818481" fill="#cdff1d" stroke="none" /><path d="M 90.61103034731259 81.2157712731953 l -14.307995489111997 -28.62557552442842 a53.002223501206984,53.002223501206984 0 0,0 0.8173441355803724,-0.39980397434930964 l 13.814491104269571 28.86697324887494" fill="#82ff25" stroke="none" /><path d="M 91.26138138417902 80.90454125486306 l -21.24592503695703 -46.42618048474819 a72.0566309609086,72.0566309609086 0 0,0 1.1291843564101847,-0.5050697999771063 l 20.445827277691226 46.784054035635144" fill="#3effb3" stroke="none" /><path d="M 91.92203290615298 80.6158196554323 l -11.35886600754806 -27.257143368138216 a50.52923469324378,50.52923469324378 0 0,0 0.8035244050128554,-0.32678638031610907 l 10.889287141344765 27.44811700503362" fill="#9eff22" stroke="none" /><path d="M 92.592206182469 80.34994680014964 l -13.85735212036958 -36.75827285175139 a60.28354402076924,60.28354402076924 0 0,0 0.9714573939697285,-0.35673261115268257 l 13.224305574745724 36.9907363119128" fill="#35ff2f" stroke="none" /><path d="M 93.61358852112211 79.99465700312896 l -10.106395040729948 -31.65813852119702 a54.23216747891401,54.23216747891401 0 0,0 0.8893026129066356,-0.2755082227282003 l 9.561451794951697 31.826963331731864" fill="#75ff27" stroke="none" /><path d="M 93.95794788825049 79.88797359093562 l -11.446936511813922 -38.10312873349636 a60.78543420382508,60.78543420382508 0 0,0 1.001917592509029,-0.2916436090759343 l 10.79115890692327 38.294016036874815" fill="#30ff2f" stroke="none" /><path d="M 94.6519064749342 79.69241777938228 l -6.396803576202472 -24.289705100337553 a46.117899391746136,46.117899391746136 0 0,0 0.7673023778590787,-0.19504526393917135 l 5.978895905118015 24.395935596111986" fill="#d1ff1c" stroke="none" /><path d="M 95.00130118170881 79.60360301121753 l -7.11468377352429 -29.03033768777006 a50.88945016997155,50.88945016997155 0 0,0 0.8502605608808712,-0.20065917722840723 l 6.615291058903513 29.1481930086447" fill="#9aff23" stroke="none" /><path d="M 95.70440661134978 79.44403061299748 l -5.195510341054639 -24.862397777861645 a46.39945178480483,46.39945178480483 0 0,0 0.7810652035887858,-0.156234915724562 l 4.767948651934876 24.947922090249072" fill="#ceff1d" stroke="none" /><path d="M 96.05791012581881 79.37332000966035 l -2.5079799149018287 -13.122810686203447 a34.36031899168154,34.36031899168154 0 0,0 0.5803053185931449,-0.10575096003491927 l 2.282339862757645 13.163929820169727" fill="#ff960d" stroke="none" /><path d="M 96.41257539226777 79.30868818359171 l -7.42781921218461 -42.84168734973784 a64.48083110086083,64.48083110086083 0 0,0 1.0922515354481566,-0.17972957450754007 l 6.69129017368338 42.962882922741045" fill="#34ff5c" stroke="none" /><path d="M 97.12497278360702 79.19773525538626 l -3.6015684618372528 -26.059155270531875 a47.30685972895644,47.30685972895644 0 0,0 0.805392929990628,-0.10427423931548678 l 3.1536977099558308 26.117141106047757" fill="#c3ff1e" stroke="none" /><path d="M 98.9189461498227 79.02784411241856 l -1.6779862381298498 -32.55248474209145 a53.59570371535872,53.59570371535872 0 0,0 0.9192281819401489,-0.03947561332794644 l 1.1189322955888807 32.57649292384523" fill="#7bff26" stroke="none" /><path d="M 99.27912038922189 79.0123766808444 l -1.1599792711478287 -33.77153083106514 a54.79144635234006,54.79144635234006 0 0,0 0.9402908461043077,-0.02421855675439337 l 0.5800751109727771 33.786467105169585" fill="#6eff28" stroke="none" /></svg>