<?xml version="1.0" encoding="utf-8" ?>
<svg baseProfile="full" height="200mm" version="1.1" viewBox="0,0,200,200" width="200mm" xmlns="http://www.w3.org/2000/svg" xmlns:ev="http://www.w3.org/2001/xml-events" xmlns:xlink="http://www.w3.org/1999/xlink"><defs /><rect fill="#1a1a1a" height="200" width="200" x="0" y="0" /><rect fill="#1a1a1a" height="200" width="180" x="10" y="0" /><text alignment-baseline="middle" fill="#e1ed5e" style="dominant-baseline: central; font-size:9.0px; font-family:Arial;" text-anchor="middle" x="100.0" y="100.0">2025</text><line stroke="#e1ed5e" stroke-width="0.3" x1="100.0" x2="100.0" y1="15.0" y2="10.0" /><path d="M 100.0 14.0 a86.0,86.0 0 0,1 42.46469731375804,11.215312516191453" fill="none" id="id13" stroke="none" /><text fill="#e1ed5e" style="font-size:6.75px; font-family:Arial;" text-anchor="middle"><textPath startOffset="22.20632615414155" xlink:href="#id13">January</textPath></text><path d="M 100.0 79.0 l 0.0 -1.3166835777046444 a22.316683577704644,22.316683577704644 0 0,0 0.38414502264009703,0.003306457488775242 l -0.022664543367568676 1.316488496824428" fill="#ff1202" stroke="none" /><path d="M 100.72285384407766 79.0124445844662 l 0.019578195942264627 -0.5684392158123635 a21.56877627221055,21.56877627221055 0 0,0 0.3709410135643952,0.01597350033923226 l -0.029360041895991333 0.5680179889489365" fill="#ff0701" stroke="none" /><path d="M 101.80526077348638 79.07773832637324 l 0.04509004866566323 -0.5225759130841109 a21.52451758542909,21.52451758542909 0 0,0 0.3688634776428618,0.035028031812167154 l -0.05407865339876923 0.5217223367567656" fill="#ff0701" stroke="none" /><path d="M 102.16513564639614 79.11191278185805 l 0.06704099595073995 -0.6467761837190447 a21.650241437440155,21.650241437440155 0 0,0 0.3703565524467605,0.04161387394064574 l -0.07816425190722574 0.6455263563077981" fill="#ff0801" stroke="none" /><path d="M 102.88285421437855 79.19881850522331 l 0.09496094602722532 -0.6851889573104236 a21.691738020127946,21.691738020127946 0 0,0 0.3694113516387071,0.05444163056171264 l -0.1067412780945882 0.6834528425877421" fill="#ff0901" stroke="none" /><path d="M 103.59715602781102 79.31037775812273 l 0.11138702363819397 -0.640660406138589 a21.650271347230245,21.650271347230245 0 0,0 0.3666162914533879,0.06699678391074548 l -0.12239843619448276 0.638648140877105" fill="#ff0801" stroke="none" /><path d="M 104.66035177308747 79.52364482259891 l 0.14429895620935798 -0.6340115130651535 a21.650225182119453,21.650225182119453 0 0,0 0.3626683995712909,0.08583189283248338 l -0.1551910427431724 0.6314337080918014" fill="#ff0801" stroke="none" /><path d="M 105.01212808612495 79.60689891045804 l 0.17761960205300276 -0.7226899308855369 a21.744197191097097,21.744197191097097 0 0,0 0.3627047142248266,0.09246150761325192 l -0.19003320496285442 0.7195254271034172" fill="#ff0a01" stroke="none" /><path d="M 106.0581310904928 79.89281104454417 l 0.22322229017889975 -0.7408840615450646 a21.773781224561713,21.773781224561713 0 0,0 0.3579346557197825,0.11121203986876169 l -0.2359423186094005 0.7369318867937823" fill="#ff0a01" stroke="none" /><path d="M 106.40334571778207 80.00007090966166 l 0.3175738249715119 -0.9918961524660133 a22.041494652690986,22.041494652690986 0 0,0 0.3603439875105103,0.11879974721419298 l -0.3346006347244396 0.9862826809925841" fill="#ff0e01" stroke="none" /><path d="M 107.08798089147638 80.2323363322302 l 0.24491576711180685 -0.6830453672670098 a21.725627112727253,21.725627112727253 0 0,0 0.3509388904910283,0.1292537550629741 l -0.2566369833754116 0.678728344397711" fill="#ff0901" stroke="none" /><path d="M 107.4271985657038 80.35727306442388 l 0.29489667903245903 -0.7799138381988204 a21.833804321359867,21.833804321359867 0 0,0 0.35039807754291885,0.1359490103259005 l -0.3082779215750449 0.7747221239823731" fill="#ff0b01" stroke="none" /><path d="M 108.09893153111575 80.62456947434976 l 0.2872558731901968 -0.6872148742952634 a21.744835700094267,21.744835700094267 0 0,0 0.3441029565391584,0.14732692798957 l -0.2990425875196705 0.6821684183429025" fill="#ff0a01" stroke="none" /><path d="M 108.43124777332544 80.76684994638697 l 2.402180557350807 -5.479793781125847 a26.98319407288279,26.98319407288279 0 0,0 0.42378761457704445,0.19014114954826133 l -2.4961502903946315 5.437632301061054" fill="#ff5307" stroke="none" /><path d="M 109.08828744355905 81.06846463323043 l 0.225196910096204 -0.46910083934404656 a21.52035492290375,21.52035492290375 0 0,0 0.3325701674578938,0.16319073683520893 l -0.2332383445645296 0.4651549423740056" fill="#ff0701" stroke="none" /><path d="M 109.41281617654863 81.2277094730956 l 0.29144475936401915 -0.5812379199496042 a21.65021347828855,21.65021347828855 0 0,0 0.33170138705256713,0.1699103338000952 l -0.3014066340053419 0.5761350608370085" fill="#ff0801" stroke="none" /><path d="M 109.73455568895987 81.39251694778311 l 0.39566995749401823 -0.7563182402552977 a21.85356428920509,21.85356428920509 0 0,0 0.3318151059345262,0.17724413810539044 l -0.40863010995685556 0.7493953756481531" fill="#ff0b01" stroke="none" /><path d="M 110.36928655335952 81.73862282372117 l 0.36450139577806806 -0.6419243441031949 a21.738192475629816,21.738192475629816 0 0,0 0.32379893507974383,0.18756524297328714 l -0.3754970633231402 0.6355549437398582" fill="#ff0a01" stroke="none" /><line stroke="#e1ed5e" stroke-width="0.3" x1="143.23703022742887" x2="145.7803849466894" y1="26.81831364943548" y2="22.513508569990506" /><path d="M 143.74570117128098 25.957352633546492 a86.0,86.0 0 0,1 28.547481713284135,27.462654790039103" fill="none" id="id14" stroke="none" /><text fill="#e1ed5e" style="font-size:6.75px; font-family:Arial;" text-anchor="middle"><textPath startOffset="19.985693538727396" xlink:href="#id14">February</textPath></text><path d="M 110.99172775467656 82.1063720568725 l 0.6127029596246302 -0.9974299804242935 a22.170585956938655,22.170585956938655 0 0,0 0.32345918656621253,0.20255011295355946 l -0.6297812985631059 0.9867355261477898" fill="#ff1001" stroke="none" /><path d="M 111.60114157652 82.49532879139004 l 0.3750096609112999 -0.565842660483568 a21.678829995064987,21.678829995064987 0 0,0 0.3092797951085772,0.20882709825256796 l -0.38469415042641897 0.55930364993233" fill="#ff0901" stroke="none" /><path d="M 111.90073688211348 82.69761687909136 l 0.4677860263965313 -0.680110242541794 a21.82545363800889,21.82545363800889 0 0,0 0.30770653269881676,0.21556809038457372 l -0.479423698678999 0.6719573093932846" fill="#ff0b01" stroke="none" /><path d="M 112.48926042617603 83.11751280151076 l 0.3868284651994161 -0.5228993862641342 a21.650430649373124,21.650430649373124 0 0,0 0.2976973867997086,0.22421949982346662 l -0.3957720057575076 0.5161632969348202" fill="#ff0801" stroke="none" /><path d="M 113.06298171725822 83.55741782278167 l 0.7685678507960152 -0.9674085380358299 a22.235546769953217,22.235546769953217 0 0,0 0.2976350775282931,0.24066686689564964 l -0.7851063268887994 0.9540355738760506" fill="#ff1101" stroke="none" /><path d="M 113.89432698308785 84.25364557470407 l 11.769352185833885 -13.338133692970406 a38.78829562621853,38.78829562621853 0 0,0 0.4968393015872048,0.4460672305657762 l -11.99720247501708 13.133567453635331" fill="#ffeb16" stroke="none" /><path d="M 114.42810811169701 84.74124197986012 l 0.5333609525283135 -0.5640674195824016 a21.77630274990899,21.77630274990899 0 0,0 0.2701472265962032,0.25988141794818037 l -0.5429914227369349 0.5548029148719194" fill="#ff0a01" stroke="none" /><path d="M 114.94478906791727 85.2469230424477 l 0.8329701062046829 -0.8222847458288548 a22.17046631777829,22.17046631777829 0 0,0 0.26576660297863514,0.27389584591342403 l -0.8470009728864272 0.8078247043653165" fill="#ff1001" stroke="none" /><path d="M 115.4437574822437 85.77008943001954 l 0.48697652800864444 -0.4487011953671167 a21.66217739432514,21.66217739432514 0 0,0 0.2503078620398357,0.27639619307057167 l -0.4946280306645158 0.440252215026996" fill="#ff0901" stroke="none" /><path d="M 115.9244219780498 86.31012108654704 l 14.901510321804212 -12.810504030492421 a40.6510565463056,40.6510565463056 0 0,0 0.4515933353708638,0.5345440692087339 l -15.119814270662193 12.55210101165458" fill="#fcff18" stroke="none" /><path d="M 116.82858285166822 87.43820079747576 l 0.4308110937911209 -0.32158159139867415 a21.537599217317144,21.537599217317144 0 0,0 0.2192090566399015,0.29900090690473285 l -0.4362827629446488 0.3141182408224476" fill="#ff0701" stroke="none" /><path d="M 117.2510076193507 88.02491185347247 l 0.6324206993639857 -0.43900587071083585 a21.76985849056993,21.76985849056993 0 0,0 0.21103859878732548,0.309673102925075 l -0.6398837638200446 0.42805474451535436" fill="#ff0a01" stroke="none" /><path d="M 117.65298651832404 88.62581576622439 l 0.6434503054408898 -0.414588336753497 a21.765448747169923,21.765448747169923 0 0,0 0.2002135263464889,0.31668971729779305 l -0.6504914280333343 0.40345097174149774" fill="#ff0a01" stroke="none" /><line stroke="#e1ed5e" stroke-width="0.3" x1="172.23445277983987" x2="176.4835382374775" y1="55.19839476539836" y2="52.563006222186495" /><path d="M 173.08426987136738 54.67131705675599 a86.0,86.0 0 0,1 12.851231095245387,41.99856678651699" fill="none" id="id15" stroke="none" /><text fill="#e1ed5e" style="font-size:6.75px; font-family:Arial;" text-anchor="middle"><textPath startOffset="22.20632615414155" xlink:href="#id15">March</textPath></text><path d="M 118.03404312379186 89.2402003453031 l 0.527154769157604 -0.31452069090767437 a21.613852926729724,21.613852926729724 0 0,0 0.18787617853312918,0.32114129007117564 l -0.5324906221610604 0.3053999884826034" fill="#ff0801" stroke="none" /><path d="M 118.3937258080291 89.86733742301442 l 0.6769051029603559 -0.37289079311723766 a21.772818259363333,21.772818259363333 0 0,0 0.17801031201528605,0.3298260730833215 l -0.6832235141941068 0.3611837367014574" fill="#ff0a01" stroke="none" /><path d="M 118.73160827565052 90.50648371742162 l 0.675503523213294 -0.342357346053446 a21.75730678213676,21.75730678213676 0 0,0 0.16643302284053213,0.3355188181657979 l -0.6812965590072343 0.33067893938869813" fill="#ff0a01" stroke="none" /><path d="M 119.04729006885535 91.15688171328212 l 0.518055273949357 -0.24051841758230277 a21.571165804353726,21.571165804353726 0 0,0 0.15346105674142504,0.3381310964958071 l -0.5221186476541291 0.2315653122444329" fill="#ff0701" stroke="none" /><path d="M 119.34039704204932 91.81776055985345 l 0.5902940558885011 -0.24973258278379068 a21.64094729527564,21.64094729527564 0 0,0 0.142189590570802,0.3443233719443525 l -0.5945053333455005 0.23953464038613512" fill="#ff0801" stroke="none" /><path d="M 119.47837535516314 92.15188598940014 l 0.6387897235224139 -0.2573774499973679 a21.688691122815584,21.688691122815584 0 0,0 0.1365421362409393,0.34748484337044144 l -0.6431254096450537 0.24634360173114206" fill="#ff0901" stroke="none" /><path d="M 119.97218684219823 93.5106431181261 l 0.7096034014877703 -0.23056412165724346 a21.74612117085537,21.74612117085537 0 0,0 0.11260816317345891,0.35699865021539584 l -0.7134670484294355 0.21831530501542848" fill="#ff0a01" stroke="none" /><path d="M 120.08093135843002 93.85539295169968 l 0.997230959896124 -0.30514482996769154 a22.042872453673677,22.042872453673677 0 0,0 0.1078989189979312,0.36378151543512904 l -1.0023357760057574 0.2879339277860326" fill="#ff0e01" stroke="none" /><path d="M 120.28053869075195 94.5502522615342 l 0.6427024227528074 -0.17270577119831595 a21.66550258272792,21.66550258272792 0 0,0 0.0936812907802441,0.3609922283798625 l -0.6455800454033542 0.16161711726960304" fill="#ff0901" stroke="none" /><path d="M 120.37134235888165 94.90015583598534 l 0.6546205565739436 -0.1638803553675548 a21.67482208319273,21.67482208319273 0 0,0 0.08749114156367618,0.3627072657708934 l -0.6573444983984391 0.15258785793725527" fill="#ff0901" stroke="none" /><path d="M 120.53481517161879 95.60439243477599 l 0.6206766328036917 -0.1328597739939923 a21.63473711255469,21.63473711255469 0 0,0 0.07481570675274611,0.3648279563838339 l -0.6228716354714346 0.12215616144674658" fill="#ff0801" stroke="none" /><path d="M 120.67395015179393 96.31383870115 l 0.7831127137823324 -0.1396288448500172 a21.795463221526727,21.795463221526727 0 0,0 0.06267559291678296,0.3699148972567427 l -0.7854001682193383 0.1261281592774366" fill="#ff0a01" stroke="none" /><path d="M 120.78858239683441 97.02765380044208 l 0.6487343960081594 -0.0927558781877776 a21.65533195367116,21.65533195367116 0 0,0 0.04958452390777114,0.3694622969286359 l -0.6502349189737668 0.08157523919447734" fill="#ff0801" stroke="none" /><path d="M 120.96714384426684 98.82574320788733 l 0.9173230060544527 -0.05137432062379771 a21.918760479263412,21.918760479263412 0 0,0 0.01785480494259212,0.3768867126501311 l -0.9180714192305413 0.03557650135066687" fill="#ff0c01" stroke="none" /><path d="M 120.98425023603335 99.18683210126433 l 0.34908954023526884 -0.013527688848099328 a21.349351549971146,21.349351549971146 0 0,0 0.011069441088092071,0.3673408594344258 l -0.349270675779006 0.007516681988674453" fill="#ff0400" stroke="none" /><line stroke="#e1ed5e" stroke-width="0.3" x1="184.98032266829074" x2="189.97916517819016" y1="98.17113171792111" y2="98.06355123074" /><path d="M 185.9800911702706 98.14961562048488 a86.0,86.0 0 0,1 -9.607161424134198,41.387399972396054" fill="none" id="id16" stroke="none" /><text fill="#e1ed5e" style="font-size:6.75px; font-family:Arial;" text-anchor="middle"><textPath startOffset="21.466115282336823" xlink:href="#id16">April</textPath></text><path d="M 120.99513854157772 99.54816195383933 l 0.7714835426879313 -0.016603158673275883 a21.771662180955015,21.771662180955015 0 0,0 0.004838485354000884,0.37474602286530984 l -0.7716550351596477 0.003320877747503299" fill="#ff0a01" stroke="none" /><path d="M 120.9904718944345 100.63252640178507 l 0.575765440974723 0.017350102679134997 a21.57602679545642,21.57602679545642 0 0,0 -0.014381826508651383,0.37113103797877806 l -0.5753814816148685 -0.02725838767191921" fill="#ff0701" stroke="none" /><path d="M 120.95626037817324 101.35467743843564 l 0.7595966308285561 0.04910267383234673 a21.76118205059209,21.76118205059209 0 0,0 -0.02738120558611848,0.37359479575346416 l -0.7586388665781 -0.06217060608258116" fill="#ff0a01" stroke="none" /><path d="M 120.89721153311464 102.0752229133903 l 0.9325245669674341 0.09260548210480564 a21.937111435910193,21.937111435910193 0 0,0 -0.040549913221761366,0.37544183510901563 l -0.9307923522446209 -0.10864363909861269" fill="#ff0d01" stroke="none" /><path d="M 120.81339534386255 102.79330883721812 l 0.6532561058492388 0.08767171445544329 a21.659112941266418,21.659112941266418 0 0,0 -0.052771860370405106,0.3690862685199953 l -0.6516501944622324 -0.09890345495584797" fill="#ff0901" stroke="none" /><path d="M 120.64145759157962 103.86396538481128 l 1.380257688914669 0.2583765176671208 a22.404232784366556,22.404232784366556 0 0,0 -0.07422209411605736,0.37845685884896907 l -1.3756056618229473 -0.2820971035840348" fill="#ff1302" stroke="none" /><path d="M 120.41448212921028 104.9243191809786 l 0.4506143815609195 0.10869582820179455 a21.463538675773666,21.463538675773666 0 0,0 -0.08972646909158571,0.35841264198148126 l -0.4486765981742729 -0.11643630958067176" fill="#ff0600" stroke="none" /><path d="M 120.32669344350535 105.2749913415812 l 0.578636810802636 0.15016235549512455 a21.597803723494334,21.597803723494334 0 0,0 -0.09648245305208238,0.35904710016032265 l -0.5759662814087764 -0.16010038883099548" fill="#ff0801" stroke="none" /><path d="M 120.13307415673323 105.97154293290107 l 0.31256426413352906 0.09270769620345232 a21.326023214125446,21.326023214125446 0 0,0 -0.10741534785558028,0.35103957180246914 l -0.3109221437718161 -0.09807424055797859" fill="#ff0400" stroke="none" /><path d="M 119.79798401119884 107.00284435728193 l 0.6522816507450288 0.23072181868085898 a21.691884318014264,21.691884318014264 0 0,0 -0.12754387839790213,0.3509459754349287 l -0.6482135113418999 -0.24191559112191882" fill="#ff0901" stroke="none" /><path d="M 119.41010516605496 108.01547362559984 l 0.7070097759334042 0.29196226210799314 a21.764921424566353,21.764921424566353 0 0,0 -0.14597942033698402,0.34505222805297303 l -0.7018793744041112 -0.30408901582712966" fill="#ff0a01" stroke="none" /><path d="M 118.97047184881838 109.00673069616215 l 0.7724831245319946 0.36675669036787484 a21.855126100418126,21.855126100418126 0 0,0 -0.16427430862979808,0.3384537322203589 l -0.7660555592874823 -0.3799993785535092" fill="#ff0b01" stroke="none" /><path d="M 118.64920377521936 109.65438752849418 l 0.5789789624621283 0.29972793164941036 a21.651961250370416,21.651961250370416 0 0,0 -0.17419259739342333,0.3295067480740587 l -0.573733856843812 -0.3096496948096034" fill="#ff0801" stroke="none" /><line stroke="#e1ed5e" stroke-width="0.3" x1="174.80103733775053" x2="179.2010983576182" y1="140.37084112569926" y2="142.7455964860345" /><path d="M 175.68104954172406 140.8457921977663 a86.0,86.0 0 0,1 -30.038265399797805,32.042727171017184" fill="none" id="id17" stroke="none" /><text fill="#e1ed5e" style="font-size:6.75px; font-family:Arial;" text-anchor="middle"><textPath startOffset="22.206326154141568" xlink:href="#id17">May</textPath></text><path d="M 118.30583269289576 110.29060199501025 l 0.34629111477510466 0.19466713677231276 a21.397256630292453,21.397256630292453 0 0,0 -0.18325018537015997,0.3195121443969665 l -0.34288893325256514 -0.20059912702759436" fill="#ff0500" stroke="none" /><path d="M 118.12598468904814 110.60418214915192 l 0.8592309612864445 0.502672918353372 a21.995468687442816,21.995468687442816 0 0,0 -0.1939991166140582,0.32515367825350044 l -0.8504509689741592 -0.5173886904929766" fill="#ff0d01" stroke="none" /><path d="M 117.75023020441432 111.22182372390056 l 0.6259471155984233 0.39572828694822404 a21.740547546493108,21.740547546493108 0 0,0 -0.20269968938682625,0.31459441929809084 l -0.6190425628345467 -0.40644430616776783" fill="#ff0a01" stroke="none" /><path d="M 116.0416608686014 113.55231037782055 l 0.36227588002922567 0.30605778346579654 a21.47425223254187,21.47425223254187 0 0,0 -0.24097944714118658,0.28031353882482907 l -0.35695392331726034 -0.31224842145215365" fill="#ff0600" stroke="none" /><path d="M 115.80600337817218 113.82643327865902 l 0.3359863427822798 0.29390685550752177 a21.446394514135793,21.446394514135793 0 0,0 -0.24545005373442683,0.275765737368783 l -0.33087743939951464 -0.2996467626171713" fill="#ff0500" stroke="none" /><path d="M 115.07121518719521 114.62390073753431 l 0.04718598014708608 0.04578549780514884 a21.06574822074936,21.06574822074936 0 0,0 -0.25475448813709384,0.25806495148560343 l -0.046390866954456655 -0.046590943271416954" fill="#ff0000" stroke="none" /><path d="M 114.81725581225074 114.88116024355365 l 0.32293627664553715 0.32432904865187934 a21.457686760320982,21.457686760320982 0 0,0 -0.26398068554448645,0.2583606613746119 l -0.31730563872525647 -0.3298398129490632" fill="#ff0600" stroke="none" /><path d="M 114.29624159901734 115.38237550388516 l 0.3006267760436119 0.3234664106364209 a21.441595943464595,21.441595943464595 0 0,0 -0.2725129341647696,0.24893410414021183 l -0.2950142924119783 -0.3285932813632157" fill="#ff0500" stroke="none" /><path d="M 113.75828350139079 115.86535959552629 l 0.3326466270916182 0.3835913365583696 a21.507736242549285,21.507736242549285 0 0,0 -0.2817867029047793,0.24014474144741763 l -0.32599444760979157 -0.38926046822873406" fill="#ff0601" stroke="none" /><path d="M 112.92097659922987 116.55440617244103 l 0.2812151505456506 0.3602939598431223 a21.45704890153664,21.45704890153664 0 0,0 -0.2931148048171952,0.2247479332773465 l -0.27497161723496166 -0.3650812349478402" fill="#ff0600" stroke="none" /><line stroke="#e1ed5e" stroke-width="0.3" x1="143.8653032363475" x2="146.44561519142675" y1="172.8068346515853" y2="177.08958963109032" /><path d="M 144.38136562736335 173.6633856474863 a86.0,86.0 0 0,1 -40.68145358897372,12.25698825130547" fill="none" id="id18" stroke="none" /><text fill="#e1ed5e" style="font-size:6.75px; font-family:Arial;" text-anchor="middle"><textPath startOffset="21.466115282336833" xlink:href="#id18">June</textPath></text><path d="M 110.5260780823613 118.17145234162733 l 0.22969528678906337 0.39652916540474353 a21.45825244548141,21.45825244548141 0 0,0 -0.3212108626644417,0.18239191090943352 l -0.22283565720342258 -0.40042424210880545" fill="#ff0600" stroke="none" /><path d="M 110.21172684928248 118.3499491758327 l 0.2565379959318169 0.46098561550827 a21.527559931251655,21.527559931251655 0 0,0 -0.3253503065861808,0.17740692813832817 l -0.2485648774769874 -0.46533319540636864" fill="#ff0701" stroke="none" /><path d="M 109.57404056367764 118.69057910512821 l 0.23937208083738265 0.4673056044303687 a21.525046208458313,21.525046208458313 0 0,0 -0.33122545567672934,0.16608331960397815 l -0.23129271747789282 -0.471356764943649" fill="#ff0701" stroke="none" /><path d="M 108.59647513512805 119.15986991738527 l 0.2407616480853584 0.5366108533904399 a21.58814741278458,21.58814741278458 0 0,0 -0.340351870514937,0.1492002580142693 l -0.23148910291266764 -0.5406756646991637" fill="#ff0801" stroke="none" /><path d="M 108.2653958097858 119.30500536409082 l 0.18095641160252254 0.422649389944201 a21.459758338391232,21.459758338391232 0 0,0 -0.3408305656257532,0.14246720407374217 l -0.17365438647930825 -0.4257016370379163" fill="#ff0600" stroke="none" /><path d="M 107.59598834532513 119.57807347666477 l 0.2692091559084028 0.6938658138159659 a21.74426026174142,21.74426026174142 0 0,0 -0.3501134248587503,0.13238293926668995 l -0.2572255102893777 -0.6983970031892868" fill="#ff0a01" stroke="none" /><path d="M 106.57524785965236 119.94407469862006 l 0.1838458844532449 0.5576422563579596 a21.587166241627013,21.587166241627013 0 0,0 -0.35390478842693374,0.11330913730943935 l -0.17421975093537082 -0.5607242403271055" fill="#ff0701" stroke="none" /><path d="M 106.2309692047433 120.05430185196036 l 0.15688800755715887 0.504942226019799 a21.528753722004,21.528753722004 0 0,0 -0.35484002058563274,0.10691038740537732 l -0.1481730125312803 -0.5075679825309019" fill="#ff0701" stroke="none" /><path d="M 105.53697534728816 120.25689768951611 l 0.1382963304132369 0.5059539622816857 a21.524514334364948,21.524514334364948 0 0,0 -0.3582392130334033,0.09461423214766161 l -0.12956667456833618 -0.5082595437329313" fill="#ff0701" stroke="none" /><path d="M 103.7750983002368 120.6578951692458 l 0.1394906436550121 0.7633133933320628 a21.775954235833144,21.775954235833144 0 0,0 -0.3693108808699783,0.06420943049258594 l -0.12633079131298383 -0.7656014023456549" fill="#ff0a01" stroke="none" /><path d="M 103.06178313531738 120.77559828337769 l 0.08679972447373234 0.58897581150443 a21.595337466237442,21.595337466237442 0 0,0 -0.3682225195395935,0.05103228595694819 l -0.07664861374730836 -0.5903826629539807" fill="#ff0801" stroke="none" /><path d="M 101.98527174616119 120.90594882070398 l 0.056076700245681746 0.5905169544859855 a21.593173557945605,21.593173557945605 0 0,0 -0.3703287692803429,0.03195352447570255 l -0.04590361322379716 -0.5913947312403515" fill="#ff0801" stroke="none" /><line stroke="#e1ed5e" stroke-width="0.3" x1="102.19456741930631" x2="102.32365962044197" y1="184.97166512339345" y2="189.96999836594603" /><path d="M 102.22038585953345 185.97133177190398 a86.0,86.0 0 0,1 -42.740103519485714,-10.115201625700543" fill="none" id="id19" stroke="none" /><text fill="#e1ed5e" style="font-size:6.75px; font-family:Arial;" text-anchor="middle"><textPath startOffset="22.20632615414155" xlink:href="#id19">July</textPath></text><path d="M 98.73552117531835 120.96189622390904 l -1.468335806920948 24.341335106403026 a45.38558190415178,45.38558190415178 0 0,0 -0.7794157599216689,-0.05375307414514217 l 1.8871143276215472 -24.3124536877416" fill="#c5ff1e" stroke="none" /><path d="M 94.81253420990036 120.34920634021253 l -0.1042402662616026 0.40891000980949155 a21.421987475208315,21.421987475208315 0 0,0 -0.35653282650275625,-0.09416355995581206 l 0.11126353557584812 -0.40705510055009786" fill="#ff0500" stroke="none" /><path d="M 93.76903079525671 120.05430185196036 l -0.12517436670051899 0.40287224209505684 a21.421870436899262,21.421870436899262 0 0,0 -0.35119489236437273,-0.11244151416590445 l 0.1320906041558321 -0.4006578812694458" fill="#ff0500" stroke="none" /><path d="M 93.42475214034765 119.94407469862007 l -0.13375838242564883 0.40571659466001897 a21.427196980386856,21.427196980386856 0 0,0 -0.349294193557262,-0.11849955506893747 l 0.14072230892013662 -0.40335405269295843" fill="#ff0500" stroke="none" /><path d="M 92.7421414339146 119.70592522655815 l -0.16910836664509019 0.45914876928924664 a21.48930075823485,21.48930075823485 0 0,0 -0.34600821530465875,-0.1308307002821514 l 0.17698680271003192 -0.45616981890046204" fill="#ff0601" stroke="none" /><path d="M 92.40401165467489 119.57807347666478 l -0.14794942765888677 0.3813282266709705 a21.40902353184214,21.40902353184214 0 0,0 -0.3424209422318894,-0.13625635967692762 l 0.15449144593263425 -0.3787250225879763" fill="#ff0500" stroke="none" /><line stroke="#e1ed5e" stroke-width="0.3" x1="58.666819895761336" x2="56.23545636021788" y1="174.27360380694188" y2="178.64263932499728" /><path d="M 58.180547188652646 175.14741091055294 a86.0,86.0 0 0,1 -31.652253787137756,-30.449443065178592" fill="none" id="id20" stroke="none" /><text fill="#e1ed5e" style="font-size:6.75px; font-family:Arial;" text-anchor="middle"><textPath startOffset="22.20632615414155" xlink:href="#id20">August</textPath></text><path d="M 82.6465618267979 111.8261652097733 l -0.23173636002214795 0.1579256197751925 a21.280432241259263,21.280432241259263 0 0,0 -0.20368099028621345,-0.3044754446782237 l 0.2344204557190918 -0.15391326089114796" fill="#ff0300" stroke="none" /><path d="M 82.05923443525364 110.91462005526583 l -0.3785961615702509 0.23032647313786697 a21.443153853400663,21.443153853400663 0 0,0 -0.18912772280928358,-0.31698894203465094 l 0.38250476007776635 -0.22377543721710494" fill="#ff0500" stroke="none" /><line stroke="#e1ed5e" stroke-width="0.3" x1="26.63291911575756" x2="22.317208475507996" y1="142.92168965132927" y2="145.44649492493687" /><path d="M 25.769776987707644 143.4266507060508 a86.0,86.0 0 0,1 -11.730757126820373,-40.83630448921669" fill="none" id="id21" stroke="none" /><text fill="#e1ed5e" style="font-size:6.75px; font-family:Arial;" text-anchor="middle"><textPath startOffset="21.46611528233685" xlink:href="#id21">September</textPath></text><path d="M 81.87401531095188 110.60418214915194 l -0.43591496282432185 0.2550218234556311 a21.505032657610144,21.505032657610144 0 0,0 -0.1841731998166249,-0.32112149788550154 l 0.44024015879332395 -0.24748047971182263" fill="#ff0601" stroke="none" /><path d="M 81.35079622478065 109.6543875284942 l -0.5535877973886616 0.28658334111493744 a21.62336944168144,21.62336944168144 0 0,0 -0.16827237132678916,-0.332017352631764 l 0.5584388385017175 -0.27701177678048844" fill="#ff0801" stroke="none" /><path d="M 80.73074385275274 108.34839909993369 l -0.49113723097663764 0.2127850491839057 a21.535250648582135,21.535250648582135 0 0,0 -0.14443899636335888,-0.341411120813208 l 0.4947272085323031 -0.2042994027045389" fill="#ff0701" stroke="none" /><path d="M 80.45479744820244 107.68017299344265 l -0.5129960090659856 0.2015787804772632 a21.551179562444336,21.551179562444336 0 0,0 -0.13269956185388135,-0.3464366822489574 l 0.5163898505133762 -0.19271853139514794" fill="#ff0701" stroke="none" /><path d="M 80.32549172779594 107.34259656027581 l -0.45285074608977494 0.16900551132222114 a21.483359763624726,21.483359763624726 0 0,0 -0.126317796328771,-0.347572324161983 l 0.45569280342377033 -0.16118539015412098" fill="#ff0601" stroke="none" /><path d="M 80.0844068197444 106.66101706037122 l -0.594244930500124 0.19875258468448173 a21.626601649649807,21.626601649649807 0 0,0 -0.11504090421193568,-0.3540594969948312 l 0.597578085728309 -0.18849418771184712" fill="#ff0801" stroke="none" /><path d="M 79.86692584326677 105.97154293290107 l -40.44409153573524 11.995864471946684 a63.185605419150306,63.185605419150306 0 0,0 -0.30030422207811835,-1.0453983932666697 l 40.64458839469947 -11.297908603175417" fill="#34ff58" stroke="none" /><path d="M 79.67330655649465 105.27499134158121 l -0.5103896678493536 0.13245150207143389 a21.527295944843456,21.527295944843456 0 0,0 -0.08999300084662491,-0.35947730385285803 l 0.512593982991037 -0.12364635882118398" fill="#ff0701" stroke="none" /><path d="M 79.58551787078972 104.9243191809786 l -0.4335089318801031 0.1045697037461571 a21.44594261622028,21.44594261622028 0 0,0 -0.08347520059693499,-0.3596089794226227 l 0.4352446984075932 -0.09709206697496013" fill="#ff0500" stroke="none" /><path d="M 79.4281124754447 104.21870165774334 l -0.6360892159454843 0.13044357872260368 a21.64932658799105,21.64932658799105 0 0,0 -0.07172119532182018,-0.3657048297767893 l 0.6382403442429709 -0.11947502187785951" fill="#ff0801" stroke="none" /><path d="M 79.29508885075956 103.50808413554451 l -0.6127610841966828 0.10382162100841932 a21.62149422788527,21.62149422788527 0 0,0 -0.05901457701094581,-0.36748382738097835 l 0.6144574155689194 -0.0932585639342273" fill="#ff0801" stroke="none" /><path d="M 79.10278846688536 102.07522291339032 l -0.6604147060788859 0.06558328264146948 a21.663663130637293,21.663663130637293 0 0,0 -0.03365646455973713,-0.37139628186874574 l 0.6614457669156983 -0.0542056122241576" fill="#ff0901" stroke="none" /><path d="M 79.04373962182676 101.35467743843564 l -0.6248287122052344 0.040390859057698535 a21.626132846200765,21.626132846200765 0 0,0 -0.020816336238701386,-0.37168966716576474 l 0.6254313993314674 -0.02962947555649618" fill="#ff0801" stroke="none" /><path d="M 79.0235259727143 100.99374915477108 l -0.586759149417769 0.027797398553714672 a21.58741722377865,21.58741722377865 0 0,0 -0.014389418970673898,-0.3713269656871803 l 0.5871507012396436 -0.017693185852537555" fill="#ff0701" stroke="none" /><path d="M 79.0095281055655 100.63252640178507 l -0.5354971831396809 0.016136659915072918 a21.535740258841678,21.535740258841678 0 0,0 -0.00797636370310628,-0.3706302787639957 l 0.5356956095277946 -0.006916565360948407" fill="#ff0701" stroke="none" /><line stroke="#e1ed5e" stroke-width="0.3" x1="15.007084014347285" x2="10.007500721073583" y1="101.09737516637583" y2="101.16192664675087" /><path d="M 14.007167355692545 101.11028546245083 a86.0,86.0 0 0,1 10.666146001902534,-42.60595125391555" fill="none" id="id22" stroke="none" /><text fill="#e1ed5e" style="font-size:6.75px; font-family:Arial;" text-anchor="middle"><textPath startOffset="22.20632615414155" xlink:href="#id22">October</textPath></text><path d="M 79.00486145842228 99.54816195383935 l -0.5915358956412041 -0.012730491051111958 a21.591672866738406,21.591672866738406 0 0,0 0.011195082446990755,-0.371510284466016 l 0.5912291187385683 0.0229109229421224" fill="#ff0801" stroke="none" /><path d="M 79.01574976396665 99.18683210126434 l -0.5656624330722987 -0.021920179511834118 a21.566086991953625,21.566086991953625 0 0,0 0.01756752061689543,-0.3708225945903073 l 0.5652013042219045 0.031653880725150504" fill="#ff0701" stroke="none" /><path d="M 79.05617556472873 98.46500227214037 l -0.6484501462295091 -0.04752568014351058 a21.65018942041391,21.65018942041391 0 0,0 0.03043966752587543,-0.3714410446662155 l 0.6475359948841366 0.058680642017504496" fill="#ff0801" stroke="none" /><path d="M 79.12142395522702 97.74499172005258 l -0.6040717627496114 -0.06524328209747987 a21.607584875067076,21.607584875067076 0 0,0 0.04312220259805012,-0.36944469757475445 l 0.6028592071479724 0.07563171799709607" fill="#ff0801" stroke="none" /><path d="M 79.16333360222342 97.38593545837743 l -0.5648369613395028 -0.0708616361297114 a21.569264582044433,21.569264582044433 0 0,0 0.04938745421356453,-0.3679938988048048 l 0.5635335080681044 0.08057387699917559" fill="#ff0701" stroke="none" /><path d="M 79.26566170972629 96.67025291283419 l -0.5601801189838089 -0.0899598575735359 a21.567357507819686,21.567357507819686 0 0,0 0.06201964627738442,-0.3660434630600125 l 0.5585486111862016 0.09958910894937638" fill="#ff0701" stroke="none" /><path d="M 79.3925641242962 95.95851677861259 l -0.6436755183626768 -0.1262361714078005 a21.6559373018141,21.6559373018141 0 0,0 0.07488901973707011,-0.3651854565319721 l 0.641407202710612 0.13729728410317504" fill="#ff0801" stroke="none" /><path d="M 79.62865764111835 94.90015583598534 l -0.6533338306416183 -0.16355823119816784 a21.673495649023454,21.673495649023454 0 0,0 0.09371585267258396,-0.3611254094497359 l 0.650421646098727 0.1747800661967676" fill="#ff0901" stroke="none" /><path d="M 79.71946130924805 94.55025226153421 l -0.44599001250876935 -0.11984558690032883 a21.461811710502296,21.461811710502296 0 0,0 0.09894225243763924,-0.3559479250913771 l 0.4438609895047694 0.1275048154106485" fill="#ff0600" stroke="none" /><path d="M 79.91906864156998 93.8553929516997 l -1.3268276260266145 -0.40599881734768833 a22.387554175113586,22.387554175113586 0 0,0 0.11592970230408833,-0.3675288369519066 l 1.3196424399543223 0.4287778207260094" fill="#ff1302" stroke="none" /><path d="M 80.14247586403 93.16781622104843 l -0.5036686498676487 -0.17329233775719613 a21.532646546205694,21.532646546205694 0 0,0 0.12360448586459005,-0.34944652629827316 l 0.5006110831932491 0.18193649048208033" fill="#ff0701" stroke="none" /><path d="M 80.2630227832202 92.82701384747504 l -0.6313347005303157 -0.22944521923359165 a21.671735522897855,21.671735522897855 0 0,0 0.13043847282383664,-0.34951025723927764 l 0.6272916392048515 0.24027861350221072" fill="#ff0901" stroke="none" /><path d="M 80.52162464483688 92.15188598940014 l -0.45688707365547543 -0.18408628946905692 a21.492578481101184,21.492578481101184 0 0,0 0.1412147487280145,-0.34196271509827864 l 0.45365063804126116 0.19192357502064686" fill="#ff0601" stroke="none" /><path d="M 80.65960295795068 91.81776055985345 l -0.0626451251013591 -0.026502941600569197 a21.068020714583486,21.068020714583486 0 0,0 0.14417477628154718,-0.33277526156640896 l 0.06217963897713117 0.027577347753577446" fill="#ff0000" stroke="none" /><path d="M 80.95270993114464 91.15688171328213 l -0.5943231842046862 -0.2759274521184783 a21.655252627706133,21.655252627706133 0 0,0 0.15987949905774834,-0.3367469993713206 l 0.5894854913051863 0.28611686713033113" fill="#ff0801" stroke="none" /><path d="M 81.26839172434947 90.50648371742162 l -0.5816103511368006 -0.29477059616983636 a21.65204317718675,21.65204317718675 0 0,0 0.1713507299456358,-0.3309950704130447 l 0.5764501880310509 0.3047383888432166" fill="#ff0801" stroke="none" /><path d="M 81.6062741919709 89.86733742301443 l -0.5723345574861943 -0.31528538658679456 a21.653430731361865,21.653430731361865 0 0,0 0.18265427589830519,-0.3249215757112867 l 0.5668226402954585 0.32509047223286586" fill="#ff0801" stroke="none" /><line stroke="#e1ed5e" stroke-width="0.3" x1="26.266209847984243" x2="21.928928074336255" y1="57.711370442889674" y2="55.22380399835377" /><path d="M 25.398753493254645 57.213857153982495 a86.0,86.0 0 0,1 29.58750427330803,-30.492523968695096" fill="none" id="id23" stroke="none" /><text fill="#e1ed5e" style="font-size:6.75px; font-family:Arial;" text-anchor="middle"><textPath startOffset="21.46611528233685" xlink:href="#id23">November</textPath></text><path d="M 81.78341655067845 89.55222093294921 l -0.5744985415718223 -0.329492841145733 a21.662279477739148,21.662279477739148 0 0,0 0.18829712131339538,-0.3218608177332571 l 0.568741745788102 0.3393330712328819" fill="#ff0901" stroke="none" /><path d="M 82.15384107792192 88.93136811851018 l -0.5896974544826857 -0.3657450364316491 a21.693911031399377,21.693911031399377 0 0,0 0.19955547336960214,-0.31564883552012424 l 0.583314384867121 0.37584151966598883" fill="#ff0901" stroke="none" /><path d="M 82.34701348167596 88.62581576622439 l -0.49393474795972303 -0.3182523714571321 a21.587584978688295,21.587584978688295 0 0,0 0.2039547378223132,-0.3106370582336506 l 0.4883833747794896 0.3267074936684497" fill="#ff0701" stroke="none" /><path d="M 83.17141714833178 87.43820079747576 l -0.9407741288798035 -0.7022466363379045 a22.17397031470879,22.17397031470879 0 0,0 0.23095146707539055,-0.3039050588445416 l 0.9285467215803042 0.7183364710634728" fill="#ff1001" stroke="none" /><path d="M 83.6137871275137 86.86637796730984 l -0.5157206527487791 -0.41335238229619065 a21.66092963590806,21.66092963590806 0 0,0 0.23569309927772142,-0.28893187104872803 l 0.5085290613946651 0.4221684229530009" fill="#ff0901" stroke="none" /><path d="M 84.07557802195018 86.31012108654704 l -0.5262687524614814 -0.45242179006951544 a21.694005962472275,21.694005962472275 0 0,0 0.24587380622186555,-0.28107626409663355 l 0.5184030826617723 0.4614136103690921" fill="#ff0901" stroke="none" /><path d="M 84.31358615837235 86.03803664274999 l -0.5011377449077221 -0.4460462985343827 a21.67089219685984,21.67089219685984 0 0,0 0.2504085621472461,-0.27650738864431057 l 0.49338554214443103 0.4546064744482493" fill="#ff0901" stroke="none" /><path d="M 85.05521093208273 85.24692304244772 l -0.9905013167387812 -0.9777951422395412 a22.391824772968388,22.391824772968388 0 0,0 0.273142089321961,-0.27196913038614234 l 0.973523427249507 0.994700123275793" fill="#ff1302" stroke="none" /><path d="M 85.83668400450813 84.49514656593479 l -0.45071737848364246 -0.49340895139240887 a21.66828029192946,21.66828029192946 0 0,0 0.2775490150580849,-0.24918624613171741 l 0.44215737582958625 0.5010942062934051" fill="#ff0901" stroke="none" /><path d="M 86.37877921826538 84.01681056812374 l -0.4291248860951851 -0.5035366839945034 a21.661587001077248,21.661587001077248 0 0,0 0.28587359880252694,-0.23941091771253656 l 0.42039375033354776 0.5108487591008523" fill="#ff0901" stroke="none" /><path d="M 86.93701828274178 83.55741782278169 l -0.7375795307883796 -0.9284030483790285 a22.185730063917365,22.185730063917365 0 0,0 0.3010576575351068,-0.2349802770035855 l 0.7214893180938471 0.9409617146058358" fill="#ff1001" stroke="none" /><path d="M 87.51073957382395 83.11751280151077 l -0.4428418039150832 -0.598615997299798 a21.744613977519894,21.744613977519894 0 0,0 0.30282448580022464,-0.22001486745521937 l 0.43247200176107686 0.6061500995716852" fill="#ff0a01" stroke="none" /><path d="M 87.80319425747018 82.90503203632743 l -0.40865702918017643 -0.5727711803759293 a21.70361025615578,21.70361025615578 0 0,0 0.30598872168859165,-0.21436465399384091 l 0.39873716790792446 0.5797206771337129" fill="#ff0901" stroke="none" /><path d="M 88.70189139769569 82.29822771554957 l -0.3601864655973613 -0.5643368300287995 a21.669485136299883,21.669485136299883 0 0,0 0.31614834398650743,-0.19797206400084702 l 0.3504189692386116 0.5704532353525767" fill="#ff0901" stroke="none" /><path d="M 89.00827224532344 82.1063720568725 l -0.6298825555496087 -1.0253969483619816 a22.203408050287088,22.203408050287088 0 0,0 0.32738178055320516,-0.19724385968356403 l 0.6121387087787544 1.0360874175041648" fill="#ff1001" stroke="none" /><line stroke="#e1ed5e" stroke-width="0.3" x1="56.762969772571076" x2="54.21961505331055" y1="26.818313649435495" y2="22.513508569990535" /><path d="M 56.25429882871897 25.957352633546506 a86.0,86.0 0 0,1 42.265352541879196,-11.944610805530505" fill="none" id="id24" stroke="none" /><text fill="#e1ed5e" style="font-size:6.75px; font-family:Arial;" text-anchor="middle"><textPath startOffset="22.20632615414155" xlink:href="#id24">December</textPath></text><path d="M 89.63071344664047 81.73862282372117 l -0.32175396900626385 -0.5666417410448036 a21.651619888635675,21.651619888635675 0 0,0 0.3256773883518385,-0.1812391140143725 l 0.3119524915823797 0.5720962526193607" fill="#ff0801" stroke="none" /><path d="M 89.94658935756843 81.56283822128135 l -0.32472457547495326 -0.5955192466016089 a21.67829877118445,21.67829877118445 0 0,0 0.32915394981102447,-0.17582264066589026 l 0.31442557913562347 0.6010206137692486" fill="#ff0901" stroke="none" /><path d="M 90.58718382345135 81.22770947309562 l -0.26788089124378744 -0.5342437186400386 a21.59764247071297,21.59764247071297 0 0,0 0.33376454983725207,-0.16377681508161376 l 0.2586450743961094 0.538775693856482" fill="#ff0801" stroke="none" /><path d="M 91.23893434514133 80.91482961587045 l -0.4997955905841582 -1.0887584204149174 a22.19799437828053,22.19799437828053 0 0,0 0.3486331181014731,-0.15642151768066198 l 0.48098035401591066 1.0972002686121085" fill="#ff1001" stroke="none" /><path d="M 91.90106846888425 80.62456947434976 l -0.2947218487442144 -0.705076056365676 a21.764194486624564,21.764194486624564 0 0,0 0.3468965219089942,-0.14150780133961896 l 0.28254145724683977 0.7100447438888721" fill="#ff0a01" stroke="none" /><path d="M 92.23578459929587 80.48803036053334 l -0.24827825806470585 -0.62393913402491 a21.671522253090245,21.671522253090245 0 0,0 0.3477937066369313,-0.1349385548757059 l 0.23750138642809818 0.6281203927911674" fill="#ff0901" stroke="none" /><path d="M 92.91201910852362 80.23233633223022 l -0.2895108273534001 -0.8074164915119746 a21.857751659817897,21.857751659817897 0 0,0 0.35525923772435447,-0.12394297234403953 l 0.27556958556576033 0.8122803170282239" fill="#ff0b01" stroke="none" /><path d="M 93.59665428221793 80.00007090966166 l -0.35928890225868126 -1.1221871947604374 a22.17830073214377,22.17830073214377 0 0,0 0.3645844676741135,-0.1132781688125968 l 0.33991906187383897 1.1282054984555594" fill="#ff1001" stroke="none" /><path d="M 94.28887869178378 79.79150937346287 l -0.17747859035003008 -0.6279982924438722 a21.652595207877788,21.652595207877788 0 0,0 0.3595383644176807,-0.09827541663575234 l 0.16664233670862683 0.6309602499059205" fill="#ff0801" stroke="none" /><path d="M 94.63758080256005 79.69619591428918 l -6.926059334835224 -26.224236980137317 a48.12343826103283,48.12343826103283 0 0,0 0.8027244127979053,-0.20463232622680594 l 6.4736260333523195 26.339572302532986" fill="#a7ff21" stroke="none" /><path d="M 95.33964822691252 79.52364482259891 l -0.14478133845470337 -0.6361309732835856 a21.65239884360371,21.65239884360371 0 0,0 0.36412867576897806,-0.07958442497956375 l 0.13380993853220435 0.6385288963590176" fill="#ff0801" stroke="none" /><path d="M 96.04723909329186 79.375362276772 l -11.858282720124423 -61.87391316968403 a84.0,84.0 0 0,0 1.4224195155884267,-0.2599380745970552 l 10.791468083433102 62.06886672563182" fill="#4dd2ff" stroke="none" /><path d="M 97.11714578562143 79.19881850522333 l -0.13336283112031172 -0.962277052011402 a21.971474533661166,21.971474533661166 0 0,0 0.3750690482515339,-0.048694727016812295 l 0.11677905436092004 0.9644301021923509" fill="#ff0d01" stroke="none" /><path d="M 97.83486435360386 79.11191278185805 l -0.07275062635212713 -0.7018596876122234 a21.705620064007363,21.705620064007363 0 0,0 0.3719670124743936,-0.03532274984037256 l 0.06065848678749718 0.7030079819677765" fill="#ff0901" stroke="none" /></svg>