<?xml version="1.0" encoding="utf-8" ?>
<svg baseProfile="full" height="200mm" version="1.1" viewBox="0,0,200,200" width="200mm" xmlns="http://www.w3.org/2000/svg" xmlns:ev="http://www.w3.org/2001/xml-events" xmlns:xlink="http://www.w3.org/1999/xlink"><defs /><rect fill="#1a1a1a" height="200" width="200" x="0" y="0" /><rect fill="#1a1a1a" height="200" width="180" x="10" y="0" /><text alignment-baseline="middle" fill="#e1ed5e" style="dominant-baseline: central; font-size:9.0px; font-family:Arial;" text-anchor="middle" x="100.0" y="100.0">2025</text><line stroke="#e1ed5e" stroke-width="0.3" x1="100.0" x2="100.0" y1="15.0" y2="10.0" /><path d="M 100.0 14.0 a86.0,86.0 0 0,1 42.46469731375804,11.215312516191453" fill="none" id="id13" stroke="none" /><text fill="#e1ed5e" style="font-size:6.75px; font-family:Arial;" text-anchor="middle"><textPath startOffset="22.20632615414155" xlink:href="#id13">January</textPath></text><path d="M 100.0 79.0 l 0.0 -50.50371072386727 a71.50371072386727,71.50371072386727 0 0,0 1.2308188391537032,0.010594046331971457 l -0.8693383598811749 50.496228054143856" fill="#3dffae" stroke="none" /><path d="M 100.72285384407766 79.0124445844662 l 0.7509560847466743 -21.803484303750693 a42.81641269377532,42.81641269377532 0 0,0 0.7363590461218454,0.031709169498406305 l -1.1261559632578513 21.787327407728093" fill="#f6ff19" stroke="none" /><path d="M 101.80526077348638 79.07773832637324 l 1.7295079948559722 -20.044316791487223 a41.11879304386243,41.11879304386243 0 0,0 0.704648591469645,0.06691487440319412 l -2.074281713415861 20.01157637256885" fill="#fff316" stroke="none" /><path d="M 102.16513564639614 79.11191278185805 l 2.5714751239159375 -24.808236267803395 a45.941152159274324,45.941152159274324 0 0,0 0.7858853111779723,0.08830337158910269 l -2.9981271386036354 24.760296942743693" fill="#d0ff1d" stroke="none" /><path d="M 102.88285421437855 79.19881850522331 l 3.642393836630329 -26.28162565186664 a47.53282645641013,47.53282645641013 0 0,0 0.8094863423197008,0.11929724465105895 l -4.094249159378685 26.215033923054612" fill="#beff1f" stroke="none" /><path d="M 103.59715602781102 79.31037775812273 l 4.272444887649248 -24.57365487937807 a45.94229940179497,45.94229940179497 0 0,0 0.7779669435728367,0.14216848629837614 l -4.694806952324986 24.496470911728952" fill="#d0ff1d" stroke="none" /><path d="M 104.66035177308747 79.52364482259891 l 5.534839854885892 -24.31862491006671 a45.940528657904395,45.940528657904395 0 0,0 0.7695614185842922,0.1821303242466721 l -5.952624960432708 24.21974867367917" fill="#d0ff1d" stroke="none" /><path d="M 105.01212808612495 79.60689891045804 l 6.812911737390484 -27.720041345181897 a49.54499007742106,49.54499007742106 0 0,0 0.8264366492528205,0.2106771032741368 l -7.28905727532833 27.598661245738896" fill="#a6ff21" stroke="none" /><path d="M 106.0581310904928 79.89281104454417 l 8.562082918940439 -28.417909175585724 a50.679737630623535,50.679737630623535 0 0,0 0.8331136541559186,0.2588524677357108 l -9.049981945807076 28.26631657296749" fill="#99ff23" stroke="none" /><path d="M 106.40334571778207 80.00007090966166 l 12.181101717538887 -38.04591870097552 a60.94835627224564,60.94835627224564 0 0,0 0.9964103649690965,0.3285008313798431 l -12.834194904750401 37.83060414533644" fill="#30ff32" stroke="none" /><path d="M 107.08798089147638 80.2323363322302 l 9.394174320524094 -26.199404491599836 a48.832702112422645,48.832702112422645 0 0,0 0.7888055065150763,0.2905237250530128 l -9.843762152811747 26.0338174987405" fill="#afff20" stroke="none" /><path d="M 107.4271985657038 80.35727306442388 l 11.311279963898278 -29.91496479556594 a52.98202890908637,52.98202890908637 0 0,0 0.8502778902303063,0.32989461154976263 l -11.824541019128251 29.71582748012563" fill="#80ff26" stroke="none" /><path d="M 108.09893153111575 80.62456947434976 l 11.018203438536302 -26.35933325533749 a49.569481211231576,49.569481211231576 0 0,0 0.7844163678285738,0.33584615168445714 l -11.470303564155191 26.16576757569024" fill="#a6ff21" stroke="none" /><path d="M 108.43124777332544 80.76684994638697 l 17.041360131624497 -38.874321493213415 a63.44550419883637,63.44550419883637 0 0,0 0.9964505613174862,0.4470783210264683 l -17.707992811408765 38.57522284167042" fill="#33ff51" stroke="none" /><path d="M 109.08828744355905 81.06846463323043 l 8.637822933308174 -17.993186435769044 a40.95912681305291,40.95912681305291 0 0,0 0.6329720728094815,0.31059664716008195 l -8.946266273128087 17.84183462847413" fill="#fff116" stroke="none" /><path d="M 109.41281617654863 81.2277094730956 l 11.178875523432131 -22.294401075504144 a45.94007973691805,45.94007973691805 0 0,0 0.7038447073661764,0.3605365965897061 l -11.560980718387063 22.098671953601936" fill="#d0ff1d" stroke="none" /><path d="M 109.73455568895987 81.39251694778311 l 15.176616017523726 -29.009914202488925 a53.73995717436305,53.73995717436305 0 0,0 0.815964359257242,0.4358599020799386 l -15.673725423309278 28.744375573907234" fill="#78ff26" stroke="none" /><path d="M 110.36928655335952 81.73862282372117 l 13.981091100804193 -24.622135439490016 a49.314668671372026,49.314668671372026 0 0,0 0.7345614046568989,0.42550537823522766 l -14.40284923792642 24.37782590386474" fill="#a9ff21" stroke="none" /><line stroke="#e1ed5e" stroke-width="0.3" x1="143.23703022742887" x2="145.7803849466894" y1="26.81831364943548" y2="22.513508569990506" /><path d="M 143.74570117128098 25.957352633546492 a86.0,86.0 0 0,1 28.547481713284135,27.462654790039103" fill="none" id="id14" stroke="none" /><text fill="#e1ed5e" style="font-size:6.75px; font-family:Arial;" text-anchor="middle"><textPath startOffset="19.985693538727396" xlink:href="#id14">February</textPath></text><path d="M 110.99172775467656 82.1063720568725 l 23.50129792496043 -38.25817838973674 a65.89987993145047,65.89987993145047 0 0,0 0.961450527236375,0.6020602319517772 l -24.156367604569066 37.84797381646202" fill="#36ff6e" stroke="none" /><path d="M 111.60114157652 82.49532879139004 l 14.384154062539933 -21.703888864554497 a47.0377164885828,47.0377164885828 0 0,0 0.671060906943591,0.45310331991965375 l -14.755619663890066 21.45307363233617" fill="#c3ff1e" stroke="none" /><path d="M 111.90073688211348 82.69761687909136 l 17.942754476350906 -26.08682262867475 a52.66172378533025,52.66172378533025 0 0,0 0.7424522166039653,0.5201352247264984 l -18.389137832538523 25.774102561184314" fill="#83ff25" stroke="none" /><path d="M 112.48926042617603 83.11751280151076 l 14.837485054872635 -20.05672417332714 a45.94840971522021,45.94840971522021 0 0,0 0.6317990492359771,0.4758579453166071 l -15.180530257866996 19.798349638504686" fill="#d0ff1d" stroke="none" /><path d="M 113.06298171725822 83.55741782278167 l 29.479769525137424 -37.1066532491685 a68.39156598604069,68.39156598604069 0 0,0 0.9154588935965897,0.7402374260564282 l -30.114131817298507 36.593709725847944" fill="#39ff8b" stroke="none" /><path d="M 113.89432698308785 84.25364557470407 l 21.34679858292814 -24.192194176899235 a53.26372682801694,53.26372682801694 0 0,0 0.6822551084012023,0.6125353726479741 l -21.760064678925335 23.82115979548196" fill="#7dff26" stroke="none" /><path d="M 114.42810811169701 84.74124197986012 l 20.457995917937012 -21.635796382460995 a50.776455163125775,50.776455163125775 0 0,0 0.629910352378905,0.6059732599111886 l -20.827389513928335 21.280440035787503" fill="#98ff23" stroke="none" /><path d="M 114.94478906791727 85.2469230424477 l 31.95003112192453 -31.54017536117914 a65.89529096136785,65.89529096136785 0 0,0 0.7899142661265618,0.8140760866677023 l -32.4882096517542 30.985535078961327" fill="#36ff6e" stroke="none" /><path d="M 115.4437574822437 85.77008943001954 l 18.678839864272017 -17.21072226918713 a46.398976745180335,46.398976745180335 0 0,0 0.5361431798155564,0.5920226901150516 l -18.97232668470361 16.88664679180253" fill="#cbff1d" stroke="none" /><path d="M 115.9244219780498 86.31012108654704 l 16.82237268405265 -14.461827587783052 a43.184153801755066,43.184153801755066 0 0,0 0.4797335594042578,0.5678532185807074 l -17.068816856944025 14.170115419573238" fill="#f2ff19" stroke="none" /><path d="M 116.82858285166822 87.43820079747576 l 16.524516008158407 -12.33482663650471 a41.620562006320526,41.620562006320526 0 0,0 0.4236128661402652,0.5778074733496076 l -16.7343914868123 12.048556719483608" fill="#fff917" stroke="none" /><path d="M 117.2510076193507 88.02491185347247 l 24.25760645708401 -16.838841066971245 a50.52927428003406,50.52927428003406 0 0,0 0.4898344767109077,0.718771652173504 l -24.543865399463648 16.418791391527336" fill="#9bff22" stroke="none" /><path d="M 117.65298651832404 88.62581576622439 l 24.680666366190756 -15.902263674761729 a50.360130828401736,50.360130828401736 0 0,0 0.46324702502335785,0.7327455445732606 l -24.95074098746007 15.475070482474262" fill="#9dff22" stroke="none" /><line stroke="#e1ed5e" stroke-width="0.3" x1="172.23445277983987" x2="176.4835382374775" y1="55.19839476539836" y2="52.563006222186495" /><path d="M 173.08426987136738 54.67131705675599 a86.0,86.0 0 0,1 12.851231095245387,41.99856678651699" fill="none" id="id15" stroke="none" /><text fill="#e1ed5e" style="font-size:6.75px; font-family:Arial;" text-anchor="middle"><textPath startOffset="22.20632615414155" xlink:href="#id15">March</textPath></text><path d="M 118.03404312379186 89.2402003453031 l 20.219946856673563 -12.063993399206248 a44.545406932622654,44.545406932622654 0 0,0 0.38720633725393705,0.6618611451453231 l -20.424612868397826 11.71415284170703" fill="#e1ff1b" stroke="none" /><path d="M 118.3937258080291 89.86733742301442 l 25.963883871792305 -14.302881167559336 a50.642801409469385,50.642801409469385 0 0,0 0.4140456588044575,0.7671637231271417 l -26.206237629815227 13.853836461099737" fill="#9aff23" stroke="none" /><path d="M 118.73160827565052 90.50648371742162 l 25.910123819414775 -13.131717188586892 a50.04783146223541,50.04783146223541 0 0,0 0.38284204751445283,0.7717862064507389 l -26.132325879882636 12.683771393637203" fill="#a1ff22" stroke="none" /><path d="M 119.04729006885535 91.15688171328212 l 19.870919739215555 -9.225506257558681 a42.90806739515379,42.90806739515379 0 0,0 0.3052555167817396,0.6725900680764814 l -20.02677757296064 8.882094180640136" fill="#f5ff19" stroke="none" /><path d="M 119.34039704204932 91.81776055985345 l 22.641765072047217 -9.578931743968319 a45.584659016007954,45.584659016007954 0 0,0 0.2995092549950795,0.7252854178315888 l -22.803296013928495 9.187771755683427" fill="#d5ff1c" stroke="none" /><path d="M 119.47837535516314 92.15188598940014 l 24.501901562709364 -9.872164050358874 a47.41595735963203,47.41595735963203 0 0,0 0.29850930483226723,0.7596736208317739 l -24.668204417423333 9.448941424631316" fill="#bfff1e" stroke="none" /><path d="M 119.97218684219823 93.5106431181261 l 27.218084530138857 -8.843691757574286 a49.618787699564976,49.618787699564976 0 0,0 0.2569414792570131,0.8145747048356127 l -27.366281493164077 8.373866886312253" fill="#a5ff21" stroke="none" /><path d="M 120.08093135843002 93.85539295169968 l 38.250544607898114 -11.704365788808314 a61.001204248360196,61.001204248360196 0 0,0 0.298598288848381,1.0067249888359229 l -38.44634879385819 11.044211413225861" fill="#30ff33" stroke="none" /><path d="M 120.28053869075195 94.5502522615342 l 24.65198001240469 -6.624433126254657 a46.52652018541149,46.52652018541149 0 0,0 0.20117993800694134,0.7752283676023354 l -24.76235628228193 6.199108333103472" fill="#c9ff1d" stroke="none" /><path d="M 120.37134235888165 94.90015583598534 l 25.109120963399405 -6.285918804604497 a46.883985990814935,46.883985990814935 0 0,0 0.18924877166915968,0.7845583369450418 l -25.213602535329382 5.852775236000049" fill="#c5ff1e" stroke="none" /><path d="M 120.53481517161879 95.60439243477599 l 23.8071421615416 -5.0960699337712345 a45.34645655264311,45.34645655264311 0 0,0 0.15681388583871167,0.7646801986675761 l -23.891335343295307 4.685514078940247" fill="#d8ff1c" stroke="none" /><path d="M 120.67395015179393 96.31383870115 l 30.037663285808314 -5.35570953296635 a51.51138869787974,51.51138869787974 0 0,0 0.14812747018919906,0.874256714071965 l -30.125402617517736 4.837867030578547" fill="#90ff24" stroke="none" /><path d="M 120.78858239683441 97.02765380044208 l 24.88334693878011 -3.5578145875414116 a46.13640784827896,46.13640784827896 0 0,0 0.10563919421165234,0.7871346997648674 l -24.940902132049597 3.1289615457118796" fill="#ceff1d" stroke="none" /><path d="M 120.96714384426684 98.82574320788733 l 35.185534719652075 -1.9705522810139462 a56.240671528789726,56.240671528789726 0 0,0 0.04581309335155799,0.9670419926242879 l -35.214241421237126 1.3645991817666587" fill="#5dff2a" stroke="none" /><path d="M 120.98425023603335 99.18683210126433 l 13.389942318187462 -0.5188782604381726 a34.399992161697064,34.399992161697064 0 0,0 0.01783607739904631,0.5918925760174851 l -13.396890090042152 0.2883155369956885" fill="#ff9b0e" stroke="none" /><line stroke="#e1ed5e" stroke-width="0.3" x1="184.98032266829074" x2="189.97916517819016" y1="98.17113171792111" y2="98.06355123074" /><path d="M 185.9800911702706 98.14961562048488 a86.0,86.0 0 0,1 -9.607161424134198,41.387399972396054" fill="none" id="id16" stroke="none" /><text fill="#e1ed5e" style="font-size:6.75px; font-family:Arial;" text-anchor="middle"><textPath startOffset="21.466115282336823" xlink:href="#id16">April</textPath></text><path d="M 120.99513854157772 99.54816195383933 l 29.591606007617123 -0.6368433061186761 a50.598457992040565,50.598457992040565 0 0,0 0.011244887776353428,0.870928950579689 l -29.59818390251119 0.1273780974785244" fill="#9aff22" stroke="none" /><path d="M 120.9904718944345 100.63252640178507 l 22.08449453473021 0.66549365509971 a43.09451924481514,43.09451924481514 0 0,0 -0.028725302630009025,0.7412724228676199 l -22.069767099249 -1.045543324981336" fill="#f3ff19" stroke="none" /><path d="M 120.95626037817324 101.35467743843564 l 29.135662629791664 1.8834192793080653 a50.196474188824716,50.196474188824716 0 0,0 -0.06316017099930943,0.8617703522960859 l -29.098925900128016 -2.3846627681009216" fill="#9fff22" stroke="none" /><path d="M 120.89721153311464 102.0752229133903 l 35.76861728246404 3.552045881682966 a56.9445546953216,56.9445546953216 0 0,0 -0.1052598359676121,0.9745753526729168 l -35.70217514499537 -4.167217556240674" fill="#56ff2b" stroke="none" /><path d="M 120.81339534386255 102.79330883721812 l 25.05678505987316 3.362802559778289 a46.281434266922716,46.281434266922716 0 0,0 -0.11276350021808981,0.78866765788854 l -24.99518750863847 -3.7936156896472384" fill="#ccff1d" stroke="none" /><path d="M 120.64145759157962 103.86396538481128 l 52.94220739569122 9.910485045198584 a74.86181428210051,74.86181428210051 0 0,0 -0.24800673510329133,1.2645809992078108 l -52.76377072761226 -10.82032977147434" fill="#41ffd2" stroke="none" /><path d="M 120.41448212921028 104.9243191809786 l 17.28410588521209 4.169219360937446 a38.7798398848482,38.7798398848482 0 0,0 -0.16211577025422866,0.6475719162020361 l -17.2097788006628 -4.466119116536879" fill="#ffd513" stroke="none" /><path d="M 120.32669344350535 105.2749913415812 l 22.194630966615346 5.759740830641276 a43.929811560071684,43.929811560071684 0 0,0 -0.1962447680187408,0.7302997866433637 l -22.09219812225483 -6.140931550460188" fill="#e9ff1a" stroke="none" /><path d="M 120.13307415673323 105.97154293290107 l 11.988951214791602 3.555966482924886 a33.50519287569521,33.50519287569521 0 0,0 -0.16875963753651482,0.55151625983661 l -11.925964804748954 -3.761809715313553" fill="#ff8f0d" stroke="none" /><path d="M 119.79798401119884 107.00284435728193 l 25.019408123204524 8.84974050383158 a47.538437968739416,47.538437968739416 0 0,0 -0.27951636946891845,0.7691090012745999 l -24.86336749273038 -9.27909730211231" fill="#beff1f" stroke="none" /><path d="M 119.41010516605496 108.01547362559984 l 27.1186014675855 11.198725249913933 a50.33990444396147,50.33990444396147 0 0,0 -0.33763457846690004,0.7980684078536132 l -26.92181590792629 -11.663868183433708" fill="#9dff22" stroke="none" /><path d="M 118.97047184881838 109.00673069616215 l 29.629946724515467 14.067596885101482 a53.79986318598512,53.79986318598512 0 0,0 -0.4043872951657939,0.833157603601884 l -29.383406172734958 -14.575543444668641" fill="#77ff27" stroke="none" /><path d="M 118.64920377521936 109.65438752849418 l 22.207754794334715 11.496591141718065 a46.00711860421202,46.00711860421202 0 0,0 -0.37013272818959425,0.7001516335741679 l -22.006569557920226 -11.877157790378368" fill="#d0ff1d" stroke="none" /><line stroke="#e1ed5e" stroke-width="0.3" x1="174.80103733775053" x2="179.2010983576182" y1="140.37084112569926" y2="142.7455964860345" /><path d="M 175.68104954172406 140.8457921977663 a86.0,86.0 0 0,1 -30.038265399797805,32.042727171017184" fill="none" id="id17" stroke="none" /><text fill="#e1ed5e" style="font-size:6.75px; font-family:Arial;" text-anchor="middle"><textPath startOffset="22.206326154141568" xlink:href="#id17">May</textPath></text><path d="M 118.30583269289576 110.29060199501025 l 13.28260379561787 7.4667998670807165 a36.23747563891076,36.23747563891076 0 0,0 -0.31034465038737497,0.5411120569788184 l -13.152107149078116 -7.69433176991785" fill="#ffb410" stroke="none" /><path d="M 118.12598468904814 110.60418214915192 l 32.95731233273967 19.280902478860884 a59.18294955339488,59.18294955339488 0 0,0 -0.5219911471369426,0.8748871874762016 l -32.6205403099045 -19.84535176022319" fill="#3fff2d" stroke="none" /><path d="M 117.75023020441432 111.22182372390056 l 24.009300784119855 15.178853346166509 a49.40500154984626,49.40500154984626 0 0,0 -0.4606313823004376,0.7149101346116866 l -23.74446453844237 -15.589885080699649" fill="#a8ff21" stroke="none" /><path d="M 116.0416608686014 113.55231037782055 l 13.895727536243825 11.739383723377687 a39.19077716773612,39.19077716773612 0 0,0 -0.4397904854914056,0.5115756915873325 l -13.69159454118164 -11.976836514126546" fill="#ffda14" stroke="none" /><path d="M 115.80600337817218 113.82643327865902 l 12.887346170617072 11.273313544465688 a38.122245460019315,38.122245460019315 0 0,0 -0.43630211084997406,0.4901900467468666 l -12.69138521011876 -11.493477760953422" fill="#ffcc13" stroke="none" /><path d="M 115.07121518719521 114.62390073753431 l 1.809901127289056 1.756183167812121 a23.521888460949217,23.521888460949217 0 0,0 -0.28445733766933684,0.28815378124312857 l -1.7794031645641835 -1.787077443035914" fill="#ff0000" stroke="none" /><path d="M 114.81725581225074 114.88116024355365 l 12.38678796798021 12.440210183996019 a38.55537939167643,38.55537939167643 0 0,0 -0.4743230524766156,0.4642249386174559 l -12.170814963127802 -12.651585225536047" fill="#ffd213" stroke="none" /><path d="M 114.29624159901734 115.38237550388516 l 11.531067896831573 12.407122188117645 a37.938187855618466,37.938187855618466 0 0,0 -0.4821771157654914,0.44045736294270643 l -11.315791231599217 -12.603772317646936" fill="#ffca12" stroke="none" /><path d="M 113.75828350139079 115.86535959552629 l 12.75924551074921 14.713319301435932 a40.47511516961019,40.47511516961019 0 0,0 -0.5302905486990394,0.4519251100090859 l -12.504089485473123 -14.930768801667964" fill="#ffea16" stroke="none" /><path d="M 112.92097659922987 116.55440617244103 l 10.786500913974466 13.819707507246981 a38.53091319792071,38.53091319792071 0 0,0 -0.5263529553044923,0.40358500128605046 l -10.54701923017648 -14.003331850360404" fill="#ffd213" stroke="none" /><line stroke="#e1ed5e" stroke-width="0.3" x1="143.8653032363475" x2="146.44561519142675" y1="172.8068346515853" y2="177.08958963109032" /><path d="M 144.38136562736335 173.6633856474863 a86.0,86.0 0 0,1 -40.68145358897372,12.25698825130547" fill="none" id="id18" stroke="none" /><text fill="#e1ed5e" style="font-size:6.75px; font-family:Arial;" text-anchor="middle"><textPath startOffset="21.466115282336833" xlink:href="#id18">June</textPath></text><path d="M 110.5260780823613 118.17145234162733 l 8.810366070528117 15.209572445711695 a38.577077239349705,38.577077239349705 0 0,0 -0.5774643713697964,0.32789934095809603 l -8.547252932237122 -15.358974952464418" fill="#ffd213" stroke="none" /><path d="M 110.21172684928248 118.3499491758327 l 9.839965315590371 17.681912775186188 a41.235487560256956,41.235487560256956 0 0,0 -0.6232001472904604,0.3398184095974362 l -9.534142356431262 -17.848671836543396" fill="#fff417" stroke="none" /><path d="M 109.57404056367764 118.69057910512821 l 9.181536498735927 17.924327048216163 a41.13906930841228,41.13906930841228 0 0,0 -0.6330442613610243,0.31742153442970983 l -8.871638329692143 -18.079716423555176" fill="#fff316" stroke="none" /><path d="M 108.59647513512805 119.15986991738527 l 9.234835790617 20.582651572341216 a43.55942680628347,43.55942680628347 0 0,0 -0.6867440780628231,0.30104842227464107 l -8.879171037896421 -20.738564547910315" fill="#edff1a" stroke="none" /><path d="M 108.2653958097858 119.30500536409082 l 6.9409009271116595 16.211459525129023 a38.63483840625924,38.63483840625924 0 0,0 -0.6136105364852895,0.25648925401613903 l -6.660818931128909 -16.328533822165134" fill="#ffd313" stroke="none" /><path d="M 107.59598834532513 119.57807347666477 l 10.325989907093902 26.61444171972728 a49.54740926273635,49.54740926273635 0 0,0 -0.797783550281398,0.301653475091608 l -9.86633613605223 -26.788243444925524" fill="#a6ff21" stroke="none" /><path d="M 106.57524785965236 119.94407469862006 l 7.0517317322256305 21.3893479643782 a43.521792263595,43.521792263595 0 0,0 -0.713505909511524,0.22844206045160392 l -6.682504477623167 -21.507562871489508" fill="#eeff19" stroke="none" /><path d="M 106.2309692047433 120.05430185196036 l 6.017715025749372 19.367945759318985 a41.28127750086399,41.28127750086399 0 0,0 -0.6804039633393264,0.20500013271531983 l -5.6834360879698 -19.46866126114003" fill="#fff517" stroke="none" /><path d="M 105.53697534728816 120.25689768951611 l 5.3045986018436135 19.406752680256083 a41.118668343588446,41.118668343588446 0 0,0 -0.6843508364261188,0.1807432758680993 l -4.9697573226059975 -19.495187305427766" fill="#fff316" stroke="none" /><path d="M 103.7750983002368 120.6578951692458 l 5.350408583450142 29.278225582261683 a50.76308729375465,50.76308729375465 0 0,0 -0.8609202738535634,0.14968202494721608 l -4.845639338124529 -29.365986185729906" fill="#99ff23" stroke="none" /><path d="M 103.06178313531738 120.77559828337769 l 3.329355852812267 22.591201493854353 a43.835213932227184,43.835213932227184 0 0,0 -0.7474350861113935,0.10358769229102359 l -2.939992175514043 -22.64516375163798" fill="#eaff1a" stroke="none" /><path d="M 101.98527174616119 120.90594882070398 l 2.150920308806507 22.650314739164486 a43.75221342986322,43.75221342986322 0 0,0 -0.7503622989595271,0.06474441651411923 l -1.7607136921054383 -22.683983407957268" fill="#ebff1a" stroke="none" /><line stroke="#e1ed5e" stroke-width="0.3" x1="102.19456741930631" x2="102.32365962044197" y1="184.97166512339345" y2="189.96999836594603" /><path d="M 102.22038585953345 185.97133177190398 a86.0,86.0 0 0,1 -42.740103519485714,-10.115201625700543" fill="none" id="id19" stroke="none" /><text fill="#e1ed5e" style="font-size:6.75px; font-family:Arial;" text-anchor="middle"><textPath startOffset="22.20632615414155" xlink:href="#id19">July</textPath></text><path d="M 94.81253420990036 120.34920634021253 l -3.998318458738909 15.684461473662228 a37.18607062310946,37.18607062310946 0 0,0 -0.6188993846220797,-0.16345695256766454 l 4.267708286172478 -15.613313171790983" fill="#ffc011" stroke="none" /><path d="M 93.76903079525671 120.05430185196036 l -4.801282641427733 15.45287229063367 a37.18158141324602,37.18158141324602 0 0,0 -0.6095630874449539,-0.19516285123202254 l 5.066567073963627 -15.36793659274194" fill="#ffc011" stroke="none" /><path d="M 93.42475214034765 119.94407469862007 l -5.13053763812699 15.56197242795598 a37.38589034214192,37.38589034214192 0 0,0 -0.609443896438335,-0.20675645888050817 l 5.3976512675025505 -15.471352982177349" fill="#ffc312" stroke="none" /><path d="M 92.7421414339146 119.70592522655815 l -6.486448357560634 17.611457312947145 a39.76798979595472,39.76798979595472 0 0,0 -0.6403210290720709,-0.24211462310258883 l 6.788639607392988 -17.49719443973792" fill="#ffe115" stroke="none" /><path d="M 92.40401165467489 119.57807347666478 l -5.674860097573288 14.626513747675792 a36.688815810569594,36.688815810569594 0 0,0 -0.5868095226548847,-0.23350361943272488 l 5.925790696270031 -14.526663283837001" fill="#ffb911" stroke="none" /><line stroke="#e1ed5e" stroke-width="0.3" x1="58.666819895761336" x2="56.23545636021788" y1="174.27360380694188" y2="178.64263932499728" /><path d="M 58.180547188652646 175.14741091055294 a86.0,86.0 0 0,1 -31.652253787137756,-30.449443065178592" fill="none" id="id20" stroke="none" /><text fill="#e1ed5e" style="font-size:6.75px; font-family:Arial;" text-anchor="middle"><textPath startOffset="22.20632615414155" xlink:href="#id20">August</textPath></text><path d="M 82.6465618267979 111.8261652097733 l -8.888655018514848 6.057514464422721 a31.756471053503546,31.756471053503546 0 0,0 -0.3039500983270592,-0.4543641565080572 l 8.991608222252637 -5.903613393708843" fill="#ff770a" stroke="none" /><path d="M 82.05923443525364 110.91462005526583 l -14.521720593221783 8.834576331301948 a37.99794422691174,37.99794422691174 0 0,0 -0.3351402835702866,-0.5617143924968959 l 14.6716417524903 -8.583299844918942" fill="#ffcb12" stroke="none" /><line stroke="#e1ed5e" stroke-width="0.3" x1="26.63291911575756" x2="22.317208475507996" y1="142.92168965132927" y2="145.44649492493687" /><path d="M 25.769776987707644 143.4266507060508 a86.0,86.0 0 0,1 -11.730757126820373,-40.83630448921669" fill="none" id="id21" stroke="none" /><text fill="#e1ed5e" style="font-size:6.75px; font-family:Arial;" text-anchor="middle"><textPath startOffset="21.46611528233685" xlink:href="#id21">September</textPath></text><path d="M 81.87401531095188 110.60418214915194 l -16.72028386733883 9.781809857862049 a40.371414421764825,40.371414421764825 0 0,0 -0.3457484902980731,-0.6028416360616754 l 16.88618435378928 -9.492548375942066" fill="#ffe915" stroke="none" /><path d="M 81.35079622478065 109.6543875284942 l -21.23383207096656 10.992407289821061 a44.910429574629546,44.910429574629546 0 0,0 -0.3494915305502928,-0.6895799460458321 l 21.419902271303123 -10.625273132072543" fill="#ddff1b" stroke="none" /><path d="M 80.73074385275274 108.34839909993369 l -18.838430932818518 8.161744212745454 a41.530478528394255,41.530478528394255 0 0,0 -0.2785489119684909,-0.6584073458750983 l 18.976130825979315 -7.836262341204196" fill="#fff817" stroke="none" /><path d="M 80.45479744820244 107.68017299344265 l -19.6768627505268 7.731908098254784 a42.1414599908078,42.1414599908078 0 0,0 -0.2594824687187008,-0.677426845340004 l 19.80703949883901 -7.392057686081621" fill="#ffff18" stroke="none" /><path d="M 80.32549172779594 107.34259656027581 l -17.369885573780348 6.4825031610376405 a39.54011251527578,39.54011251527578 0 0,0 -0.23248783870286915,-0.6397066825567117 l 17.47889767348844 -6.182548681474812" fill="#ffdf14" stroke="none" /><path d="M 80.0844068197444 106.66101706037122 l -22.79330780552575 7.62350439581288 a45.03440658702476,45.03440658702476 0 0,0 -0.23955677079312052,-0.7372799296888557 l 22.921156827335118 -7.230025566146221" fill="#dbff1b" stroke="none" /><path d="M 79.86692584326677 105.97154293290107 l -16.060379058177816 4.763566771669591 a37.751935526395485,37.751935526395485 0 0,0 -0.1794248160635877,-0.624601323041837 l 16.139996511127507 -4.486407973123159" fill="#ffc712" stroke="none" /><path d="M 79.67330655649465 105.27499134158121 l -19.57689195641862 5.080409947254583 a41.225361898009425,41.225361898009425 0 0,0 -0.17233906374937233,-0.688408891828543 l 19.66144233446305 -4.742673216028648" fill="#fff417" stroke="none" /><path d="M 79.58551787078972 104.9243191809786 l -16.627996325474502 4.010954611952398 a38.10491212193549,38.10491212193549 0 0,0 -0.14831780724347313,-0.6389492317672254 l 16.694574698648527 -3.7241367228365982" fill="#ffcc13" stroke="none" /><path d="M 79.4281124754447 104.21870165774334 l -24.398318852495404 5.003392521289706 a45.906061502175135,45.906061502175135 0 0,0 -0.15208037026330962,-0.7754545315367071 l 24.48082915573438 -4.582674262685045" fill="#d1ff1c" stroke="none" /><path d="M 79.29508885075956 103.50808413554451 l -23.503527394988456 3.9822605849105304 a44.8385024565954,44.8385024565954 0 0,0 -0.12238401418471442,-0.7620853731528934 l 23.568593163534462 -3.577095982064423" fill="#deff1b" stroke="none" /><path d="M 79.10278846688536 102.07522291339032 l -25.331365742208497 2.5155619701891605 a46.45596477039117,46.45596477039117 0 0,0 -0.07217355266533224,-0.7964291395368075 l 25.370913891150906 -2.079151442103787" fill="#caff1d" stroke="none" /><path d="M 79.04373962182676 101.35467743843564 l -23.966402458053754 1.5492623256489646 a45.016424807516216,45.016424807516216 0 0,0 -0.04333077215985472,-0.7737000448805551 l 23.989519581101142 -1.136490564432972" fill="#dbff1b" stroke="none" /><path d="M 79.0235259727143 100.99374915477108 l -22.50617752705406 1.0662180338576117 a43.53141912474659,43.53141912474659 0 0,0 -0.02901652484318556,-0.7487875741727864 l 22.521196184748447 -0.6786532126708285" fill="#eeff19" stroke="none" /><path d="M 79.0095281055655 100.63252640178507 l -20.539934794264415 0.6189499270743366 a41.54925838965629,41.54925838965629 0 0,0 -0.015388929868532127,-0.7150631013518673 l 20.547545786817956 -0.26529700993234034" fill="#fff817" stroke="none" /><line stroke="#e1ed5e" stroke-width="0.3" x1="15.007084014347285" x2="10.007500721073583" y1="101.09737516637583" y2="101.16192664675087" /><path d="M 14.007167355692545 101.11028546245083 a86.0,86.0 0 0,1 10.666146001902534,-42.60595125391555" fill="none" id="id22" stroke="none" /><text fill="#e1ed5e" style="font-size:6.75px; font-family:Arial;" text-anchor="middle"><textPath startOffset="22.20632615414155" xlink:href="#id22">October</textPath></text><path d="M 79.00486145842228 99.54816195383935 l -22.68939801643714 -0.4883003390525781 a43.69465178339206,43.69465178339206 0 0,0 0.022655272346274576,-0.7518181946290123 l 22.67763104963522 0.8787886811065848" fill="#ecff1a" stroke="none" /><path d="M 79.01574976396665 99.18683210126434 l -21.696975925715314 -0.8407869770889225 a42.71326062713549,42.71326062713549 0 0,0 0.03479379856725953,-0.7344420958273976 l 21.679288518914557 1.2141401795393292" fill="#f8ff18" stroke="none" /><path d="M 79.05617556472873 98.46500227214037 l -24.872444039376308 -1.8229309171662758 a45.93915695489057,45.93915695489057 0 0,0 0.06458939628525166,-0.788154233621646 l 24.837380159271557 2.2507990679957" fill="#d0ff1d" stroke="none" /><path d="M 79.12142395522702 97.74499172005258 l -23.170233212406927 -2.502520652282277 a44.304984804380894,44.304984804380894 0 0,0 0.0884193463491886,-0.757522962734991 l 23.123723513054152 2.90098735334213" fill="#e4ff1a" stroke="none" /><path d="M 79.16333360222342 97.38593545837743 l -21.665313507872604 -2.718022487038014 a42.83514267492776,42.83514267492776 0 0,0 0.09808024003519274,-0.730811711212856 l 21.615317268779577 3.090552540315529" fill="#f6ff19" stroke="none" /><path d="M 79.26566170972629 96.67025291283419 l -21.48669214188839 -3.45056830706011 a42.76199349420857,42.76199349420857 0 0,0 0.12296748499045662,-0.7257610572039066 l 21.42411279537771 3.8199151525798447" fill="#f7ff18" stroke="none" /><path d="M 79.3925641242962 95.95851677861259 l -24.689304803280567 -4.842010025508339 a46.15962703929484,46.15962703929484 0 0,0 0.15962593409023074,-0.778392744620588 l 24.60229957327534 5.266278426292329" fill="#ceff1d" stroke="none" /><path d="M 79.62865764111835 94.90015583598534 l -25.05976633076983 -6.2735631664364915 a46.83310827902933,46.83310827902933 0 0,0 0.20250562007861622,-0.7803367614042601 l 24.948064378820906 6.703996353389615" fill="#c6ff1e" stroke="none" /><path d="M 79.71946130924805 94.55025226153421 l -17.106730089808547 -4.5968879348353315 a38.713599099307736,38.713599099307736 0 0,0 0.17847564532396235,-0.6420718557266424 l 17.025067673918226 4.890671093980916" fill="#ffd413" stroke="none" /><path d="M 79.91906864156998 93.8553929516997 l -50.89280351024106 -15.572797574725575 a74.22207693650618,74.22207693650618 0 0,0 0.3843449452466438,-1.2184785081593508 l 50.617203081226215 16.44652624931134" fill="#41ffcb" stroke="none" /><path d="M 80.14247586403 93.16781622104843 l -19.319095509598945 -6.646931916633448 a41.43059360893282,41.43059360893282 0 0,0 0.23782525808464977,-0.6723640304989896 l 19.201817170704484 6.9784935735590485" fill="#fff617" stroke="none" /><path d="M 80.2630227832202 92.82701384747504 l -24.215951064800723 -8.800774290318495 a46.76559555069423,46.76559555069423 0 0,0 0.28147412826649765,-0.7542107236220814 l 24.0608723480326 9.216308150969917" fill="#c7ff1e" stroke="none" /><path d="M 80.52162464483688 92.15188598940014 l -17.52470600536823 -7.060952888759134 a39.89371261218571,39.89371261218571 0 0,0 0.2621174842893392,-0.6347382791789858 l 17.40056683419269 7.361565738391431" fill="#ffe315" stroke="none" /><path d="M 80.65960295795068 91.81776055985345 l -2.4028637783231797 -1.016566864348726 a23.609053952464254,23.609053952464254 0 0,0 0.1615638278473567,-0.3729115900730249 l 2.385009240633142 1.05777759900835" fill="#ff0100" stroke="none" /><path d="M 80.95270993114464 91.15688171328213 l -22.796309363778086 -10.583681955583216 a46.133365161593744,46.133365161593744 0 0,0 0.34060001232435766,-0.7173904897877753 l 22.610751157611976 10.974514861011523" fill="#ceff1d" stroke="none" /><path d="M 81.26839172434947 90.50648371742162 l -22.308686327679634 -11.306443834300456 a46.01026105111642,46.01026105111642 0 0,0 0.36411768402553174,-0.7033594692062486 l 22.11075921049399 11.68877602576704" fill="#d0ff1d" stroke="none" /><path d="M 81.6062741919709 89.86733742301443 l -21.952896973884254 -12.093324644787199 a46.06348312805293,46.06348312805293 0 0,0 0.38856162150426765,-0.6912077677852528 l 21.741477711087555 12.469415922507235" fill="#cfff1d" stroke="none" /><line stroke="#e1ed5e" stroke-width="0.3" x1="26.266209847984243" x2="21.928928074336255" y1="57.711370442889674" y2="55.22380399835377" /><path d="M 25.398753493254645 57.213857153982495 a86.0,86.0 0 0,1 29.58750427330803,-30.492523968695096" fill="none" id="id23" stroke="none" /><text fill="#e1ed5e" style="font-size:6.75px; font-family:Arial;" text-anchor="middle"><textPath startOffset="21.46611528233685" xlink:href="#id23">November</textPath></text><path d="M 81.78341655067845 89.55222093294921 l -22.035900383452212 -12.638276512735596 a46.40289233378344,46.40289233378344 0 0,0 0.4033523367679662,-0.689459892117438 l 21.81508837221392 13.015715817206926" fill="#cbff1d" stroke="none" /><path d="M 82.15384107792192 88.93136811851018 l -22.61888137749298 -14.02879312190963 a47.616176119541244,47.616176119541244 0 0,0 0.4380062475517796,-0.6928206961990487 l 22.374047533695236 14.416061465822892" fill="#bdff1f" stroke="none" /><path d="M 82.34701348167596 88.62581576622439 l -18.945734609154407 -12.207128559524866 a43.537853658884174,43.537853658884174 0 0,0 0.4113360312008144,-0.6264929956618397 l 18.732801942595675 12.531439619164372" fill="#edff19" stroke="none" /><path d="M 83.17141714833178 87.43820079747576 l -36.085043715872736 -26.935902884310153 a66.02969291666815,66.02969291666815 0 0,0 0.6877277381185267,-0.9049690888246589 l 35.6160400375301 27.553056749015838" fill="#36ff70" stroke="none" /><path d="M 83.6137871275137 86.86637796730984 l -19.781371243464356 -15.854856471211408 a46.35111678002515,46.35111678002515 0 0,0 0.5043476227704272,-0.6182705507823572 l 19.50552512861754 16.193011191601848" fill="#ccff1d" stroke="none" /><path d="M 84.07557802195018 86.31012108654704 l -20.185962130445304 -17.353432212375072 a47.619817367541586,47.619817367541586 0 0,0 0.5397097137339054,-0.6169815010554753 l 19.884260553133554 17.69832926963349" fill="#bdff1f" stroke="none" /><path d="M 84.31358615837235 86.03803664274999 l -19.22201820558299 -17.108889039159447 a46.733248299622694,46.733248299622694 0 0,0 0.5400057092653738,-0.5962877916058886 l 18.924668855701572 17.43722961803489" fill="#c7ff1e" stroke="none" /><path d="M 85.05521093208273 85.24692304244772 l -37.99241732732106 -37.50504969231548 a74.38588321641198,74.38588321641198 0 0,0 0.9073809644276125,-0.9034843822016395 l 37.34120056272613 38.15346992516723" fill="#41ffcd" stroke="none" /><path d="M 85.83668400450813 84.49514656593479 l -17.288056513046154 -18.925566758514467 a46.6330640995037,46.6330640995037 0 0,0 0.5973229455952029,-0.5362824382931383 l 16.95972257985498 19.220348205576883" fill="#c8ff1d" stroke="none" /><path d="M 86.37877921826538 84.01681056812374 l -16.4598385509941 -19.314033726801974 a46.37633117542478,46.37633117542478 0 0,0 0.6120405070836772,-0.5125663233398737 l 16.12494050695131 19.594501207535657" fill="#cbff1d" stroke="none" /><path d="M 86.93701828274178 83.55741782278169 l -28.291158095645418 -35.61052919960458 a66.48075874772422,66.48075874772422 0 0,0 0.9021358072096016,-0.704131306968153 l 27.673989733276393 36.09223889579595" fill="#37ff75" stroke="none" /><path d="M 87.51073957382395 83.11751280151077 l -16.985975020932322 -22.960967748235962 a49.56097665254585,49.56097665254585 0 0,0 0.6902066546722813,-0.5014644877317238 l 16.58822304990626 23.249951470784353" fill="#a6ff21" stroke="none" /><path d="M 87.80319425747018 82.90503203632743 l -15.674757957390039 -21.96964441153139 a47.988206916946055,47.988206916946055 0 0,0 0.6765625588249395,-0.4739753087216583 l 15.294264258981439 22.236204563016994" fill="#b8ff1f" stroke="none" /><path d="M 88.70189139769569 82.29822771554957 l -13.815584376690564 -21.646130093218247 a46.67927802104228,46.67927802104228 0 0,0 0.6810303222256522,-0.42646112529986346 l 13.44093490209267 21.88073555984104" fill="#c8ff1d" stroke="none" /><path d="M 89.00827224532344 82.1063720568725 l -24.16025149409405 -39.330900555081165 a67.15882895754135,67.15882895754135 0 0,0 0.990234334935972,-0.5966051069913334 l 23.47965509294043 39.740952271531114" fill="#38ff7d" stroke="none" /><line stroke="#e1ed5e" stroke-width="0.3" x1="56.762969772571076" x2="54.21961505331055" y1="26.818313649435495" y2="22.513508569990535" /><path d="M 56.25429882871897 25.957352633546506 a86.0,86.0 0 0,1 42.265352541879196,-11.944610805530505" fill="none" id="id24" stroke="none" /><text fill="#e1ed5e" style="font-size:6.75px; font-family:Arial;" text-anchor="middle"><textPath startOffset="22.20632615414155" xlink:href="#id24">December</textPath></text><path d="M 89.63071344664047 81.73862282372117 l -12.341438482339463 -21.73453900266893 a45.99402507544366,45.99402507544366 0 0,0 0.6918287889499497,-0.3850019720235126 l 11.965485604317468 21.94375637225263" fill="#d0ff1d" stroke="none" /><path d="M 89.94658935756843 81.56283822128135 l -12.455381309841469 -22.84218643730177 a47.01734046381377,47.01734046381377 0 0,0 0.7138910431405794,-0.3813358716332184 l 12.060345220172584 23.05320103543674" fill="#c4ff1e" stroke="none" /><path d="M 90.58718382345135 81.22770947309562 l -10.275041983445153 -20.491855962292586 a43.92362642648206,43.92362642648206 0 0,0 0.6787847063092187,-0.33307670745631907 l 9.920786010125507 20.665687829883733" fill="#e9ff1a" stroke="none" /><path d="M 91.23893434514133 80.91482961587045 l -19.170537519674962 -41.76124107863987 a66.95117806130267,66.95117806130267 0 0,0 1.0515093197301246,-0.4717815810019328 l 18.448846081478063 42.085042990158335" fill="#37ff7a" stroke="none" /><path d="M 91.90106846888425 80.62456947434976 l -11.304574041190063 -27.044430257946907 a50.31202146269858,50.31202146269858 0 0,0 0.8019164351038485,-0.32712184880141526 l 10.837373736497835 27.235012992931896" fill="#9eff22" stroke="none" /><path d="M 92.23578459929587 80.48803036053334 l -9.52314856556849 -23.93228112484505 a46.75741521272086,46.75741521272086 0 0,0 0.750382670847008,-0.29113681839438926 l 9.109782729721806 24.092660647129993" fill="#c7ff1e" stroke="none" /><path d="M 92.91201910852362 80.23233633223022 l -11.104696165173428 -30.96987735814816 a53.90057112725485,53.90057112725485 0 0,0 0.8760588055713796,-0.3056397153982919 l 10.569955355538763 31.15643792671866" fill="#76ff27" stroke="none" /><path d="M 93.59665428221793 80.00007090966166 l -13.781156758711115 -43.043460419707955 a66.19579368161527,66.19579368161527 0 0,0 1.0881788687579197,-0.3381024715063925 l 13.038192517242466 43.274303026096874" fill="#36ff72" stroke="none" /><path d="M 94.28887869178378 79.79150937346287 l -6.807502985905938 -24.087977273900886 a46.03143515763896,46.03143515763896 0 0,0 0.7643456476919074,-0.20892453883831552 l 6.391859448990307 24.201588353565498" fill="#cfff1d" stroke="none" /><path d="M 94.63758080256005 79.69619591428918 l -5.233068082656074 -19.814040119832526 a41.493442547020905,41.493442547020905 0 0,0 0.6921325762895754,-0.17644000467087528 l 4.8912266176815 19.901183120672265" fill="#fff717" stroke="none" /><path d="M 95.33964822691252 79.52364482259891 l -5.5533424729710426 -24.399920528524312 a46.02390326109031,46.02390326109031 0 0,0 0.7739845856908827,-0.16916305222370118 l 5.132515163126639 24.491897078843884" fill="#cfff1d" stroke="none" /><path d="M 96.04723909329186 79.375362276772 l -9.075897580109235 -47.3560389866242 a69.21790482162517,69.21790482162517 0 0,0 1.1721059362669275,-0.21419486794018416 l 8.259396522739415 47.50524933591512" fill="#3aff94" stroke="none" /><path d="M 97.11714578562143 79.19881850522333 l -5.115365573221308 -36.90982609179414 a58.262611651281034,58.262611651281034 0 0,0 0.9945851502690825,-0.12912569728987264 l 4.4792656944443685 36.992410112248145" fill="#48ff2c" stroke="none" /><path d="M 97.83486435360386 79.11191278185805 l -2.7904780240922658 -26.92106078645338 a48.06529662632316,48.06529662632316 0 0,0 0.8236901197508638,-0.07821930190099637 l 2.3266627772511654 26.96510563286956" fill="#b7ff1f" stroke="none" /><path d="M 98.91598698831166 79.02799685794201 l -3.2520390350650135 -62.91600942617398 a84.0,84.0 0 0,0 1.4446366704427036,-0.06220909390323026 l 2.1685615322329856 62.9626662466014" fill="#4dd2ff" stroke="none" /></svg>