<?xml version="1.0" encoding="utf-8" ?>
<svg baseProfile="full" height="200mm" version="1.1" viewBox="0,0,200,200" width="200mm" xmlns="http://www.w3.org/2000/svg" xmlns:ev="http://www.w3.org/2001/xml-events" xmlns:xlink="http://www.w3.org/1999/xlink"><defs /><rect fill="#1a1a1a" height="200" width="200" x="0" y="0" /><rect fill="#1a1a1a" height="200" width="180" x="10" y="0" /><text alignment-baseline="middle" fill="#e1ed5e" style="dominant-baseline: central; font-size:9.0px; font-family:Arial;" text-anchor="middle" x="100.0" y="100.0">2025</text><line stroke="#e1ed5e" stroke-width="0.3" x1="100.0" x2="100.0" y1="15.0" y2="10.0" /><path d="M 100.0 14.0 a86.0,86.0 0 0,1 42.46469731375804,11.215312516191453" fill="none" id="id13" stroke="none" /><text fill="#e1ed5e" style="font-size:6.75px; font-family:Arial;" text-anchor="middle"><textPath startOffset="22.20632615414155" xlink:href="#id13">January</textPath></text><path d="M 100.0 79.0 l 0.0 -59.072161196415536 a80.07216119641554,80.07216119641554 0 0,0 1.3783106288413065,0.011863554730632497 l -1.0168301495687782 59.06340901829346" fill="#48f8ff" stroke="none" /><path d="M 100.72285384407766 79.0124445844662 l 0.878363158939537 -25.50265952687706 a46.51778134522662,46.51778134522662 0 0,0 0.8000153899874822,0.034450345569936924 l -1.3172193813163506 25.48376145478293" fill="#cdff1d" stroke="none" /><path d="M 101.80526077348638 79.07773832637324 l 2.0229360100136056 -23.445031971070257 a44.53214385102038,44.53214385102038 0 0,0 0.7631428385135677,0.07246960798477982 l -2.426203975617417 23.406736818570298" fill="#e5ff1a" stroke="none" /><path d="M 102.16513564639614 79.11191278185805 l 3.0077511306658904 -29.01719716840297 a50.17266354610074,50.17266354610074 0 0,0 0.8582710152077717,0.09643674885136669 l -3.5067888493833874 28.961124466081" fill="#a2ff22" stroke="none" /><path d="M 102.88285421437855 79.19881850522331 l 4.260361719452308 -30.740561530208947 a52.034381018044115,52.034381018044115 0 0,0 0.886148035059377,0.1305951853771762 l -4.788878734940341 30.6626718606708" fill="#8dff24" stroke="none" /><path d="M 103.59715602781102 79.31037775812273 l 4.9973071184004265 -28.74281674383367 a50.17400542958099,50.17400542958099 0 0,0 0.8496248154556448,0.15526350435936914 l -5.491327054958972 28.652537758123565" fill="#a2ff22" stroke="none" /><path d="M 104.66035177308747 79.52364482259891 l 6.473879788592461 -28.444518435825238 a50.17193426160061,50.17193426160061 0 0,0 0.8404427644049766,0.19890564871799332 l -6.962546239959961 28.328866874966373" fill="#a2ff22" stroke="none" /><path d="M 105.01212808612495 79.60689891045804 l 7.968789116675515 -32.423018571188656 a54.38792795687822,54.38792795687822 0 0,0 0.9072194155301746,0.23127042910155685 l -8.525717420890714 32.28104514591823" fill="#73ff27" stroke="none" /><path d="M 106.0581310904928 79.89281104454417 l 10.014724366098935 -33.23928653210753 a55.71519657574303,55.71519657574303 0 0,0 0.9158905152497236,0.284571641414669 l -10.585400254059378 33.06197475581034" fill="#65ff29" stroke="none" /><path d="M 106.40334571778207 80.00007090966166 l 14.247745242773545 -44.500782420877314 a67.72598720811835,67.72598720811835 0 0,0 1.107214037577968,0.36503106014064407 l -15.011642102593932 44.248937636477436" fill="#38ff82" stroke="none" /><path d="M 107.08798089147638 80.2323363322302 l 10.987988245128557 -30.644390742688156 a53.55479334392456,53.55479334392456 0 0,0 0.8650824972312567,0.318617184461787 l -11.51385306813239 30.45071029042004" fill="#7cff26" stroke="none" /><path d="M 107.4271985657038 80.35727306442388 l 13.230349686947104 -34.990332339157085 a58.40809417817972,58.40809417817972 0 0,0 0.9373576684919763,0.36368021264976547 l -13.830690520438747 34.75740942261677" fill="#48ff2c" stroke="none" /><path d="M 108.09893153111575 80.62456947434976 l 12.887549851035514 -30.831452991700072 a54.4165742520435,54.4165742520435 0 0,0 0.8611195937792088,0.3686864700585044 l -13.416353202605038 30.605046993678776" fill="#73ff27" stroke="none" /><path d="M 108.43124777332544 80.76684994638697 l 19.932594224720095 -45.469731881763394 a70.64680080253707,70.64680080253707 0 0,0 1.1095513417996261,0.4978233444201853 l -20.7123276849865 45.11988820682668" fill="#3cffa3" stroke="none" /><path d="M 109.08828744355905 81.06846463323043 l 10.1033144176738 -21.045907208331084 a44.34538867622592,44.34538867622592 0 0,0 0.6853025143345497,0.3362749675478206 l -10.464088199018782 20.86887708064843" fill="#e7ff1a" stroke="none" /><path d="M 109.41281617654863 81.2277094730956 l 13.075481532939536 -26.076865149778726 a50.171409176760505,50.171409176760505 0 0,0 0.7686726059769504,0.3937439641873874 l -13.522414626505242 25.847928660278836" fill="#a2ff22" stroke="none" /><path d="M 109.73455568895987 81.39251694778311 l 17.75147795980829 -33.931731025335374 a59.29461241654323,59.29461241654323 0 0,0 0.9003038515808912,0.48091113801764507 l -18.332926857917492 33.62114116081598" fill="#3fff2d" stroke="none" /><path d="M 110.36928655335952 81.73862282372117 l 16.353120500869878 -28.799522507049442 a54.11853026252853,54.11853026252853 0 0,0 0.8061168142996668,0.46695489008242674 l -16.846434047634872 28.513763459576964" fill="#76ff27" stroke="none" /><line stroke="#e1ed5e" stroke-width="0.3" x1="143.23703022742887" x2="145.7803849466894" y1="26.81831364943548" y2="22.513508569990506" /><path d="M 143.74570117128098 25.957352633546492 a86.0,86.0 0 0,1 28.547481713284135,27.462654790039103" fill="none" id="id14" stroke="none" /><text fill="#e1ed5e" style="font-size:6.75px; font-family:Arial;" text-anchor="middle"><textPath startOffset="19.985693538727396" xlink:href="#id14">February</textPath></text><path d="M 110.99172775467656 82.1063720568725 l 27.48852390151546 -44.74905405023461 a73.51758548024657,73.51758548024657 0 0,0 1.0725895311896445,0.6716554660314027 l -28.254732585077367 44.26925424288026" fill="#40ffc3" stroke="none" /><path d="M 111.60114157652 82.49532879139004 l 16.824567052156777 -25.38616674339045 a51.45527078217731,51.45527078217731 0 0,0 0.7340836940181213,0.49565658708003624 l -17.25905544058144 25.092798244011746" fill="#93ff23" stroke="none" /><path d="M 111.90073688211348 82.69761687909136 l 20.986918971754026 -30.51270826115991 a58.033446144770615,58.033446144770615 0 0,0 0.8181855364817048,0.5731912550984892 l -21.50903564781938 30.146932163297485" fill="#4cff2c" stroke="none" /><path d="M 112.48926042617603 83.11751280151076 l 17.35481009906527 -23.459544387080243 a50.181152417682306,50.181152417682306 0 0,0 0.6900000366401231,0.519693722396402 l -17.756056289463775 23.157334075177992" fill="#a2ff22" stroke="none" /><path d="M 113.06298171725822 83.55741782278167 l 34.48130191746726 -43.40216136155095 a76.43201054244413,76.43201054244413 0 0,0 1.0230846859220966,0.8272633319114996 l -35.22329000195385 42.80219193237532" fill="#43ffe2" stroke="none" /><path d="M 113.89432698308785 84.25364557470405 l 24.96849258884686 -28.296637487221574 a58.737584915340484,58.737584915340484 0 0,0 0.7523697598749576,0.675484999026306 l -25.45187333631781 27.862653479425973" fill="#45ff2d" stroke="none" /><path d="M 114.42810811169701 84.74124197986012 l 23.92889582366605 -25.30652170303918 a55.82832318740389,55.82832318740389 0 0,0 0.6925816033971405,0.6662629537363699 l -24.36096067067561 24.890875662540505" fill="#63ff29" stroke="none" /><path d="M 114.94478906791727 85.2469230424477 l 37.37066765220646 -36.8912758368524 a73.51221794632559,73.51221794632559 0 0,0 0.8812215386445615,0.9081762571333477 l -38.00015345455413 36.24253538416894" fill="#40ffc3" stroke="none" /><path d="M 115.4437574822437 85.77008943001954 l 21.847888474120765 -20.130690312062473 a50.70816256885951,50.70816256885951 0 0,0 0.585936100952841,0.6470052772861186 l -22.191168215689643 19.75163224750681" fill="#9cff22" stroke="none" /><path d="M 115.9244219780498 86.31012108654704 l 19.676453406203127 -16.915418653714188 a46.94791334340595,46.94791334340595 0 0,0 0.5215452334258647,0.6173450525414191 l -19.96470925311611 16.574214651543663" fill="#c8ff1d" stroke="none" /><path d="M 116.82858285166822 87.43820079747576 l 19.32806242028022 -14.427551103826115 a45.11904284534862,45.11904284534862 0 0,0 0.45922030207859865,0.626375975953053 l -19.573545334872446 14.092712684201567" fill="#deff1b" stroke="none" /><path d="M 117.2510076193507 88.02491185347247 l 28.373147603090626 -19.69571581200397 a55.53920564017057,55.53920564017057 0 0,0 0.5384011173586581,0.7900372045153878 l -28.707973186118018 19.204400584218178" fill="#66ff29" stroke="none" /><path d="M 117.65298651832404 88.62581576622439 l 28.867983780240756 -18.600238867982647 a55.34136534097408,55.34136534097408 0 0,0 0.5090678366641295,0.8052230646972444 l -29.183879213150842 18.100568155571196" fill="#69ff28" stroke="none" /><line stroke="#e1ed5e" stroke-width="0.3" x1="172.23445277983987" x2="176.4835382374775" y1="55.19839476539836" y2="52.563006222186495" /><path d="M 173.08426987136738 54.67131705675599 a86.0,86.0 0 0,1 12.851231095245387,41.99856678651699" fill="none" id="id15" stroke="none" /><text fill="#e1ed5e" style="font-size:6.75px; font-family:Arial;" text-anchor="middle"><textPath startOffset="22.20632615414155" xlink:href="#id15">March</textPath></text><path d="M 118.03404312379186 89.2402003453031 l 23.65045940150897 -14.110768348227904 a48.54011643547962,48.54011643547962 0 0,0 0.42192993597051326,0.7212150311718426 l -23.88984901194981 13.701573904702165" fill="#b5ff20" stroke="none" /><path d="M 118.3937258080291 89.86733742301442 l 30.368911736909375 -16.72950541243999 a55.671993761955065,55.671993761955065 0 0,0 0.4551633537756112,0.8433485672130779 l -30.65238318990345 16.204275861894455" fill="#65ff29" stroke="none" /><path d="M 118.73160827565052 90.50648371742162 l 30.306030763720358 -15.359641963562742 a54.9760813205467,54.9760813205467 0 0,0 0.42054080910500014,0.8477846094076685 l -30.565931585778767 14.835697765656125" fill="#6dff28" stroke="none" /><path d="M 119.04729006885535 91.15688171328212 l 23.242216406115446 -10.790703988954654 a46.62498616674639,46.62498616674639 0 0,0 0.3316983288060909,0.7308532992445804 l -23.424517051884884 10.38902868086801" fill="#cbff1d" stroke="none" /><path d="M 119.34039704204932 91.81776055985345 l 26.483162859462187 -11.204091579784594 a49.75568784030383,49.75568784030383 0 0,0 0.3269145655248601,0.7916495510491848 l -26.672099111873244 10.746567458282106" fill="#a7ff21" stroke="none" /><path d="M 119.47837535516314 92.15188598940014 l 28.658889772371985 -11.547073626506036 a51.89768393133891,51.89768393133891 0 0,0 0.3267242172344683,0.8314774953477637 l -28.853407539488153 11.052047126262488" fill="#8eff24" stroke="none" /><path d="M 119.97218684219823 93.5106431181261 l 31.835899853239702 -10.344110909615873 a54.474246070314145,54.474246070314145 0 0,0 0.28208454933371463,0.8942851079422425 l -32.009239886341625 9.794575635247211" fill="#72ff27" stroke="none" /><path d="M 120.08093135843002 93.85539295169968 l 44.74012512234306 -13.690126382169975 a67.78780136234977,67.78780136234977 0 0,0 0.33181839180061284,1.1187266613930464 l -44.96914941125537 12.9179703340304" fill="#38ff83" stroke="none" /><path d="M 120.28053869075195 94.5502522615342 l 28.83443050483387 -7.7483332582938 a50.85734500620703,50.85734500620703 0 0,0 0.21990635609053055,0.8473888954651029 l -28.9635331927947 7.250847937279847" fill="#9aff23" stroke="none" /><path d="M 120.37134235888165 94.90015583598534 l 29.36912990730531 -7.352386657752954 a51.275458395824145,51.275458395824145 0 0,0 0.20697509635985087,0.8580453968441096 l -29.49133780392598 6.845756029249438" fill="#95ff23" stroke="none" /><path d="M 120.53481517161879 95.60439243477599 l 27.846257616233963 -5.960668241624394 a49.47707198987244,49.47707198987244 0 0,0 0.171098085903282,0.8343350311128198 l -27.94473499805224 5.480457554348162" fill="#aaff21" stroke="none" /><path d="M 120.67395015179393 96.31383870115 l 35.13384783317263 -6.264358248493104 a56.687945413402446,56.687945413402446 0 0,0 0.16301330941707548,0.9621137798339371 l -35.236473004109925 5.65865868034333" fill="#5aff2a" stroke="none" /><path d="M 120.78858239683441 97.02765380044208 l 29.105051102300358 -4.161432770184208 a50.40104628016286,50.40104628016286 0 0,0 0.11540399794387583,0.8598938296634443 l -29.172371099302072 3.6598205984560996" fill="#9fff22" stroke="none" /><path d="M 120.96714384426684 98.82574320788733 l 41.15510620804943 -2.3048758263817843 a62.21959751830273,62.21959751830273 0 0,0 0.05068346717629795,1.0698478863926801 l -41.18868328345923 1.5961168333661044" fill="#31ff40" stroke="none" /><path d="M 120.98425023603335 99.18683210126433 l 15.661677522180055 -0.6069110527245697 a36.67343242033088,36.67343242033088 0 0,0 0.01901483512156261,0.6310098061836865 l -15.669804051757263 0.33723109911588406" fill="#ffb510" stroke="none" /><line stroke="#e1ed5e" stroke-width="0.3" x1="184.98032266829074" x2="189.97916517819016" y1="98.17113171792111" y2="98.06355123074" /><path d="M 185.9800911702706 98.14961562048488 a86.0,86.0 0 0,1 -9.607161424134198,41.387399972396054" fill="none" id="id16" stroke="none" /><text fill="#e1ed5e" style="font-size:6.75px; font-family:Arial;" text-anchor="middle"><textPath startOffset="21.466115282336823" xlink:href="#id16">April</textPath></text><path d="M 120.99513854157772 99.54816195383933 l 34.61211255743788 -0.7448900268257345 a55.62012704830549,55.62012704830549 0 0,0 0.012360892240295166,0.9573647261920464 l -34.61980645679589 0.14898904257322543" fill="#66ff29" stroke="none" /><path d="M 120.9904718944345 100.63252640178507 l 25.831345903072766 0.7784011888588519 a46.84307140366661,46.84307140366661 0 0,0 -0.031223956683339427,0.8057515814643779 l -25.814119813538223 -1.222930017337236" fill="#c9ff1d" stroke="none" /><path d="M 120.95626037817324 101.35467743843564 l 34.078813908184074 2.2029598552873098 a55.149942745378766,55.149942745378766 0 0,0 -0.06939291794274532,0.946811232398767 l -34.03584443157699 -2.789244224182847" fill="#6bff28" stroke="none" /><path d="M 120.89721153311464 102.0752229133903 l 41.83711445353405 4.154685346727979 a63.04290137619458,63.04290137619458 0 0,0 -0.11653239705333536,1.0789452682694607 l -41.75939975497966 -4.8742269368822315" fill="#32ff4a" stroke="none" /><path d="M 120.81339534386255 102.79330883721812 l 29.307914703805388 3.93333503688599 a50.57067785489414,50.57067785489414 0 0,0 -0.12321412967520962,0.8617593359711385 l -29.235866523113575 -4.437239844837538" fill="#9dff22" stroke="none" /><path d="M 120.64145759157962 103.86396538481128 l 61.924372774738885 11.591896154433844 a84.0,84.0 0 0,0 -0.2782802680973435,1.4189450917282203 l -61.715662573665874 -12.656104973230008" fill="#4dd2ff" stroke="none" /><path d="M 120.41448212921028 104.9243191809786 l 20.216524179175803 4.876568367403606 a41.79636431997577,41.79636431997577 0 0,0 -0.17472609004264217,0.6979438753056902 l -20.1295867748381 -5.223840082106692" fill="#fff717" stroke="none" /><path d="M 120.32669344350535 105.2749913415812 l 25.960168062170904 6.736937423420362 a47.820079262806814,47.820079262806814 0 0,0 -0.213623505958695,0.7949725355671335 l -25.840356479870433 -7.182800892163044" fill="#bdff1f" stroke="none" /><path d="M 120.13307415673323 105.97154293290107 l 14.022994520310375 4.159271116471035 a35.62682164849784,35.62682164849784 0 0,0 -0.17944590052904755,0.5864395855992457 l -13.949321847275195 -4.400037674622338" fill="#ffa70f" stroke="none" /><path d="M 119.79798401119884 107.00284435728193 l 29.264196402788077 10.351185885074623 a52.04094457854533,52.04094457854533 0 0,0 -0.3059901947534249,0.8419535984020292 l -29.081681947029423 -10.853387280482782" fill="#8dff24" stroke="none" /><path d="M 119.41010516605496 108.01547362559984 l 31.71953851219694 13.098698960444 a55.317707351789714,55.317707351789714 0 0,0 -0.3710211811043072,0.8769844742454737 l -31.489366349900322 -13.642757960355638" fill="#69ff28" stroke="none" /><path d="M 118.97047184881838 109.00673069616215 l 34.65695815346524 16.454302840963095 a59.36468207131615,59.36468207131615 0 0,0 -0.4462153208123863,0.9193357254858201 l -34.36858957603814 -17.04842752241419" fill="#3fff2d" stroke="none" /><path d="M 118.64920377521936 109.65438752849418 l 25.975518476139328 13.447100725846406 a50.24982184621497,50.24982184621497 0 0,0 -0.40426577919352347,0.7647185026974785 l -25.740200188720912 -13.89223424363002" fill="#a1ff22" stroke="none" /><line stroke="#e1ed5e" stroke-width="0.3" x1="174.80103733775053" x2="179.2010983576182" y1="140.37084112569926" y2="142.7455964860345" /><path d="M 175.68104954172406 140.8457921977663 a86.0,86.0 0 0,1 -30.038265399797805,32.042727171017184" fill="none" id="id17" stroke="none" /><text fill="#e1ed5e" style="font-size:6.75px; font-family:Arial;" text-anchor="middle"><textPath startOffset="22.206326154141568" xlink:href="#id17">May</textPath></text><path d="M 118.30583269289576 110.29060199501023 l 15.536127965188404 8.7336157887725 a38.8226630136073,38.8226630136073 0 0,0 -0.3324846879545727,0.5797150786665576 l -15.383491281081449 -8.999750713297372" fill="#ffd113" stroke="none" /><path d="M 118.12598468904814 110.60418214915192 l 38.54884401197386 22.552096923551023 a65.66106190305749,65.66106190305749 0 0,0 -0.5791278279242287,0.9706515509714317 l -38.15493530835141 -23.212310568408558" fill="#35ff6a" stroke="none" /><path d="M 117.75023020441432 111.22182372390056 l 28.082714434337518 17.75409487322597 a54.22418900090802,54.22418900090802 0 0,0 -0.5055634520810205,0.784645704721556 l -27.772946118879446 -18.23486217786898" fill="#75ff27" stroke="none" /><path d="M 116.0416608686014 113.55231037782055 l 16.25327416930859 13.731085453216407 a42.27702114832443,42.27702114832443 0 0,0 -0.47442365269700715,0.5518618893327677 l -16.014508007040803 -14.008824441710702" fill="#fffd18" stroke="none" /><path d="M 115.80600337817218 113.82643327865902 l 15.073811002662207 13.18594189162617 a41.0272025433739,41.0272025433739 0 0,0 -0.46954881214215693,0.5275430680944844 l -14.844603340871718 -13.443459129461521" fill="#ffee16" stroke="none" /><path d="M 115.07121518719521 114.62390073753431 l 2.116968626827396 2.054136888012917 a23.949751603384065,23.949751603384065 0 0,0 -0.28963161653669534,0.2933952984177319 l -2.0812963852351656 -2.090272680411314" fill="#ff0000" stroke="none" /><path d="M 114.81725581225074 114.88116024355365 l 14.48832818544857 14.55081400501953 a41.53382189992735,41.53382189992735 0 0,0 -0.5109649936124528,0.5000867901251835 l -14.235713239460322 -14.798050898067286" fill="#fff417" stroke="none" /><path d="M 114.29624159901734 115.38237550388516 l 13.48742680102788 14.512112305715084 a40.8119177589342,40.8119177589342 0 0,0 -0.5187009160467064,0.47382098852865 l -13.23562633551431 -14.742126060830318" fill="#ffeb16" stroke="none" /><path d="M 113.75828350139079 115.86535959552629 l 14.923976807894707 17.20957840624589 a43.77925970446151,43.77925970446151 0 0,0 -0.5735802740284142,0.48881755308531355 l -14.625531057289246 -17.46392034955415" fill="#eeff19" stroke="none" /><path d="M 112.92097659922987 116.55440617244103 l 12.616536717854695 16.164356595873038 a41.50520477614208,41.50520477614208 0 0,0 -0.5669833746795141,0.4347386742928542 l -12.336424614681686 -16.379134611993265" fill="#fff417" stroke="none" /><line stroke="#e1ed5e" stroke-width="0.3" x1="143.8653032363475" x2="146.44561519142675" y1="172.8068346515853" y2="177.08958963109032" /><path d="M 144.38136562736335 173.6633856474863 a86.0,86.0 0 0,1 -40.68145358897372,12.25698825130547" fill="none" id="id18" stroke="none" /><text fill="#e1ed5e" style="font-size:6.75px; font-family:Arial;" text-anchor="middle"><textPath startOffset="21.466115282336833" xlink:href="#id18">June</textPath></text><path d="M 110.5260780823613 118.17145234162733 l 10.30513119250288 17.790025769671647 a41.55920100053203,41.55920100053203 0 0,0 -0.622104099061287,0.35324694336665124 l -9.997378326520396 -17.964775878832928" fill="#fff417" stroke="none" /><path d="M 110.21172684928248 118.3499491758327 l 11.509412060191325 20.681822914511873 a44.668636738065544,44.668636738065544 0 0,0 -0.6750860155041889,0.3681107219366283 l -11.151703232818488 -20.87687428820827" fill="#e3ff1b" stroke="none" /><path d="M 109.57404056367764 118.69057910512821 l 10.739274328763019 20.965365149478217 a44.55586018296475,44.55586018296475 0 0,0 -0.6856215289503973,0.3437848678851922 l -10.37679889212986 -21.14711785827271" fill="#e4ff1a" stroke="none" /><path d="M 108.59647513512805 119.15986991738527 l 10.801616368912667 24.07470053396292 a47.38685509834691,47.38685509834691 0 0,0 -0.7470860960024512,0.32750058965093015 l -10.385609598252461 -24.2570656769083" fill="#c2ff1e" stroke="none" /><path d="M 108.2653958097858 119.30500536409082 l 8.118492929291305 18.961892830679048 a41.62676191662449,41.62676191662449 0 0,0 -0.661129197518973,0.2763520581820963 l -7.790892272274871 -19.098829931881117" fill="#fff517" stroke="none" /><path d="M 107.59598834532513 119.57807347666477 l 12.077895496422295 31.129843112247833 a54.39075758073874,54.39075758073874 0 0,0 -0.8757683263550763,0.3311406445106419 l -11.540256949306944 -31.333132006865107" fill="#73ff27" stroke="none" /><path d="M 106.57524785965236 119.94407469862006 l 8.248127268855331 25.018260890696375 a47.3428354859188,47.3428354859188 0 0,0 -0.7761489390796676,0.2484983803176503 l -7.816256984684723 -25.15653211767373" fill="#c3ff1e" stroke="none" /><path d="M 106.2309692047433 120.05430185196036 l 7.038679474044363 22.653907951306966 a44.72219539175543,44.72219539175543 0 0,0 -0.7371176677647461,0.22208750662908738 l -6.647686831839371 -22.77171082704178" fill="#e2ff1b" stroke="none" /><path d="M 105.53697534728816 120.25689768951611 l 6.204575845994225 22.69929884746639 a44.531997994120346,44.531997994120346 0 0,0 -0.7411599476021089,0.19574707845965497 l -5.8129254555806185 -22.802737275229628" fill="#e5ff1a" stroke="none" /><path d="M 103.7750983002368 120.6578951692458 l 6.258157940835958 34.245564065513925 a55.81268732772101,55.81268732772101 0 0,0 -0.946559333175082,0.16457147313786238 l -5.667749636188827 -34.348214117172795" fill="#64ff29" stroke="none" /><path d="M 103.06178313531738 120.77559828337769 l 3.894213767635325 26.424020673692763 a47.70943221844641,47.70943221844641 0 0,0 -0.8134944575302632,0.11274291923531567 l -3.438790718918231 -26.48713815842068" fill="#bfff1e" stroke="none" /><path d="M 101.98527174616119 120.90594882070398 l 2.515845061309832 26.493163061563944 a47.6123498657885,47.6123498657885 0 0,0 -0.8165646833257845,0.0704566368023456 l -2.059436060242506 -26.532543950644953" fill="#c0ff1e" stroke="none" /><line stroke="#e1ed5e" stroke-width="0.3" x1="102.19456741930631" x2="102.32365962044197" y1="184.97166512339345" y2="189.96999836594603" /><path d="M 102.22038585953345 185.97133177190398 a86.0,86.0 0 0,1 -42.740103519485714,-10.115201625700543" fill="none" id="id19" stroke="none" /><text fill="#e1ed5e" style="font-size:6.75px; font-family:Arial;" text-anchor="middle"><textPath startOffset="22.20632615414155" xlink:href="#id19">July</textPath></text><path d="M 94.81253420990036 120.34920634021253 l -4.676672448894117 18.345484384641214 a39.93219645211194,39.93219645211194 0 0,0 -0.6646040142639172,-0.17552796065898846 l 4.991766905969524 -18.26226507467864" fill="#ffe014" stroke="none" /><path d="M 93.76903079525671 120.05430185196036 l -5.6158673903130705 18.074603822497807 a39.92694560371097,39.92694560371097 0 0,0 -0.6545711965272764,-0.20957302645094303 l 5.926159931931287 -17.975257949387156" fill="#ffdf14" stroke="none" /><path d="M 93.42475214034765 119.94407469862007 l -6.0009837304981914 18.202213869484098 a40.16591754871504,40.16591754871504 0 0,0 -0.6547623467272852,-0.22213093774304898 l 6.313415810162703 -18.096219944842925" fill="#ffe315" stroke="none" /><path d="M 92.7421414339146 119.70592522655815 l -7.586938018575475 20.599413991228825 a42.95216356716895,42.95216356716895 0 0,0 -0.6915907421350026,-0.2615004416080317 l 7.940398981470761 -20.46576529951416" fill="#f8ff18" stroke="none" /><path d="M 92.40401165467489 119.57807347666478 l -6.637655840455562 17.108045437856713 a39.35057747756467,39.35057747756467 0 0,0 -0.6293823628712341,-0.2504442311580992 l 6.931159279368654 -16.991254362292548" fill="#ffd814" stroke="none" /><line stroke="#e1ed5e" stroke-width="0.3" x1="58.666819895761336" x2="56.23545636021788" y1="174.27360380694188" y2="178.64263932499728" /><path d="M 58.180547188652646 175.14741091055294 a86.0,86.0 0 0,1 -31.652253787137756,-30.449443065178592" fill="none" id="id20" stroke="none" /><text fill="#e1ed5e" style="font-size:6.75px; font-family:Arial;" text-anchor="middle"><textPath startOffset="22.20632615414155" xlink:href="#id20">August</textPath></text><path d="M 82.6465618267979 111.8261652097733 l -10.396702629315833 7.085231278320555 a33.58141199666058,33.58141199666058 0 0,0 -0.3214171203453152,-0.48047498446867737 l 10.517122855071877 -6.905219379646055" fill="#ff8b0c" stroke="none" /><path d="M 82.05923443525364 110.91462005526583 l -16.985473095677058 10.333448961762626 a40.8818123854271,40.8818123854271 0 0,0 -0.3605758804713326,-0.6043459159558494 l 17.16082985184662 -10.039540951920666" fill="#ffec16" stroke="none" /><line stroke="#e1ed5e" stroke-width="0.3" x1="26.63291911575756" x2="22.317208475507996" y1="142.92168965132927" y2="145.44649492493687" /><path d="M 25.769776987707644 143.4266507060508 a86.0,86.0 0 0,1 -11.730757126820373,-40.83630448921669" fill="none" id="id21" stroke="none" /><text fill="#e1ed5e" style="font-size:6.75px; font-family:Arial;" text-anchor="middle"><textPath startOffset="21.46611528233685" xlink:href="#id21">September</textPath></text><path d="M 81.87401531095188 110.60418214915194 l -19.55704421921798 11.441389957970724 a43.65796510639913,43.65796510639913 0 0,0 -0.37389513697309773,-0.6519176870274903 l 19.75109135234345 -11.103052425084927" fill="#efff19" stroke="none" /><path d="M 81.35079622478065 109.6543875284942 l -24.836360198795816 12.857377132371628 a48.967068753238365,48.967068753238365 0 0,0 -0.381060167253407,-0.7518678611784175 l 25.05399903583549 -12.427955059490525" fill="#b0ff20" stroke="none" /><path d="M 80.73074385275274 108.34839909993369 l -22.034555734636175 9.546464267057567 a45.013675820769194,45.013675820769194 0 0,0 -0.3019110510610921,-0.7136285416256829 l 22.195617766889576 -9.165761199765726" fill="#dfff1b" stroke="none" /><path d="M 80.45479744820244 107.68017299344265 l -23.015235743649086 9.043702234737552 a45.728316288141,45.728316288141 0 0,0 -0.28156823241018786,-0.7350858051083738 l 23.167498255652784 -8.64619286279602" fill="#d6ff1c" stroke="none" /><path d="M 80.32549172779594 107.34259656027581 l -20.316857234269275 7.582323480720387 a42.685624668059795,42.685624668059795 0 0,0 -0.2509828119210622,-0.6905969055782546 l 20.444364307195563 -7.231478778136015" fill="#fcff18" stroke="none" /><path d="M 80.0844068197444 106.66101706037122 l -26.660416305830413 8.916906779648144 a49.11207968324512,49.11207968324512 0 0,0 -0.2612476128250432,-0.8040374771179736 l 26.809956169671704 -8.456670402552367" fill="#aeff20" stroke="none" /><path d="M 79.86692584326677 105.97154293290107 l -18.785180078893994 5.571752652879274 a40.59406589305402,40.59406589305402 0 0,0 -0.19293269880273622,-0.671624034924546 l 18.878305414582833 -5.247571142450132" fill="#ffe815" stroke="none" /><path d="M 79.67330655649465 105.27499134158121 l -22.898303922603684 5.942351384613567 a44.65679315778337,44.65679315778337 0 0,0 -0.18668386567233908,-0.7457092448677934 l 22.997199102571084 -5.547314300348382" fill="#e3ff1b" stroke="none" /><path d="M 79.58551787078972 104.9243191809786 l -19.449099189609402 4.691452449587751 a41.006928434270165,41.006928434270165 0 0,0 -0.15961348205445092,-0.687610703217642 l 19.526973237594408 -4.355973089021536" fill="#ffed16" stroke="none" /><path d="M 79.4281124754447 104.21870165774334 l -28.537733238184313 5.852267196019873 a50.131619414433175,50.131619414433175 0 0,0 -0.16607905346192842,-0.8468335155773229 l 28.634242224621907 -5.360169953374595" fill="#a2ff22" stroke="none" /><path d="M 79.29508885075956 103.50808413554451 l -27.491131623027222 4.657890199081861 a48.88293849330286,48.88293849330286 0 0,0 -0.13342306076671662,-0.8308255267566149 l 27.56723643815523 -4.183985442632032" fill="#b1ff20" stroke="none" /><path d="M 79.10278846688536 102.07522291339032 l -29.629080695291034 2.942351761340198 a50.7748191721718,50.7748191721718 0 0,0 -0.07888328449764764,-0.870470471193473 l 29.675338576065755 -2.431899901598159" fill="#9bff22" stroke="none" /><path d="M 79.04373962182676 101.35467743843564 l -28.03253798599121 1.8121098930067159 a49.09104711826124,49.09104711826124 0 0,0 -0.04725281909581829,-0.8437308276042947 l 28.05957715597456 -1.3293073490669836" fill="#aeff20" stroke="none" /><path d="M 79.0235259727143 100.99374915477108 l -26.324571555986406 1.2471123936007518 a47.35409563860087,47.35409563860087 0 0,0 -0.031564587604793505,-0.8145417519875188 l 26.3421382764424 -0.7937933945992361" fill="#c3ff1e" stroke="none" /><path d="M 79.0095281055655 100.63252640178507 l -24.024736435005092 0.7239608603129011 a45.035641869913235,45.035641869913235 0 0,0 -0.016680209495458988,-0.7750637916292918 l 24.033638707185556 -0.3103072528934804" fill="#dfff1b" stroke="none" /><line stroke="#e1ed5e" stroke-width="0.3" x1="15.007084014347285" x2="10.007500721073583" y1="101.09737516637583" y2="101.16192664675087" /><path d="M 14.007167355692545 101.11028546245083 a86.0,86.0 0 0,1 10.666146001902534,-42.60595125391555" fill="none" id="id22" stroke="none" /><text fill="#e1ed5e" style="font-size:6.75px; font-family:Arial;" text-anchor="middle"><textPath startOffset="22.20632615414155" xlink:href="#id22">October</textPath></text><path d="M 79.00486145842228 99.54816195383935 l -26.538877200625077 -0.5711452866996279 a47.54502232073608,47.54502232073608 0 0,0 0.024651653816254757,-0.8180683764679485 l 26.52511385235318 1.027883810592571" fill="#c0ff1e" stroke="none" /><path d="M 79.01574976396665 99.18683210126434 l -25.3780809565919 -0.9834347443102206 a46.39712851752436,46.39712851752436 0 0,0 0.03779464082197507,-0.7977851329648998 l 25.357392707536427 1.4201309838981295" fill="#ceff1d" stroke="none" /><path d="M 79.05617556472873 98.46500227214037 l -29.092298418945827 -2.132209048510287 a50.1703298357003,50.1703298357003 0 0,0 0.07053832787357799,-0.8607462670903897 l 29.051285607252755 2.632669232808455" fill="#a2ff22" stroke="none" /><path d="M 79.12142395522702 97.74499172005258 l -27.10129080940996 -2.927097855784205 a48.25890433222776,48.25890433222776 0 0,0 0.09631017357129709,-0.8251267515270396 l 27.046890282835076 3.3931683456361066" fill="#b8ff1f" stroke="none" /><path d="M 79.16333360222342 97.38593545837743 l -25.3410466986361 -3.17916169304197 a46.53968905161065,46.53968905161065 0 0,0 0.10656259296217932,-0.794015093009823 l 25.282568106616086 3.6148951281164527" fill="#ccff1d" stroke="none" /><path d="M 79.26566170972629 96.67025291283419 l -25.132120463844462 -4.035991105056946 a46.454129394054874,46.454129394054874 0 0,0 0.13358468565741258,-0.788424376545552 l 25.058923916666824 4.468001269918326" fill="#cdff1d" stroke="none" /><path d="M 79.3925641242962 95.95851677861259 l -28.878087813012616 -5.66350457504732 a50.42820483494788,50.42820483494788 0 0,0 0.17438722575508522,-0.85037404514445 l 28.776321291342537 6.159754276355172" fill="#9fff22" stroke="none" /><path d="M 79.62865764111835 94.90015583598534 l -29.31140177658587 -7.337934764236938 a51.21594878061317,51.21594878061317 0 0,0 0.2214569531439112,-0.853363978440136 l 29.180748491571652 7.841395168225938" fill="#96ff23" stroke="none" /><path d="M 79.71946130924805 94.55025226153421 l -20.0090548382454 -5.376795114583945 a41.718885134681486,41.718885134681486 0 0,0 0.1923304761075981,-0.6919150536368127 l 19.91353759157144 5.7204214716397015" fill="#fff617" stroke="none" /><path d="M 79.91906864156998 93.8553929516997 l -59.5272673949027 -18.214875608706482 a83.25172493148199,83.25172493148199 0 0,0 0.43110326443507485,-1.366715157849635 l 59.20490864669942 19.23684093298253" fill="#4cd9ff" stroke="none" /><path d="M 80.14247586403 93.16781622104843 l -22.596769777010717 -7.774649189399276 a44.89684444384764,44.89684444384764 0 0,0 0.2577226799555739,-0.7286167215437379 l 22.459594016245337 8.162463537369625" fill="#e0ff1b" stroke="none" /><path d="M 80.2630227832202 92.82701384747504 l -28.324424964449026 -10.293912072589071 a51.1369818549386,51.1369818549386 0 0,0 0.3077847554447508,-0.8247101236389568 l 28.143035620502648 10.77994533325737" fill="#97ff23" stroke="none" /><path d="M 80.52162464483688 92.15188598940014 l -20.49794447241821 -8.25891288514683 a43.099216493776076,43.099216493776076 0 0,0 0.2831789137303619,-0.6857402011480316 l 20.352743871801646 8.610527656748172" fill="#f6ff19" stroke="none" /><path d="M 80.65960295795067 91.81776055985345 l -2.810533214523882 -1.1890374156084245 a24.05170557650287,24.05170557650287 0 0,0 0.1645930254986724,-0.37990339589891725 l 2.7896494791825313 1.2372399560939409" fill="#ff0200" stroke="none" /><path d="M 80.95270993114464 91.15688171328213 l -26.66392710791567 -12.379307531482944 a50.39748737180221,50.39748737180221 0 0,0 0.37208178418865395,-0.7836991301867863 l 26.446887129885262 12.836449077310261" fill="#9fff22" stroke="none" /><path d="M 81.26839172434947 90.50648371742162 l -26.093574035267473 -13.224693060472044 a50.25349744009564,50.25349744009564 0 0,0 0.39769796310744066,-0.7682258800043382 l 25.86206663899992 13.671891662736716" fill="#a1ff22" stroke="none" /><path d="M 81.6062741919709 89.86733742301443 l -25.677421523736538 -14.14507592765554 a50.31574916502713,50.31574916502713 0 0,0 0.4244309755824437,-0.7550153462802448 l 25.430132906861665 14.584974783870571" fill="#a0ff22" stroke="none" /><line stroke="#e1ed5e" stroke-width="0.3" x1="26.266209847984243" x2="21.928928074336255" y1="57.711370442889674" y2="55.22380399835377" /><path d="M 25.398753493254645 57.213857153982495 a86.0,86.0 0 0,1 29.58750427330803,-30.492523968695096" fill="none" id="id23" stroke="none" /><text fill="#e1ed5e" style="font-size:6.75px; font-family:Arial;" text-anchor="middle"><textPath startOffset="21.46611528233685" xlink:href="#id23">November</textPath></text><path d="M 81.78341655067845 89.55222093294921 l -25.774507276834157 -14.782484231448207 a50.71274247552036,50.71274247552036 0 0,0 0.4408152628563896,-0.7534961765884578 l 25.516232339507443 15.223959820390556" fill="#9cff22" stroke="none" /><path d="M 82.15384107792192 88.93136811851018 l -26.45639672140813 -16.408915638291408 a52.1318717700221,52.1318717700221 0 0,0 0.4795447134291624,-0.7585245737329113 l 26.170024411733003 16.861887859738534" fill="#8cff24" stroke="none" /><path d="M 82.34701348167596 88.62581576622439 l -22.16006453338839 -14.278187794086966 a47.36162185464225,47.36162185464225 0 0,0 0.44746214908889903,-0.6815155516758777 l 21.91100574894157 14.65752140974051" fill="#c3ff1e" stroke="none" /><path d="M 83.17141714833178 87.43820079747577 l -42.20722573868942 -31.5058433201623 a73.66942251317458,73.66942251317458 0 0,0 0.7672988177822371,-1.0096753024449934 l 41.65865098068307 32.227703398488316" fill="#40ffc4" stroke="none" /><path d="M 83.6137871275137 86.86637796730984 l -23.137475128690635 -18.544788566809586 a50.65218269062919,50.65218269062919 0 0,0 0.5511476249728962,-0.6756418197880343 l 22.814829011641347 18.940314556205703" fill="#9cff22" stroke="none" /><path d="M 84.07557802195018 86.31012108654704 l -23.610708832744866 -20.297612398528997 a52.13613079150289,52.13613079150289 0 0,0 0.5908963490451149,-0.675496673720794 l 23.257820620121908 20.701024628452735" fill="#8cff24" stroke="none" /><path d="M 84.31358615837235 86.03803664274999 l -22.48322235506587 -20.011580074554644 a51.09914657507163,51.09914657507163 0 0,0 0.5904539464539988,-0.6519939951283265 l 22.135424767995826 20.395626856952525" fill="#97ff23" stroke="none" /><path d="M 85.05521093208273 85.24692304244772 l -44.43820401379697 -43.86814967354511 a83.44332255535733,83.44332255535733 0 0,0 1.0178662835130334,-1.0134952422147887 l 43.67650193011662 44.62658076641001" fill="#4cd7ff" stroke="none" /><path d="M 85.83668400450813 84.49514656593479 l -20.221145069817215 -22.13647500883836 a50.98196514159001,50.98196514159001 0 0,0 0.6530280216120433,-0.5862950055516221 l 19.8371060606092 22.48126902315926" fill="#99ff23" stroke="none" /><path d="M 86.37877921826538 84.01681056812374 l -19.25241179737305 -22.590849213055357 a50.68167495581462,50.68167495581462 0 0,0 0.6688592489662969,-0.5601503856470276 l 18.860695011447643 22.918900756096196" fill="#9cff22" stroke="none" /><path d="M 86.93701828274178 83.55741782278169 l -33.091030886755206 -41.652205174986854 a74.1970160919519,74.1970160919519 0 0,0 1.0068444805008814,-0.7858580873334595 l 32.3691538510949 42.21564165154353" fill="#40ffca" stroke="none" /><path d="M 87.51073957382395 83.11751280151077 l -19.86781248611523 -26.856521404248046 a54.40662681146167,54.40662681146167 0 0,0 0.7576891824954229,-0.5504934140925414 l 19.402577987266028 27.194534053157255" fill="#73ff27" stroke="none" /><path d="M 87.80319425747018 82.90503203632743 l -18.33413457154457 -25.697010328640946 a52.56702124556236,52.56702124556236 0 0,0 0.7411170512216746,-0.5191998560514042 l 17.889086380739236 26.00879502745629" fill="#87ff25" stroke="none" /><path d="M 88.70189139769569 82.29822771554957 l -16.15953393572843 -25.318608629303814 a51.03601970873998,51.03601970873998 0 0,0 0.7445932846624145,-0.4662642465464868 l 15.721321498693774 25.59301721717323" fill="#98ff23" stroke="none" /><path d="M 89.00827224532344 82.1063720568725 l -28.2592754146002 -46.003774065099705 a74.99012757153818,74.99012757153818 0 0,0 1.105704197872674,-0.6661744074095775 l 27.46320915050988 46.483395081967906" fill="#41ffd2" stroke="none" /><line stroke="#e1ed5e" stroke-width="0.3" x1="56.76296977257108" x2="54.21961505331056" y1="26.818313649435495" y2="22.513508569990535" /><path d="M 56.25429882871898 25.957352633546506 a86.0,86.0 0 0,1 42.26535254187918,-11.944610805530505" fill="none" id="id24" stroke="none" /><text fill="#e1ed5e" style="font-size:6.75px; font-family:Arial;" text-anchor="middle"><textPath startOffset="22.20632615414155" xlink:href="#id24">December</textPath></text><path d="M 89.63071344664047 81.73862282372117 l -14.435284714235301 -25.42201697842146 a50.23450687171214,50.23450687171214 0 0,0 0.755612886577079,-0.4204977532954331 l 13.995547738586177 25.66673012927708" fill="#a1ff22" stroke="none" /><path d="M 89.94658935756843 81.56283822128135 l -14.56855906134566 -26.717587677477148 a51.43143776471292,51.43143776471292 0 0,0 0.7809127950214237,-0.4171365703777105 l 14.10650121979593 26.96440297435661" fill="#94ff23" stroke="none" /><path d="M 90.58718382345135 81.22770947309562 l -12.018303757216104 -23.9685005570534 a47.81284476056548,47.81284476056548 0 0,0 0.7388877109892147,-0.3625689908283095 l 11.603944779216464 24.17182470801654" fill="#bdff1f" stroke="none" /><path d="M 91.23893434514133 80.91482961587045 l -22.42300746525136 -48.84644572451094 a74.74724666161339,74.74724666161339 0 0,0 1.1739513592559427,-0.5267177550373827 l 21.578873987528645 49.225183810064856" fill="#41ffd0" stroke="none" /><path d="M 91.90106846888425 80.62456947434976 l -13.222506038599038 -31.63278342847923 a55.285093748943694,55.285093748943694 0 0,0 0.8811815547185737,-0.35945608132088763 l 12.676040614292084 31.855700395983693" fill="#69ff28" stroke="none" /><path d="M 92.23578459929587 80.48803036053334 l -11.13884423737643 -27.99262763353093 a51.12741364229684,51.12741364229684 0 0,0 0.8205142441656756,-0.3183467792826698 l 10.655346828211076 28.180217116704153" fill="#97ff23" stroke="none" /><path d="M 92.91201910852362 80.23233633223022 l -12.988716918108294 -36.22422117726043 a59.482476103777884,59.482476103777884 0 0,0 0.9667828350997614,-0.337291547887728 l 12.363252078945248 36.44243357832037" fill="#3dff2e" stroke="none" /><path d="M 93.59665428221793 80.00007090966166 l -16.119265334278325 -50.346206168230985 a73.86370390401042,73.86370390401042 0 0,0 1.2142300482584785,-0.37726718656291675 l 15.250249913309117 50.616213489676426" fill="#40ffc6" stroke="none" /><path d="M 94.28887869178378 79.79150937346287 l -7.962462717387483 -28.17473916321584 a50.27826394172021,50.27826394172021 0 0,0 0.8348636553640305,-0.2281997741682793 l 7.4763011727997295 28.307625478210415" fill="#a1ff22" stroke="none" /><path d="M 94.63758080256005 79.69619591428918 l -6.120909471794266 -23.175686600744193 a44.970356321461196,44.970356321461196 0 0,0 0.7501293377179145,-0.19122467051071942 l 5.721071245391352 23.277614267423775" fill="#dfff1b" stroke="none" /><path d="M 95.33964822691252 79.52364482259891 l -6.4955215575321255 -28.53960665428004 a50.26945418495859,50.26945418495859 0 0,0 0.8453820713452077,-0.18476777719842724 l 6.003296762033396 28.647187929574333" fill="#a1ff22" stroke="none" /><path d="M 96.04723909329186 79.375362276772 l -10.615712730213351 -55.390456038700215 a77.3985458761624,77.3985458761624 0 0,0 1.3106333587192804,-0.23950986894835122 l 9.660684250391178 55.56498138899931" fill="#45ffeb" stroke="none" /><path d="M 97.11714578562143 79.19881850522333 l -5.983237575791042 -43.17194054407829 a64.58457963809894,64.58457963809894 0 0,0 1.1025057412271324,-0.14313688733792754 l 5.239217106056052 43.268535754580356" fill="#34ff5d" stroke="none" /><path d="M 97.83486435360386 79.11191278185805 l -3.263910023473439 -31.488483114654205 a52.65718998115899,52.65718998115899 0 0,0 0.9023809310597559,-0.08569194261746661 l 2.721403965323447 31.540000601786854" fill="#86ff25" stroke="none" /></svg>